<svg width="121" height="128" viewBox="0 0 121 128" fill="none" xmlns="http://www.w3.org/2000/svg">
<path fill-rule="evenodd" clip-rule="evenodd" d="M44.8176 81.0232C46.4382 79.3071 48.1143 77.6727 49.8405 76.1201C49.9969 75.8034 50.154 75.49 50.3117 75.1798L5.83132 76.6803C5.83132 76.6803 16.4315 62.3372 30.8151 60.8783C33.2695 60.629 35.8356 60.7809 38.4782 61.4534L0 25.2991C0 25.2991 25.698 20.929 41.6816 33.9716C47.819 38.9765 52.4055 46.6714 53.621 58.1053L52.4819 0C52.4819 0 73.8223 15.3616 75.6846 35.7767C76.1414 40.7798 75.3533 46.0885 72.7851 51.549C75.714 50.326 78.6677 49.6224 81.5975 49.3427C102.019 47.3948 121 64.8604 121 64.8604L79.2578 71.7673C84.4081 73.6091 88.487 76.4418 91.6812 79.8815C105.878 95.1712 103.328 121.531 103.328 121.531L67.3859 87.8618C68.2584 90.2722 68.5918 92.6464 68.5046 94.9465C67.9788 108.879 52.9281 120.084 52.9281 120.084L51.4399 81.6366C42.2631 93.433 35.0915 108.992 33.8538 128L23.9261 120.084C27.1286 105.927 34.075 92.399 44.8176 81.0232Z" fill="#0085FF"/>
</svg>
