<svg width="64" height="64" viewBox="0 0 64 64" fill="none" xmlns="http://www.w3.org/2000/svg">
<path d="M22.2483 48.2502C31.2231 48.2502 38.4985 40.9748 38.4985 32C38.4985 23.0252 31.2231 15.7498 22.2483 15.7498C13.2735 15.7498 5.99805 23.0252 5.99805 32C5.99805 40.9748 13.2735 48.2502 22.2483 48.2502Z" fill="#F93232"/>
<path d="M41.7502 15.7498C38.1004 15.7498 34.7431 16.9685 32.0326 18.9998H32.0001V19.0226C31.3566 19.5068 30.7651 20.0528 30.2012 20.6248H33.799C34.2995 21.1335 34.761 21.6778 35.1884 22.2499H28.7988C28.4055 22.7682 28.0448 23.3094 27.7149 23.8749H36.269C36.5745 24.4014 36.8622 24.9376 37.1108 25.4999H26.8878C26.6554 26.028 26.4506 26.5692 26.2751 27.1249H37.7218C37.8908 27.6547 38.0241 28.1991 38.1411 28.75H25.851C25.7421 29.283 25.6511 29.8225 25.5959 30.375H38.4027C38.4661 30.908 38.5002 31.4491 38.5002 32H25.5C25.5 32.5509 25.5439 33.0888 25.5975 33.625H38.4059C38.3442 34.1759 38.2548 34.717 38.1427 35.25H25.8526C25.9648 35.8042 26.1094 36.3437 26.2768 36.8751H37.7234C37.5479 37.4308 37.3432 37.972 37.1108 38.5001H26.8878C27.1331 39.0591 27.4094 39.6019 27.7149 40.1251H36.269C35.9408 40.6906 35.5752 41.2318 35.1819 41.7501H28.7988C29.2311 42.3222 29.6974 42.8665 30.1996 43.3752H33.799C33.2335 43.9488 32.6436 44.4932 32.0001 44.9774C34.7171 47.0234 38.0858 48.2502 41.7502 48.2502C50.7253 48.2502 58.0005 40.9734 58.0005 32C58.0005 23.0266 50.7253 15.7498 41.7502 15.7498Z" fill="#FED049"/>
</svg>
