<svg width="65" height="64" viewBox="0 0 65 64" fill="none" xmlns="http://www.w3.org/2000/svg">
<g id="002-passport">
<g id="Group">
<g id="Group_2">
<path id="Vector" d="M21.5871 18.2998C14.3547 18.2998 8.49164 24.1629 8.49164 31.3953C8.49164 38.6277 14.3547 44.4907 21.5871 44.4907C28.8195 44.4907 34.6826 38.6277 34.6826 31.3953C34.6826 24.1629 28.8195 18.2998 21.5871 18.2998ZM31.2787 26.4845H26.5592C26.1078 24.2228 25.4028 22.3947 24.683 20.9844C27.567 21.845 29.9344 23.8448 31.2787 26.4845ZM24.861 31.3953C24.861 32.3695 24.788 33.2645 24.6877 34.1235H18.4869C18.3862 33.2645 18.3131 32.3694 18.3131 31.3953C18.3131 30.4206 18.385 29.5258 18.4847 28.667H24.6899C24.7891 29.5258 24.861 30.4207 24.861 31.3953ZM21.2695 20.5143C21.3772 20.5112 21.4784 20.4824 21.5871 20.4824C21.6969 20.4824 21.7985 20.5117 21.9078 20.5148C22.7268 21.7713 23.7228 23.759 24.3258 26.4845H18.8487C19.4546 23.7496 20.4542 21.7629 21.2695 20.5143ZM18.4913 20.9844C17.774 22.3917 17.0685 24.2218 16.6167 26.4845H11.8955C13.24 23.8448 15.6074 21.8455 18.4913 20.9844ZM10.6742 31.3953C10.6742 30.4478 10.8335 29.5442 11.0616 28.667H16.2852C16.1941 29.5313 16.1307 30.4303 16.1307 31.3953C16.1307 32.3608 16.1957 33.2586 16.2884 34.1235H11.0616C10.8335 33.2464 10.6742 32.3428 10.6742 31.3953ZM11.8955 36.3061H16.622C17.0782 38.5728 17.7841 40.4165 18.4881 41.8052C15.6058 40.944 13.2394 38.9448 11.8955 36.3061ZM21.9041 42.2762C21.7965 42.2795 21.6958 42.3082 21.5871 42.3082C21.4784 42.3082 21.3777 42.2794 21.2695 42.2762C20.4874 41.0731 19.4685 39.0809 18.8515 36.3061H24.323C23.7068 39.0792 22.689 41.0704 21.9041 42.2762ZM24.6872 41.8052C25.3922 40.4152 26.0977 38.573 26.5527 36.3061H31.2787C29.9348 38.9445 27.5689 40.9436 24.6872 41.8052ZM26.8864 34.1235C26.9786 33.2586 27.0436 32.3608 27.0436 31.3953C27.0436 30.4303 26.9807 29.5313 26.8895 28.667H32.1126C32.3407 29.5442 32.5 30.4479 32.5 31.3953C32.5 32.3428 32.3407 33.2464 32.1126 34.1235H26.8864Z" fill="#0085FF"/>
</g>
</g>
<g id="Group_3">
<g id="Group_4">
<path id="Vector_2" d="M32.5 51.0386H10.6742V53.2212H32.5V51.0386Z" fill="#0085FF"/>
</g>
</g>
<g id="Group_5">
<g id="Group_6">
<path id="Vector_3" d="M47.6945 35.3164L46.5643 39.5327L48.6725 40.0978L49.8026 35.8815L47.6945 35.3164Z" fill="#0085FF"/>
</g>
</g>
<g id="Group_7">
<g id="Group_8">
<path id="Vector_4" d="M45.4342 43.7458L41.4803 58.5024L43.5885 59.0673L47.5423 44.3106L45.4342 43.7458Z" fill="#0085FF"/>
</g>
</g>
<g id="Group_9">
<g id="Group_10">
<path id="Vector_5" d="M59.8195 6.92859L34.5212 0.149779C34.1428 0.048426 33.7628 0 33.3888 0C31.4615 0.000136411 29.6978 1.28636 29.1751 3.23649L26.8935 11.7521H4.12649C2.92116 11.7521 1.94391 12.7292 1.94391 13.9347V57.5862C1.94391 58.7917 2.92116 59.7688 4.12649 59.7688H29.3354L44.5676 63.8502C44.946 63.9516 45.3258 64 45.7 64C47.6273 64 49.391 62.7136 49.9137 60.7635L62.9063 12.2747C63.5304 9.94614 62.1481 7.55254 59.8195 6.92859ZM4.12649 57.5862V13.9347H36.8651C38.0688 13.9347 39.0477 14.9138 39.0477 16.1172V55.4036C39.0477 56.6071 38.0688 57.5862 36.8651 57.5862H4.12649ZM60.7983 11.7098L47.8057 60.1986C47.55 61.1519 46.6842 61.8176 45.6998 61.8176C45.5102 61.8176 45.3194 61.7922 45.1323 61.742L37.5216 59.7026C39.6182 59.3841 41.2302 57.5896 41.2302 55.4038V38.1008L42.3481 38.4004L43.4782 34.1839L41.3697 33.6191L41.2302 34.1407V16.7962C41.9106 16.9785 42.696 17.189 43.4575 17.3931L46.0387 25.8318L47.8456 26.316L47.6745 18.523C48.8611 18.8411 50.0729 19.1656 50.8668 19.3784L52.2698 21.8525L53.4746 22.1753L53.2674 18.7305L55.1692 15.8507L53.9644 15.5279L51.5127 16.9691C50.7182 16.7565 49.507 16.4318 48.3199 16.1137L52.3647 9.45056L50.5578 8.9663L44.1033 14.9839C42.834 14.6439 41.4491 14.2726 40.6988 14.0718C39.9636 12.6976 38.5318 11.7522 36.865 11.7522H29.1525L31.2828 3.80164C31.5386 2.84854 32.4045 2.18285 33.3887 2.18271C33.5783 2.18271 33.7692 2.20809 33.9562 2.25829L59.2546 9.0371C59.8178 9.18797 60.2883 9.54919 60.5798 10.054C60.8715 10.5588 60.9491 11.1468 60.7983 11.7098Z" fill="#0085FF"/>
</g>
</g>
<g id="Group_11">
<g id="Group_12">
<path id="Vector_6" d="M47.1264 29.5473L46.5681 31.6572L48.6421 32.206L49.2004 30.0961L47.1264 29.5473Z" fill="#0085FF"/>
</g>
</g>
<g id="Group_13">
<g id="Group_14">
<path id="Vector_7" d="M51.2687 30.648L50.7105 32.7578L52.7845 33.3066L53.3428 31.1969L51.2687 30.648Z" fill="#0085FF"/>
</g>
</g>
<g id="Group_15">
<g id="Group_16">
<path id="Vector_8" d="M42.9842 28.4503L42.4259 30.5601L44.4999 31.1089L45.0582 28.9991L42.9842 28.4503Z" fill="#0085FF"/>
</g>
</g>
</g>
</svg>
