<svg width="65" height="64" viewBox="0 0 65 64" fill="none" xmlns="http://www.w3.org/2000/svg">
<g id="001-airplane" clip-path="url(#clip0_3_704)">
<path id="Vector" d="M8.12941 36.3855C7.57844 36.644 7.33536 37.2947 7.5809 37.851L10.0975 43.2534C10.2212 43.5224 10.4467 43.7319 10.7241 43.8352C10.8457 43.8793 10.9746 43.9021 11.1042 43.9021C11.2664 43.9035 11.4264 43.8688 11.5739 43.8019L30.5882 34.9207L28.866 52.928C28.8327 53.2824 28.9693 53.631 29.2344 53.8677C30.0681 54.5577 31.1069 54.9507 32.1878 54.9861C32.4859 54.9858 32.7822 54.9483 33.0712 54.8747C34.6148 54.4719 35.8116 53.0965 36.6281 50.7472L44.1107 28.5904L58.9303 21.6776C63.2925 19.6422 65.5405 15.5151 64.0308 12.2938C63.1741 10.61 61.5331 9.46469 59.6575 9.24018C57.5734 8.92564 55.4435 9.25349 53.5507 10.1803L36.4488 18.1995L18.0614 11.0076C15.7458 10.1354 13.9119 10.1579 12.6257 11.0864C11.5466 11.9719 10.9326 13.3029 10.9588 14.6987C10.97 15.0528 11.1483 15.3803 11.4397 15.5827L23.8211 24.0941L16.7304 27.4496L4.84045 24.4293C4.35324 24.3095 3.84606 24.5291 3.59912 24.9662L0.635557 30.3011C0.481792 30.5837 0.457624 30.9193 0.569357 31.2212C0.68039 31.5235 0.916467 31.7627 1.21734 31.8783L10.0198 35.5137L8.12941 36.3855ZM13.2513 14.1396C13.3171 13.6668 13.5564 13.2363 13.9227 12.9316C14.5606 12.4727 15.7238 12.54 17.2782 13.1214L33.653 19.5081L26.1812 22.9978L13.2513 14.1396ZM3.18546 30.2902L5.13152 26.8342L16.5735 29.6748C16.8201 29.7371 17.0803 29.7137 17.3122 29.6082L54.5016 12.2381C55.9801 11.5088 57.6452 11.2433 59.2774 11.4773C60.4221 11.5827 61.4417 12.2433 62.0067 13.2444C62.9454 15.258 61.1002 18.1995 57.9794 19.6535L45.0946 25.6937L45.8778 23.3778C46.0757 22.782 45.7524 22.1382 45.1566 21.9407C44.5601 21.7431 43.9167 22.0664 43.7192 22.6622L34.5139 50.0534C33.9658 51.6085 33.2835 52.5371 32.523 52.7378C32.0519 52.8285 31.5644 52.736 31.1584 52.481L33.3955 28.9925C33.454 28.375 33.0011 27.8268 32.3829 27.7683C31.7654 27.7091 31.2173 28.1627 31.1584 28.7802L30.812 32.3704L11.6184 41.3182L10.0422 37.9627L13.1956 36.4867C13.6015 36.3077 13.8632 35.9063 13.8632 35.4632C13.8632 35.0198 13.6015 34.6184 13.1956 34.4398L3.18546 30.2902Z" fill="#0085FF"/>
</g>
<defs>
<clipPath id="clip0_3_704">
<rect width="64" height="64" fill="white" transform="translate(0.5)"/>
</clipPath>
</defs>
</svg>
