<svg width="65" height="64" viewBox="0 0 65 64" fill="none" xmlns="http://www.w3.org/2000/svg">
<g id="004-part-time" clip-path="url(#clip0_3_789)">
<g id="Group">
<g id="Group_2">
<path id="Vector" d="M60.4987 40.297V12.5002C60.4987 11.81 59.9391 11.2502 59.2487 11.2502H43.6929V3.75041C43.6929 1.6827 42.0107 0.000488281 39.943 0.000488281H21.0557C18.988 0.000488281 17.3058 1.6827 17.3058 3.75041V11.2502H1.74997C1.05961 11.2502 0.5 11.81 0.5 12.5002V52.9994C0.5 53.6896 1.05961 54.2493 1.74997 54.2493H15.958C16.6484 54.2493 17.208 53.6896 17.208 52.9994C17.208 52.3091 16.6484 51.7494 15.958 51.7494H2.99995V25.2678L8.24096 30.5088C8.47533 30.7432 8.79332 30.875 9.12481 30.875H13.3581C13.3745 33.0665 15.1618 34.8446 17.3573 34.8446C19.5527 34.8446 21.3399 33.0665 21.3564 30.875H39.6424C39.6588 33.0665 41.4461 34.8446 43.6416 34.8446C45.837 34.8446 47.6242 33.0665 47.6407 30.875H51.8739C52.2054 30.875 52.5234 30.7432 52.7578 30.5088L57.9988 25.2678V38.2772C55.8451 36.9129 53.294 36.1218 50.5613 36.1218C42.8755 36.1218 36.6226 42.3747 36.6226 50.0605C36.6226 50.6321 36.658 51.1956 36.7252 51.7495H27.2078C26.5174 51.7495 25.9578 52.3092 25.9578 52.9995C25.9578 53.6897 26.5174 54.2495 27.2078 54.2495H37.2662C39.0488 59.8948 44.3346 63.9992 50.5614 63.9992C58.2473 63.9992 64.5001 57.7464 64.5001 50.0605C64.5 46.2617 62.9718 42.8137 60.4987 40.297ZM19.8057 3.75041C19.8057 3.06117 20.3664 2.50043 21.0557 2.50043H39.943C40.6323 2.50043 41.193 3.06117 41.193 3.75041V11.2502H38.6931V6.25035C38.6931 5.56012 38.1334 5.00038 37.4431 5.00038H23.5556C22.8653 5.00038 22.3057 5.56012 22.3057 6.25035V11.2502H19.8057V3.75041ZM24.8056 11.2502V7.50033H36.1931V11.2502H24.8056ZM18.8571 30.8446C18.8571 31.6717 18.1842 32.3445 17.3571 32.3445C16.53 32.3445 15.8572 31.6717 15.8572 30.8446V28.0946H18.8571V30.8446ZM45.1414 30.8446C45.1414 31.6717 44.4686 32.3445 43.6414 32.3445C42.8143 32.3445 42.1415 31.6717 42.1415 30.8446V28.0946H45.1414V30.8446ZM51.3562 28.3749H47.6414V26.8447C47.6414 26.1544 47.0818 25.5947 46.3914 25.5947H40.8915C40.2011 25.5947 39.6415 26.1544 39.6415 26.8447V28.3749H21.3571V26.8447C21.3571 26.1544 20.7974 25.5947 20.1071 25.5947H14.6072C13.9168 25.5947 13.3572 26.1544 13.3572 26.8447V28.3749H9.64255L2.99995 21.7323V13.7503H57.9988V21.7323L51.3562 28.3749ZM50.5613 61.4992C44.2539 61.4992 39.1225 56.3678 39.1225 50.0604C39.1225 43.7531 44.2539 38.6217 50.5613 38.6217C56.8687 38.6217 62.0001 43.7531 62.0001 50.0604C62.0001 56.3678 56.8687 61.4992 50.5613 61.4992Z" fill="#0085FF"/>
<path id="Vector_2" d="M50.5613 51.3107C50.8812 51.3107 51.2012 51.1886 51.4452 50.9446L56.8819 45.5079C57.37 45.0197 57.37 44.2283 56.8819 43.74C56.3938 43.252 55.6023 43.252 55.1141 43.74L50.5612 48.2929L49.737 47.4687C49.2488 46.9807 48.4574 46.9807 47.9691 47.4687C47.481 47.9568 47.481 48.7483 47.9691 49.2365L49.6772 50.9446C49.9214 51.1886 50.2414 51.3107 50.5613 51.3107Z" fill="#0085FF"/>
<path id="Vector_3" d="M21.5827 54.2495C22.2731 54.2495 22.8327 53.6899 22.8327 52.9995C22.8327 52.3092 22.2731 51.7495 21.5827 51.7495C20.8923 51.7495 20.3327 52.3092 20.3327 52.9995C20.3327 53.6899 20.8923 54.2495 21.5827 54.2495Z" fill="#0085FF"/>
<path id="Vector_4" d="M50.5613 58.9995C51.2517 58.9995 51.8113 58.4399 51.8113 57.7495C51.8113 57.0592 51.2517 56.4995 50.5613 56.4995C49.871 56.4995 49.3113 57.0592 49.3113 57.7495C49.3113 58.4399 49.871 58.9995 50.5613 58.9995Z" fill="#0085FF"/>
<path id="Vector_5" d="M50.5613 43.6221C51.2517 43.6221 51.8113 43.0624 51.8113 42.3721C51.8113 41.6817 51.2517 41.1221 50.5613 41.1221C49.871 41.1221 49.3113 41.6817 49.3113 42.3721C49.3113 43.0624 49.871 43.6221 50.5613 43.6221Z" fill="#0085FF"/>
<path id="Vector_6" d="M55.1143 54.6137C54.6262 55.1018 54.6262 55.8933 55.1143 56.3814C55.6024 56.8695 56.3939 56.8695 56.8821 56.3814C57.3702 55.8933 57.3702 55.1018 56.8821 54.6137C56.3939 54.1255 55.6024 54.1255 55.1143 54.6137Z" fill="#0085FF"/>
<path id="Vector_7" d="M44.2405 43.7401C43.7524 44.2282 43.7524 45.0197 44.2405 45.508C44.7287 45.9961 45.5202 45.9961 46.0083 45.508C46.4964 45.0199 46.4964 44.2284 46.0083 43.7401C45.5202 43.252 44.7287 43.252 44.2405 43.7401Z" fill="#0085FF"/>
<path id="Vector_8" d="M58.2503 51.311C58.9407 51.311 59.5003 50.7514 59.5003 50.061C59.5003 49.3707 58.9407 48.811 58.2503 48.811C57.5599 48.811 57.0003 49.3707 57.0003 50.061C57.0003 50.7514 57.5599 51.311 58.2503 51.311Z" fill="#0085FF"/>
<path id="Vector_9" d="M42.8724 51.311C43.5627 51.311 44.1224 50.7514 44.1224 50.061C44.1224 49.3707 43.5627 48.811 42.8724 48.811C42.182 48.811 41.6224 49.3707 41.6224 50.061C41.6224 50.7514 42.182 51.311 42.8724 51.311Z" fill="#0085FF"/>
<path id="Vector_10" d="M44.2405 54.6137C43.7524 55.1018 43.7524 55.8933 44.2405 56.3814C44.7287 56.8695 45.5202 56.8695 46.0083 56.3814C46.4964 55.8933 46.4964 55.1018 46.0083 54.6137C45.5202 54.1255 44.7287 54.1255 44.2405 54.6137Z" fill="#0085FF"/>
</g>
</g>
</g>
<defs>
<clipPath id="clip0_3_789">
<rect width="64" height="64" fill="white" transform="translate(0.5)"/>
</clipPath>
</defs>
</svg>
