<svg width="65" height="64" viewBox="0 0 65 64" fill="none" xmlns="http://www.w3.org/2000/svg">
<g id="003-conversation" clip-path="url(#clip0_3_746)">
<g id="Group">
<g id="Group_2">
<path id="Vector" d="M23.215 45.8518C23.1246 45.8261 23.0321 45.8116 22.939 45.8066C24.3082 44.3675 25.1515 42.4233 25.1515 40.2848V33.7085C25.1515 33.6483 25.1458 33.5897 25.1376 33.532C25.1459 33.4132 25.1515 33.2937 25.1515 33.173V29.0122C25.1515 28.3218 24.5919 27.7622 23.9015 27.7622H15.5174C11.9867 27.7622 9.1145 30.6346 9.1145 34.1651V40.2848C9.1145 42.4233 9.95762 44.3675 11.327 45.8066C11.234 45.8116 11.1415 45.8261 11.0513 45.8518C5.14413 46.3867 0.5 51.3656 0.5 57.4096V62.7501C0.5 63.4405 1.05963 64.0001 1.75 64.0001H32.5159C33.2063 64.0001 33.7659 63.4405 33.7659 62.7501V57.4096C33.7659 51.3657 29.122 46.3868 23.215 45.8518ZM11.6145 35.7502V34.165C11.6145 32.013 13.3654 30.2621 15.5174 30.2621H22.6515V33.1728C22.6515 34.6382 21.4594 35.8303 19.994 35.8303H11.6145V35.7502ZM11.6145 38.3303H19.994C20.9655 38.3303 21.8749 38.0601 22.6515 37.5911V40.2847C22.6515 43.3276 20.1759 45.8032 17.133 45.8032C14.0901 45.8032 11.6145 43.3276 11.6145 40.2847V38.3303ZM19.8536 48.3033L17.133 51.0241L14.4124 48.3033H19.8536ZM31.266 61.5001H3V59.0001H8.1875C8.87788 59.0001 9.4375 58.4405 9.4375 57.7501C9.4375 57.0597 8.87788 56.5001 8.1875 56.5001H3.04562C3.4655 52.2856 6.77138 48.9105 10.9525 48.379L16.2491 53.6756C16.4835 53.91 16.8015 54.0417 17.133 54.0417C17.4645 54.0417 17.7825 53.91 18.0169 53.6756L23.3135 48.379C27.7915 48.9481 31.266 52.7795 31.266 57.4096V61.5001Z" fill="#0085FF"/>
</g>
</g>
<g id="Group_3">
<g id="Group_4">
<path id="Vector_2" d="M53.9494 18.0898C53.859 18.064 53.7664 18.0495 53.6731 18.0445C55.0424 16.6054 55.8855 14.6613 55.8855 12.5227V5.94625C55.8855 5.88613 55.8798 5.8275 55.8716 5.76975C55.8799 5.651 55.8855 5.5315 55.8855 5.41075V1.25C55.8855 0.559625 55.3259 0 54.6355 0H46.2514C42.7208 0 39.8485 2.87238 39.8485 6.40287V12.5226C39.8485 14.6611 40.6916 16.6052 42.0609 18.0444C41.9678 18.0494 41.875 18.0639 41.7846 18.0896C35.8778 18.6248 31.234 23.6036 31.234 29.6474V34.9878C31.234 35.6781 31.7936 36.2378 32.484 36.2378H42.5415C43.2319 36.2378 43.7915 35.6781 43.7915 34.9878C43.7915 34.2974 43.2319 33.7378 42.5415 33.7378H33.734V29.6475C33.734 25.0174 37.2084 21.186 41.6864 20.6169L46.983 25.9135C47.2271 26.1576 47.547 26.2796 47.8669 26.2796C48.1868 26.2796 48.5068 26.1576 48.7508 25.9135L54.0474 20.6169C58.5256 21.1861 62 25.0174 62 29.6475V33.7379H52.7916C52.1013 33.7379 51.5416 34.2975 51.5416 34.9879C51.5416 35.6783 52.1013 36.2379 52.7916 36.2379H63.25C63.9404 36.2379 64.5 35.6783 64.5 34.9879V29.6475C64.5 23.6037 59.8561 18.6249 53.9494 18.0898ZM47.8671 23.2619L45.1465 20.5413H50.5878L47.8671 23.2619ZM53.3856 12.5226C53.3856 15.5655 50.91 18.0411 47.8671 18.0411C44.8243 18.0411 42.3486 15.5656 42.3486 12.5227V10.5682H50.7281C51.6996 10.5682 52.609 10.2979 53.3856 9.829V12.5226ZM53.3856 5.41075C53.3856 6.87612 52.1935 8.06825 50.7281 8.06825H42.3486V7.98812V6.40287C42.3486 4.25087 44.0995 2.5 46.2515 2.5H53.3856V5.41075Z" fill="#0085FF"/>
</g>
</g>
<g id="Group_5">
<g id="Group_6">
<path id="Vector_3" d="M48.7512 34.1036C48.5187 33.8711 48.1962 33.7373 47.8675 33.7373C47.5375 33.7373 47.2162 33.8711 46.9837 34.1036C46.75 34.3361 46.6175 34.6586 46.6175 34.9873C46.6175 35.3173 46.75 35.6386 46.9837 35.8711C47.2162 36.1048 47.5375 36.2373 47.8675 36.2373C48.1962 36.2373 48.5187 36.1048 48.7512 35.8711C48.9837 35.6386 49.1175 35.3173 49.1175 34.9873C49.1175 34.6586 48.9837 34.3361 48.7512 34.1036Z" fill="#0085FF"/>
</g>
</g>
<g id="Group_7">
<g id="Group_8">
<path id="Vector_4" d="M33.9256 17.4911L28.698 12.2635V6.25C28.698 2.80375 25.8942 0 22.448 0H6.75C3.30375 0 0.5 2.80375 0.5 6.25V17.25C0.5 20.6963 3.30375 23.5 6.75 23.5H22.4479C25.0321 23.5 27.2856 21.9491 28.2311 19.625H33.0416C33.5471 19.625 34.003 19.3204 34.1965 18.8534C34.39 18.3864 34.283 17.8486 33.9256 17.4911ZM27.3193 17.125C26.7369 17.125 26.2316 17.5271 26.101 18.0947C25.7075 19.8053 24.2054 21 22.4479 21H6.75C4.68225 21 3 19.3177 3 17.25V6.25C3 4.18225 4.68225 2.5 6.75 2.5H22.4479C24.5156 2.5 26.1979 4.18225 26.1979 6.25V12.7812C26.1979 13.1128 26.3296 13.4307 26.564 13.6651L30.0239 17.125H27.3193Z" fill="#0085FF"/>
</g>
</g>
<g id="Group_9">
<g id="Group_10">
<path id="Vector_5" d="M58.25 40.5H42.5521C39.9679 40.5 37.7144 42.0509 36.7689 44.375H31.9584C31.4529 44.375 30.997 44.6796 30.8035 45.1466C30.61 45.6136 30.717 46.1514 31.0744 46.5089L36.302 51.7365V57.75C36.302 61.1963 39.1058 64 42.552 64H58.25C61.6963 64 64.5 61.1963 64.5 57.75V46.75C64.5 43.3038 61.6963 40.5 58.25 40.5ZM62 57.75C62 59.8177 60.3178 61.5 58.25 61.5H42.5521C40.4844 61.5 38.8021 59.8177 38.8021 57.75V51.2188C38.8021 50.8872 38.6704 50.5692 38.436 50.3349L34.9761 46.875H37.6808C38.2631 46.875 38.7684 46.4729 38.899 45.9053C39.2925 44.1948 40.7946 43 42.5521 43H58.25C60.3178 43 62 44.6823 62 46.75V57.75Z" fill="#0085FF"/>
</g>
</g>
<g id="Group_11">
<g id="Group_12">
<path id="Vector_6" d="M56.0195 48.9242C55.5315 48.4361 54.74 48.4361 54.2519 48.9242L50.929 52.2471L49.3839 50.702C48.8958 50.2138 48.1043 50.2138 47.616 50.702C47.1279 51.1901 47.1279 51.9816 47.616 52.4698L50.045 54.8988C50.2891 55.1429 50.609 55.265 50.9289 55.265C51.2488 55.265 51.5688 55.1429 51.8128 54.8988L56.0195 50.6921C56.5076 50.2039 56.5076 49.4124 56.0195 48.9242Z" fill="#0085FF"/>
</g>
</g>
<g id="Group_13">
<g id="Group_14">
<path id="Vector_7" d="M20.2816 8.28345C20.1339 6.14008 18.4061 4.41233 16.2627 4.26458C15.0474 4.18095 13.8889 4.59095 13.0014 5.41945C12.1262 6.23633 11.6242 7.39133 11.6242 8.58808C11.6244 9.27858 12.184 9.8382 12.8744 9.8382C13.5647 9.8382 14.1244 9.27858 14.1244 8.5882C14.1244 8.07433 14.3314 7.59808 14.7074 7.24708C15.0827 6.89658 15.5746 6.72258 16.091 6.75883C16.9959 6.8212 17.7252 7.55058 17.7876 8.45545C17.8507 9.37033 17.251 10.1788 16.3616 10.3778C15.3881 10.5956 14.7082 11.442 14.7082 12.436V13.1028C14.7082 13.7932 15.2679 14.3528 15.9582 14.3528C16.6486 14.3528 17.2082 13.7932 17.2082 13.1028V12.7391C19.145 12.1613 20.4231 10.3355 20.2816 8.28345Z" fill="#0085FF"/>
</g>
</g>
<g id="Group_15">
<g id="Group_16">
<path id="Vector_8" d="M16.8425 17.0025C16.61 16.77 16.2875 16.6362 15.9587 16.6362C15.6287 16.6362 15.3075 16.77 15.075 17.0025C14.8412 17.235 14.7087 17.5575 14.7087 17.8862C14.7087 18.215 14.8412 18.5375 15.075 18.77C15.3075 19.0025 15.6287 19.1362 15.9587 19.1362C16.2875 19.1362 16.61 19.0025 16.8425 18.77C17.075 18.5375 17.2087 18.215 17.2087 17.8862C17.2087 17.5575 17.075 17.235 16.8425 17.0025Z" fill="#0085FF"/>
</g>
</g>
<g id="Group_17">
<g id="Group_18">
<path id="Vector_9" d="M14.0712 56.8662C13.8388 56.6337 13.5163 56.5 13.1875 56.5C12.8587 56.5 12.5363 56.6337 12.3038 56.8662C12.0713 57.0987 11.9375 57.4212 11.9375 57.75C11.9375 58.0788 12.0713 58.4013 12.3038 58.6338C12.5363 58.8663 12.8587 59 13.1875 59C13.5163 59 13.8388 58.8663 14.0712 58.6338C14.3038 58.4013 14.4375 58.0788 14.4375 57.75C14.4375 57.4212 14.3038 57.0987 14.0712 56.8662Z" fill="#0085FF"/>
</g>
</g>
</g>
<defs>
<clipPath id="clip0_3_746">
<rect width="64" height="64" fill="white" transform="translate(0.5)"/>
</clipPath>
</defs>
</svg>
