<svg width="40" height="40" viewBox="0 0 40 40" fill="none" xmlns="http://www.w3.org/2000/svg">
<g id="005-world" clip-path="url(#clip0_3_919)">
<g id="Group">
<g id="Group_2">
<path id="Vector" d="M7.62888 34.0928C7.61613 34.0814 7.60298 34.0704 7.58932 34.06C7.18153 33.7216 6.77375 33.3587 6.39858 32.9835C6.16023 32.7477 5.77651 32.7477 5.53815 32.9835C5.2996 33.2224 5.2996 33.6091 5.53815 33.848C5.94594 34.2558 6.35373 34.635 6.81045 35.002C7.06154 35.2281 7.44833 35.2077 7.67434 34.9566C7.90026 34.7055 7.87997 34.3188 7.62888 34.0928Z" fill="#0085FF"/>
</g>
</g>
<g id="Group_3">
<g id="Group_4">
<path id="Vector_2" d="M1.22723 15.9582C0.908338 15.8468 0.559477 16.0151 0.448049 16.334C0.431534 16.3813 0.420829 16.4305 0.416344 16.4804C0.294008 17.0391 0.200217 17.6059 0.130893 18.1727C0.0872598 18.5042 0.317863 18.8094 0.648782 18.8578H0.726261C1.03587 18.858 1.29676 18.6269 1.33386 18.3195C1.39911 17.7894 1.48882 17.2552 1.603 16.7373C1.71443 16.4184 1.54612 16.0695 1.22723 15.9582Z" fill="#0085FF"/>
</g>
</g>
<g id="Group_5">
<g id="Group_6">
<path id="Vector_3" d="M4.588 30.8505C4.27401 30.4183 3.97632 29.9697 3.70311 29.513C3.53041 29.2226 3.15504 29.1272 2.8647 29.2999C2.86419 29.3002 2.86358 29.3005 2.86307 29.3009C2.57272 29.4736 2.4773 29.849 2.65 30.1393C2.6503 30.1399 2.65061 30.1405 2.65102 30.141C2.94462 30.6303 3.2627 31.1115 3.60116 31.5723C3.80985 31.838 4.19439 31.8841 4.46006 31.6754C4.71279 31.4768 4.76876 31.1164 4.588 30.8505Z" fill="#0085FF"/>
</g>
</g>
<g id="Group_7">
<g id="Group_8">
<path id="Vector_4" d="M2.45528 26.9931C2.25954 26.4996 2.08012 25.9899 1.92924 25.4761C1.83514 25.1517 1.49576 24.9649 1.17136 25.059C1.16566 25.0607 1.16005 25.0624 1.15444 25.0642C0.833411 25.1623 0.651437 25.5009 0.746655 25.8227C0.90977 26.3692 1.09735 26.9156 1.3094 27.4539C1.43663 27.7703 1.7963 27.9236 2.11274 27.7964C2.42918 27.6692 2.58251 27.3095 2.45528 26.9931Z" fill="#0085FF"/>
</g>
</g>
<g id="Group_9">
<g id="Group_10">
<path id="Vector_5" d="M2.82026 11.7643C2.51849 11.6123 2.15057 11.7337 1.99857 12.0354C1.74166 12.5452 1.50514 13.0712 1.29717 13.6054C1.17453 13.9184 1.32755 14.2717 1.63971 14.3965C1.95381 14.5209 2.3093 14.3672 2.43367 14.0531C2.43408 14.052 2.43449 14.0509 2.4349 14.0499C2.63064 13.5524 2.84268 13.059 3.09143 12.586C3.24344 12.2842 3.12202 11.9164 2.82026 11.7643Z" fill="#0085FF"/>
</g>
</g>
<g id="Group_11">
<g id="Group_12">
<path id="Vector_6" d="M1.35446 22.7377C1.35435 22.7372 1.35435 22.7366 1.35425 22.736C1.28901 22.2059 1.24415 21.6676 1.22376 21.1375C1.21142 20.7997 0.927503 20.5359 0.589652 20.5483C0.251801 20.5606 -0.0119351 20.8445 0.000400408 21.1824C0.000400408 21.7533 0.0656463 22.3283 0.139048 22.8951C0.180846 23.1915 0.431125 23.4141 0.730339 23.4211H0.82413C1.15933 23.3788 1.39676 23.0728 1.35446 22.7377Z" fill="#0085FF"/>
</g>
</g>
<g id="Group_13">
<g id="Group_14">
<path id="Vector_7" d="M17.5821 2.3323C17.5495 1.99445 17.2492 1.74712 16.9113 1.77975C16.3445 1.83684 15.7736 1.91839 15.2108 2.0285C14.873 2.06 14.6248 2.35941 14.6563 2.69727C14.6878 3.03512 14.9872 3.28336 15.325 3.25186L15.321 3.23554H15.4392C15.9653 3.1336 16.4995 3.05612 17.0296 3.00311C17.3674 2.97048 17.6148 2.67015 17.5821 2.3323Z" fill="#0085FF"/>
</g>
</g>
<g id="Group_15">
<g id="Group_16">
<path id="Vector_8" d="M5.47698 8.0637C5.22252 7.8385 4.83359 7.86225 4.60839 8.11671C4.23323 8.54488 3.87438 8.99753 3.53999 9.4624C3.34181 9.73593 3.40288 10.1184 3.6765 10.3166C3.78038 10.3919 3.90517 10.4325 4.03342 10.4329V10.4411C4.23027 10.4418 4.41541 10.3477 4.53092 10.1883C4.84491 9.75601 5.1793 9.33191 5.52999 8.93228C5.75519 8.67782 5.73144 8.289 5.47698 8.0637Z" fill="#0085FF"/>
</g>
</g>
<g id="Group_17">
<g id="Group_18">
<path id="Vector_9" d="M21.6131 1.88172C21.0504 1.79608 20.4754 1.73492 19.9045 1.70229C19.5666 1.68201 19.2764 1.93942 19.2561 2.27727C19.2358 2.61512 19.4932 2.90537 19.8311 2.92565C20.3694 2.96643 20.9036 3.02352 21.4296 3.10508H21.5234C21.8612 3.12985 22.1552 2.87611 22.1799 2.53826C22.2047 2.20051 21.951 1.90649 21.6131 1.88172Z" fill="#0085FF"/>
</g>
</g>
<g id="Group_19">
<g id="Group_20">
<path id="Vector_10" d="M8.95082 5.14898C8.75946 4.88912 8.39918 4.82255 8.1276 4.99698C7.65864 5.31913 7.19784 5.66983 6.75743 6.03276C6.49726 6.24899 6.46168 6.63506 6.67791 6.89523C6.89414 7.1554 7.28021 7.19098 7.54038 6.97475C7.94817 6.63221 8.38042 6.30598 8.82083 6.00421C9.09293 5.80399 9.15104 5.42108 8.95082 5.14898Z" fill="#0085FF"/>
</g>
</g>
<g id="Group_21">
<g id="Group_22">
<g id="Group_23">
<path id="Vector_11" d="M11.0025 4.6547C11.0004 4.6547 10.9985 4.6543 10.9965 4.6543C10.9943 4.6543 10.9923 4.6547 10.9902 4.6547H11.0025Z" fill="#0085FF"/>
<path id="Vector_12" d="M13.1594 3.22185C13.07 2.89613 12.7333 2.70447 12.4075 2.79398C12.3789 2.80183 12.3508 2.81182 12.3236 2.82375C11.7894 3.01948 11.2552 3.23153 10.7414 3.48844C10.4351 3.63096 10.3023 3.99481 10.4448 4.30106C10.5447 4.51586 10.7599 4.65308 10.9964 4.6543C11.0847 4.65257 11.1716 4.63208 11.2511 4.59354C11.7323 4.36518 12.2298 4.15721 12.7314 3.9737C13.0573 3.8842 13.2489 3.54757 13.1594 3.22185Z" fill="#0085FF"/>
</g>
</g>
</g>
<g id="Group_24">
<g id="Group_25">
<path id="Vector_13" d="M20.5549 38.6049C20.5335 38.2671 20.2423 38.0106 19.9045 38.032C19.3703 38.0728 18.832 38.085 18.2978 38.0687C17.9599 38.0597 17.6788 38.3262 17.6698 38.6641C17.6608 39.0019 17.9273 39.2831 18.2652 39.2921H18.7831C19.1909 39.2921 19.5986 39.2921 19.982 39.2554C20.3198 39.2341 20.5763 38.9428 20.5549 38.6049Z" fill="#0085FF"/>
</g>
</g>
<g id="Group_26">
<g id="Group_27">
<path id="Vector_14" d="M36.5646 24.4341C36.2369 24.3508 35.9037 24.5488 35.8204 24.8765C35.6899 25.3944 35.5309 25.9082 35.3514 26.4098C35.2451 26.7248 35.4098 27.0671 35.7225 27.1805C36.0405 27.2946 36.3908 27.1292 36.5049 26.8112C36.5051 26.8106 36.5053 26.81 36.5055 26.8094C36.6971 26.2711 36.8643 25.7206 37.007 25.1783C37.0904 24.8506 36.8923 24.5174 36.5646 24.4341Z" fill="#0085FF"/>
</g>
</g>
<g id="Group_28">
<g id="Group_29">
<path id="Vector_15" d="M37.3455 17.4304C37.2517 16.8677 37.1335 16.3009 36.9907 15.7504C36.8931 15.427 36.5516 15.244 36.2283 15.3418C35.9217 15.4343 35.7385 15.7477 35.8082 16.0603C35.9427 16.5741 36.0528 17.1042 36.1425 17.6303C36.1952 17.9185 36.4449 18.1288 36.7379 18.1318H36.8399C37.1731 18.0777 37.3994 17.7638 37.3455 17.4304Z" fill="#0085FF"/>
</g>
</g>
<g id="Group_30">
<g id="Group_31">
<path id="Vector_16" d="M39.9453 10.4099C39.9165 10.3474 39.8772 10.2904 39.8289 10.2415L38.7483 9.11597C38.5935 8.96142 38.3661 8.90494 38.157 8.96917L36.2078 9.56046L33.9242 7.13821L39.0501 4.2837C39.3488 4.14617 39.4794 3.79252 39.3417 3.49392C39.313 3.43143 39.2736 3.37444 39.2254 3.3255L37.7859 1.88602C37.629 1.73524 37.4023 1.68202 37.1946 1.74737L30.6986 3.7129L28.5128 1.39259C27.9558 0.748495 27.049 0.533286 26.2619 0.858394H26.2252C25.6317 1.10266 25.1604 1.57396 24.9162 2.16739C24.8546 2.32235 24.8109 2.48373 24.7857 2.64858L24.5369 2.56294C24.2149 2.45936 23.8698 2.63645 23.7662 2.95849C23.6626 3.28054 23.8397 3.62563 24.1618 3.72921C24.4758 3.83116 24.7898 3.94534 25.1038 4.0636C25.1983 4.21142 25.3091 4.34823 25.4341 4.47138L27.7381 6.65712L27.0774 8.83878C20.6163 4.22987 11.6422 5.73144 7.0333 12.1926C2.42439 18.6538 3.92596 27.6278 10.3871 32.2367C16.8483 36.8456 25.8224 35.344 30.4313 28.8828C34.1067 23.7303 33.9784 16.7799 30.1155 11.7666L31.1594 9.88261L33.5816 12.1662L32.9985 14.095C32.9283 14.307 32.9835 14.5405 33.1412 14.6986C33.1412 14.6986 34.336 15.8812 34.3646 15.9219C34.6471 16.0857 35.0089 15.9894 35.1727 15.7069C35.1753 15.7025 35.1778 15.6981 35.1802 15.6936L36.7746 12.7697L39.6536 11.1998C39.9523 11.0621 40.0829 10.7085 39.9453 10.4099ZM9.49776 11.216C11.9562 8.75865 15.2908 7.37962 18.7667 7.38278C19.0386 7.38278 19.3104 7.39093 19.5823 7.40724C21.8945 9.53997 21.2135 11.4851 19.6639 13.2386C18.7494 14.2084 17.7684 15.1132 16.7278 15.9463C15.2231 17.2267 13.8203 18.4216 13.2902 19.6164C12.6622 21.0355 13.123 22.32 15.6594 23.4414C16.9276 24.0042 17.6168 24.4405 17.8859 24.7708C17.8899 24.7756 17.8938 24.779 17.8978 24.7819C17.8894 24.7845 17.8809 24.7872 17.8696 24.7912C17.2555 25.0251 16.6018 25.1372 15.9449 25.1215C12.8702 25.252 10.6803 23.2865 8.97987 21.7654C7.75651 20.6766 6.74112 19.7713 5.68495 19.7632C5.85949 16.5418 7.21731 13.498 9.49776 11.216ZM31.9219 20.5054H31.926C31.9242 26.1889 28.2705 31.2277 22.8691 32.9959C22.7174 32.0401 22.8942 31.0611 23.3707 30.2188C24.0168 29.1811 24.8458 28.2693 25.8174 27.5274C29.5813 24.3875 29.7933 22.634 29.9564 21.2842C30.0584 20.4319 30.1358 19.7958 31.82 18.8701C31.8876 19.4126 31.9216 19.9587 31.9219 20.5054ZM31.1635 16.0931C31.3457 16.6065 31.4955 17.1309 31.612 17.6631C29.0471 18.968 28.9329 19.8977 28.7779 21.166C28.6393 22.3078 28.4598 23.8003 25.0589 26.6385C23.9696 27.4719 23.0434 28.499 22.3267 29.6683C21.7019 30.7728 21.4854 32.0618 21.715 33.3098C14.6411 34.9269 7.59564 30.5033 5.97856 23.4294C5.79363 22.6203 5.68577 21.7956 5.65641 20.9662C6.30479 20.9662 7.14483 21.7369 8.17653 22.6544C10.0442 24.3222 12.4338 26.4509 15.9938 26.3245C16.8326 26.3389 17.6654 26.1807 18.4405 25.8596C18.7673 25.7151 19.0146 25.4351 19.1174 25.093C19.2043 24.7114 19.0941 24.3116 18.8238 24.0286C18.4405 23.5597 17.6005 23.0051 16.1569 22.3608C14.432 21.5982 14.0568 20.856 14.3953 20.0976C14.8031 19.1433 16.1161 18.0586 17.5108 16.8353C18.5975 15.957 19.6209 15.0032 20.5732 13.9808C22.2778 12.0397 23.1545 9.92329 21.4214 7.60706C23.3475 8.00078 25.1597 8.82471 26.7227 10.0171L25.7848 13.1122C25.7155 13.3242 25.7706 13.5572 25.9275 13.7157C25.9275 13.7157 27.4485 15.2245 27.4975 15.2531C27.78 15.4168 28.1418 15.3205 28.3056 15.0381C28.3081 15.0337 28.3106 15.0292 28.313 15.0247L29.4997 12.8797C30.2002 13.8688 30.7601 14.9503 31.1635 16.0931ZM36.6319 11.5381L36.1058 11.7991C35.9881 11.8575 35.8933 11.9537 35.8367 12.0723L35.5757 12.6024L34.5603 14.4375L34.2626 14.1113L34.8539 12.158C34.9229 11.9291 34.8472 11.6814 34.6623 11.53L31.4448 8.50011C31.2119 8.27124 30.8375 8.27461 30.6087 8.50755C30.6032 8.51316 30.5979 8.51877 30.5926 8.52458C30.5518 8.56944 27.6565 13.785 27.6565 13.785L27.0244 13.153L28.9981 6.64876C29.0689 6.41867 28.993 6.16869 28.8065 6.01669L26.2456 3.60667C25.9621 3.36659 25.8679 2.96991 26.0131 2.62798C26.1432 2.33173 26.3807 2.09572 26.6778 1.96737H26.6982C27.0359 1.83698 27.4192 1.93526 27.6524 2.21204L30.0991 4.79741C30.2528 4.96236 30.4868 5.02567 30.7027 4.96052L37.2273 2.99091L37.8593 3.62298L32.6804 6.46933C32.3938 6.62572 32.2881 6.98498 32.4446 7.27155C32.4471 7.27604 32.4495 7.28042 32.4521 7.28491C32.4765 7.32976 35.5961 10.6491 35.5961 10.6491C35.7507 10.8127 35.9846 10.8743 36.1996 10.8082L38.1611 10.2169L38.4669 10.5227L36.6319 11.5381Z" fill="#0085FF"/>
</g>
</g>
<g id="Group_32">
<g id="Group_33">
<path id="Vector_17" d="M35.0564 28.7331C35.0475 28.7279 35.0385 28.7229 35.0293 28.7182C34.737 28.5653 34.3762 28.6718 34.2137 28.9588C33.9568 29.4277 33.6754 29.8885 33.3737 30.3289C33.1789 30.6059 33.2455 30.9884 33.5225 31.1832C33.7995 31.3781 34.182 31.3114 34.3768 31.0344C34.6949 30.5614 34.9967 30.0679 35.274 29.5704C35.4451 29.2791 35.3477 28.9042 35.0564 28.7331Z" fill="#0085FF"/>
</g>
</g>
<g id="Group_34">
<g id="Group_35">
<path id="Vector_18" d="M36.9907 19.8038C36.653 19.7992 36.3754 20.0692 36.3707 20.407C36.3706 20.4152 36.3706 20.4235 36.3709 20.4318V20.5011C36.3709 21.0353 36.3464 21.5736 36.2975 22.1078C36.2669 22.4442 36.5148 22.7418 36.8512 22.7724C36.8515 22.7724 36.8518 22.7725 36.8521 22.7725H36.9092C37.2318 22.7755 37.5013 22.5274 37.5249 22.2056C37.578 21.6388 37.6024 21.0638 37.6024 20.4929V20.4114C37.6002 20.0752 37.327 19.8038 36.9907 19.8038Z" fill="#0085FF"/>
</g>
</g>
<g id="Group_36">
<g id="Group_37">
<path id="Vector_19" d="M15.5126 37.7628C14.9825 37.6731 14.4564 37.5589 13.9467 37.4039C13.628 37.2919 13.2789 37.4594 13.1667 37.7781C13.0546 38.0968 13.2222 38.4459 13.5409 38.5581C13.5642 38.5663 13.5882 38.5731 13.6123 38.5785C14.1588 38.7334 14.7215 38.868 15.2842 38.9862H15.3984C15.7363 39.0177 16.0357 38.7695 16.0672 38.4317C16.0987 38.0938 15.8505 37.7944 15.5126 37.7628Z" fill="#0085FF"/>
</g>
</g>
<g id="Group_38">
<g id="Group_39">
<path id="Vector_20" d="M24.977 37.5767C24.8664 37.2763 24.543 37.112 24.2352 37.1999V37.2162C23.7295 37.3834 23.2076 37.5261 22.6897 37.624C22.3598 37.6983 22.1525 38.0261 22.2268 38.356C22.3011 38.6859 22.6289 38.8931 22.9588 38.8188C23.5134 38.6924 24.0721 38.5374 24.6144 38.3621C24.9315 38.2452 25.0938 37.8936 24.977 37.5767Z" fill="#0085FF"/>
</g>
</g>
<g id="Group_40">
<g id="Group_41">
<path id="Vector_21" d="M11.3165 36.4294C10.8312 36.1888 10.3541 35.9278 9.89331 35.6668C9.60164 35.4957 9.22648 35.5933 9.05531 35.885C8.88414 36.1767 8.9818 36.5518 9.27347 36.723C9.76689 37.0125 10.2766 37.2817 10.7945 37.5386C11.1008 37.6827 11.4659 37.5512 11.6101 37.245C11.7542 36.9387 11.6228 36.5736 11.3165 36.4294Z" fill="#0085FF"/>
</g>
</g>
<g id="Group_42">
<g id="Group_43">
<path id="Vector_22" d="M32.4577 32.4944C32.2126 32.2707 31.8337 32.2831 31.6039 32.5227H31.608C31.2409 32.9305 30.8535 33.2893 30.458 33.6441C30.2058 33.8693 30.1839 34.2564 30.4091 34.5086C30.6343 34.7608 31.0214 34.7827 31.2736 34.5575C31.6814 34.1783 32.1136 33.7746 32.4969 33.3586C32.7248 33.1091 32.7071 32.7222 32.4577 32.4944Z" fill="#0085FF"/>
</g>
</g>
<g id="Group_44">
<g id="Group_45">
<path id="Vector_23" d="M29.0828 35.5454C28.9095 35.2555 28.534 35.161 28.2439 35.3343C28.2341 35.3401 28.2245 35.3462 28.2152 35.3527V35.3363C27.7666 35.6218 27.2976 35.8909 26.8246 36.1519C26.524 36.3062 26.4053 36.675 26.5596 36.9756C26.7138 37.2763 27.0826 37.395 27.3833 37.2407C27.8889 36.9797 28.3905 36.6902 28.8717 36.3844C29.1616 36.2109 29.2562 35.8354 29.0828 35.5454Z" fill="#0085FF"/>
</g>
</g>
</g>
<defs>
<clipPath id="clip0_3_919">
<rect width="40" height="40" fill="white"/>
</clipPath>
</defs>
</svg>
