<svg width="40" height="40" viewBox="0 0 40 40" fill="none" xmlns="http://www.w3.org/2000/svg">
<g id="007-file">
<g id="Group">
<g id="Group_2">
<path id="Vector" d="M23.8386 23.5483H9.20671C8.8828 23.5483 8.6203 23.8109 8.6203 24.1347C8.6203 24.4587 8.88288 24.7212 9.20671 24.7212H23.8386C24.1625 24.7212 24.425 24.4586 24.425 24.1347C24.425 23.8108 24.1625 23.5483 23.8386 23.5483Z" fill="#0085FF"/>
</g>
</g>
<g id="Group_3">
<g id="Group_4">
<path id="Vector_2" d="M19.295 26.3086H9.20671C8.8828 26.3086 8.6203 26.5712 8.6203 26.895C8.6203 27.2188 8.88288 27.4814 9.20671 27.4814H19.295C19.6189 27.4814 19.8814 27.2188 19.8814 26.895C19.8814 26.5712 19.6189 26.3086 19.295 26.3086Z" fill="#0085FF"/>
</g>
</g>
<g id="Group_5">
<g id="Group_6">
<path id="Vector_3" d="M36.3137 12.0146C36.6376 12.0146 36.9001 11.752 36.9001 11.4282V6.1235C36.9001 5.79968 36.6376 5.5371 36.3137 5.5371H29.6635V0.586405C29.6635 0.262578 29.401 0 29.0771 0H3.68632C3.36241 0 3.09991 0.262578 3.09991 0.586405V20.7271C3.09991 21.051 3.36241 21.3136 3.68632 21.3136C4.01023 21.3136 4.27272 21.051 4.27272 20.7271V1.17289H28.4906V28.2764H24.0634C23.7395 28.2764 23.477 28.5389 23.477 28.8628V33.29L4.2728 33.2901V23.0728C4.2728 22.749 4.0103 22.4864 3.6864 22.4864C3.36249 22.4864 3.09999 22.749 3.09999 23.0728V33.8765C3.09999 34.2004 3.36249 34.4629 3.6864 34.4629H10.3366V39.4135C10.3366 39.7374 10.5991 39.9999 10.923 39.9999H31.3002C31.3049 39.9999 31.3095 39.9994 31.3142 39.9992C31.3286 39.9988 31.343 39.9985 31.3573 39.9971C31.3685 39.996 31.3795 39.994 31.3905 39.9922C31.3982 39.991 31.4061 39.9902 31.4138 39.9887C31.4256 39.9863 31.4371 39.983 31.4487 39.9801C31.4556 39.9783 31.4625 39.977 31.4692 39.9749C31.4804 39.9716 31.4913 39.9673 31.5023 39.9632C31.5092 39.9606 31.5163 39.9585 31.5231 39.9557C31.5337 39.9513 31.5438 39.9462 31.5541 39.9412C31.561 39.9379 31.5681 39.935 31.575 39.9314C31.5859 39.9256 31.5963 39.919 31.6068 39.9125C31.6126 39.9089 31.6186 39.9058 31.6243 39.902C31.6385 39.8927 31.652 39.8823 31.6654 39.8717C31.6671 39.8703 31.669 39.8692 31.6707 39.8677C31.6859 39.8554 31.7005 39.8423 31.7145 39.8283L36.7281 34.8145C36.7467 34.796 36.7634 34.7759 36.7792 34.7551C36.7831 34.7501 36.7868 34.7451 36.7904 34.74C36.8052 34.7192 36.8191 34.6977 36.8311 34.6752C36.8316 34.6742 36.832 34.6731 36.8326 34.6721C36.8439 34.6506 36.8534 34.6281 36.862 34.6053C36.8642 34.5994 36.8663 34.5934 36.8684 34.5874C36.8764 34.5635 36.8835 34.5392 36.8885 34.5143C36.8885 34.5142 36.8886 34.514 36.8886 34.5138C36.8934 34.4894 36.8962 34.4644 36.8979 34.4393C36.8984 34.4327 36.8987 34.4263 36.8988 34.4197C36.8991 34.4131 36.8998 34.4066 36.8998 34.3999V13.7739C36.8998 13.4501 36.6373 13.1875 36.3134 13.1875C35.9895 13.1875 35.727 13.4501 35.727 13.7739V33.8134H31.2999C30.976 33.8134 30.7135 34.076 30.7135 34.3998V38.827H11.5093V34.4628H24.0634C24.0682 34.4628 24.0728 34.4622 24.0775 34.4621C24.0918 34.4618 24.1062 34.4614 24.1205 34.46C24.1317 34.4589 24.1427 34.4569 24.1537 34.4551C24.1614 34.4539 24.1693 34.4531 24.1771 34.4516C24.1889 34.4492 24.2003 34.4459 24.2119 34.4429C24.2187 34.4411 24.2257 34.4398 24.2325 34.4377C24.2436 34.4344 24.2546 34.4301 24.2655 34.426C24.2725 34.4235 24.2795 34.4213 24.2864 34.4185C24.2969 34.4142 24.3071 34.409 24.3173 34.4041C24.3242 34.4007 24.3314 34.3978 24.3382 34.3942C24.3491 34.3885 24.3596 34.3818 24.37 34.3753C24.3758 34.3717 24.3818 34.3686 24.3875 34.3649C24.4017 34.3555 24.4153 34.3452 24.4286 34.3345C24.4303 34.3331 24.4322 34.332 24.4339 34.3306C24.4491 34.3183 24.4637 34.3051 24.4777 34.2912L29.4913 29.2774C29.5099 29.2589 29.5267 29.2388 29.5425 29.218C29.5463 29.2131 29.55 29.2081 29.5536 29.2031C29.5685 29.1822 29.5824 29.1607 29.5944 29.1381C29.5949 29.1372 29.5953 29.1363 29.5957 29.1353C29.6071 29.1137 29.6167 29.0912 29.6253 29.0682C29.6274 29.0623 29.6296 29.0564 29.6316 29.0504C29.6397 29.0265 29.6468 29.0022 29.6517 28.9772C29.6517 28.9771 29.6517 28.9769 29.6518 28.9767C29.6567 28.9523 29.6594 28.9272 29.6611 28.9021C29.6616 28.8956 29.6618 28.8891 29.662 28.8825C29.6623 28.8759 29.6631 28.8694 29.6631 28.8628V6.70991H35.7269V11.4282C35.7273 11.752 35.9898 12.0146 36.3137 12.0146ZM31.8864 34.9862H34.898L31.8864 37.9977V34.9862ZM24.6497 32.4607V29.4492H27.6613L24.6497 32.4607Z" fill="#0085FF"/>
</g>
</g>
<g id="Group_7">
<g id="Group_8">
<path id="Vector_4" d="M20.5495 9.68008C20.2483 9.37883 19.8476 9.21289 19.4216 9.21289C18.9956 9.21297 18.5951 9.37891 18.2937 9.68015L14.8336 13.1403L13.6674 11.9741C13.3662 11.6729 12.9656 11.5069 12.5395 11.5069C12.1134 11.5069 11.7129 11.6729 11.4116 11.9741C10.7898 12.5961 10.7898 13.608 11.4116 14.2298L13.7058 16.524C14.0071 16.8252 14.4076 16.9912 14.8336 16.9912C15.2597 16.9912 15.6602 16.8251 15.9615 16.5239L20.5494 11.9359C20.8507 11.6347 21.0167 11.2341 21.0167 10.808C21.0167 10.3819 20.8508 9.98133 20.5495 9.68008ZM19.72 11.1065L15.132 15.6945C15.0522 15.7743 14.9463 15.8182 14.8336 15.8182C14.7225 15.8182 14.6137 15.773 14.5351 15.6946L12.2411 13.4005C12.0764 13.2359 12.0764 12.968 12.2411 12.8034C12.3208 12.7237 12.4268 12.6798 12.5395 12.6798C12.6522 12.6798 12.7583 12.7237 12.838 12.8034L14.4188 14.3843C14.5288 14.4943 14.6779 14.5561 14.8335 14.5561C14.989 14.5561 15.1381 14.4943 15.2482 14.3843L19.1231 10.5094C19.2029 10.4296 19.3089 10.3857 19.4216 10.3857C19.5343 10.3857 19.6403 10.4296 19.72 10.5094C19.7998 10.5891 19.8436 10.6952 19.8436 10.8079C19.8438 10.9207 19.7998 11.0267 19.72 11.1065Z" fill="#0085FF"/>
</g>
</g>
<g id="Group_9">
<g id="Group_10">
<path id="Vector_5" d="M15.9806 4.37109C14.181 4.37109 12.4569 4.92031 10.9948 5.95937C10.7308 6.14695 10.6689 6.51304 10.8565 6.7771C11.044 7.04109 11.41 7.10304 11.6742 6.91539C12.9367 6.01812 14.4258 5.5439 15.9805 5.5439C20.0845 5.5439 23.4234 8.8828 23.4234 12.9868C23.4234 17.0908 20.0845 20.4297 15.9805 20.4297C11.8765 20.4297 8.53763 17.0908 8.53763 12.9868C8.53763 11.3185 9.07685 9.74194 10.097 8.42749C10.2957 8.17163 10.2493 7.8032 9.99341 7.60468C9.73763 7.40617 9.36927 7.45249 9.1706 7.70835C7.98927 9.23038 7.3649 11.0557 7.3649 12.9868C7.3649 17.7376 11.2299 21.6025 15.9806 21.6025C20.7313 21.6025 24.5963 17.7376 24.5963 12.9868C24.5963 8.23601 20.7314 4.37109 15.9806 4.37109Z" fill="#0085FF"/>
</g>
</g>
</g>
</svg>
