<svg width="40" height="40" viewBox="0 0 40 40" fill="none" xmlns="http://www.w3.org/2000/svg">
<g id="003-writing">
<path id="Vector" d="M34.5063 7.6624V7.6249C34.6868 7.11097 34.6566 6.54649 34.4224 6.0547C34.1882 5.5629 33.769 5.18371 33.2563 4.9999L31.6 4.4249C31.086 4.2461 30.5222 4.27704 30.0309 4.51102C29.5395 4.74499 29.1602 5.16316 28.975 5.6749L21.8375 26.1749C21.8 26.2749 22.6313 30.8124 22.6313 30.8124C22.0063 32.5999 20.4875 33.3124 19.9688 33.2124C19.7625 33.1749 19.9688 32.3374 20.0125 32.0874C20.1938 30.6374 19.0625 29.8374 17.675 32.0312C17.4625 32.3687 16.9375 33.1562 16.7125 33.1062C16.4875 33.0562 16.65 32.2937 16.7125 31.9999C16.925 30.6312 16.7563 28.8187 13.3688 31.6562C12.1563 32.6687 10.5188 34.0874 9.5625 33.7999C9.2375 33.6999 8.6 32.9374 8.8 32.7999C10.5563 31.5999 13.0688 28.1249 12.7125 26.2499C12.6661 25.9401 12.5235 25.6526 12.3047 25.4283C12.086 25.204 11.8023 25.0541 11.4938 24.9999C11.0291 24.9021 10.5466 24.9331 10.0983 25.0895C9.65 25.2459 9.25294 25.5218 8.95 25.8874C7.5 27.4999 6.99375 30.5812 7.26875 32.2937C6.05189 33.01 4.77897 33.6266 3.4625 34.1374C3.38535 34.1657 3.31453 34.209 3.25409 34.2646C3.19365 34.3203 3.14476 34.3874 3.11023 34.4619C3.0757 34.5365 3.0562 34.6172 3.05283 34.6993C3.04947 34.7814 3.06231 34.8634 3.09063 34.9405C3.11894 35.0177 3.16218 35.0885 3.21786 35.1489C3.27355 35.2094 3.34059 35.2583 3.41517 35.2928C3.48975 35.3273 3.5704 35.3468 3.65251 35.3502C3.73463 35.3536 3.8166 35.3407 3.89375 35.3124C5.18931 34.8123 6.44323 34.2105 7.64375 33.5124C7.77627 33.8573 7.98252 34.1692 8.24808 34.4261C8.51365 34.683 8.83213 34.8789 9.18125 34.9999C10.7875 35.4812 12.6563 33.8937 14.1813 32.6124C14.6 32.2562 15.1313 31.8062 15.4875 31.5624C15.4875 31.6812 15.3688 33.4812 15.8188 33.9874C15.9193 34.104 16.0427 34.1986 16.1815 34.2652C16.3202 34.3319 16.4712 34.3693 16.625 34.3749C17.5125 34.4187 18.125 33.5499 18.6875 32.7812C18.6296 33.2581 18.7621 33.7387 19.0563 34.1187C19.1768 34.2475 19.3247 34.3475 19.4892 34.4114C19.6537 34.4752 19.8304 34.5012 20.0063 34.4874C20.8838 34.3719 21.709 34.0047 22.3823 33.4301C23.0555 32.8556 23.548 32.0983 23.8 31.2499C23.8 31.2499 27.35 28.1999 27.3875 28.1249L34.0625 8.93115C34.1375 8.65615 35.3125 9.10615 35.1938 9.60615L33.475 14.7937C33.4228 14.9511 33.4353 15.1229 33.5097 15.2712C33.5841 15.4194 33.7144 15.5321 33.8719 15.5843C34.0293 15.6365 34.2011 15.624 34.3494 15.5496C34.4977 15.4752 34.6103 15.3449 34.6625 15.1874L36.375 9.9999C36.875 8.5874 35.25 7.70615 34.5063 7.6624ZM9.86875 26.7687C10.7625 25.8249 11.425 26.1437 11.4813 26.4874C11.675 27.5124 10 30.2374 8.44375 31.4874C8.4 30.0374 8.875 27.8187 9.86875 26.7687ZM31.1875 5.6249L32.8375 6.1999C32.9386 6.23499 33.0318 6.28969 33.1117 6.36089C33.1916 6.43208 33.2566 6.51836 33.3031 6.61476C33.3495 6.71116 33.3765 6.8158 33.3824 6.92265C33.3883 7.0295 33.3731 7.13647 33.3375 7.2374L33.2 7.6249L30 6.4874L30.1375 6.0999C30.2146 5.89832 30.3681 5.73533 30.5648 5.64638C30.7614 5.55743 30.9852 5.54971 31.1875 5.6249ZM29.6063 7.69365L32.7938 8.80615L26.4125 27.1062L23.225 25.9999L29.6063 7.69365ZM23.6938 29.7124L23.2437 27.3312L25.5563 28.1249L23.6938 29.7124Z" fill="#0085FF"/>
</g>
</svg>
