<svg width="40" height="40" viewBox="0 0 40 40" fill="none" xmlns="http://www.w3.org/2000/svg">
<g id="004-money">
<path id="Vector" d="M39.7006 12.9477L29.7086 2.95563C29.5157 2.76245 29.2587 2.65625 28.9859 2.65625C28.7128 2.65625 28.4561 2.76276 28.2629 2.95563L22.7679 8.45062C22.5418 8.67676 22.5418 9.04358 22.7679 9.27002C22.9944 9.49615 23.3612 9.49646 23.5876 9.27002L28.9859 3.87177L38.7845 13.6703L21.1304 31.3245L19.0732 29.2676C19.1568 29.1727 19.2389 29.0762 19.3176 28.9767L19.6335 28.5773C19.8337 28.6319 20.0525 28.6105 20.2469 28.5052C20.7919 28.2111 21.4688 28.2111 22.0135 28.5052C22.1399 28.5736 22.2763 28.6069 22.4112 28.6069C22.6242 28.6069 22.8333 28.5239 22.9922 28.3649L24.3365 27.0206C24.5627 26.7944 24.5627 26.4276 24.3365 26.2012C24.1101 25.975 23.7433 25.975 23.5172 26.2012L22.3413 27.3767C21.8405 27.1567 21.297 27.0801 20.766 27.1448L21.1755 26.6272L23.7915 24.0112L23.7918 24.0109L26.1227 21.68C26.8481 21.4917 27.5089 21.1145 28.0417 20.5817C29.6866 18.9368 29.6866 16.2598 28.0414 14.6146C26.3965 12.9697 23.7198 12.9697 22.0746 14.6149C20.9775 15.712 20.582 17.3419 21.0175 18.8083C20.5313 19.1025 20.0891 19.4373 19.7272 19.7992L17.4146 22.1124C17.2659 22.2614 17.0663 22.3431 16.853 22.3431H16.8341C16.5198 22.3431 16.0696 21.9919 15.9418 21.6611V19.6527L27.7747 7.81952C28.548 8.15979 29.4238 8.15979 30.1971 7.81952L34.8367 12.4591C34.4968 13.2327 34.4968 14.1083 34.8367 14.8816L25.4547 24.2633C25.2286 24.4897 25.2286 24.8566 25.4547 25.083C25.5679 25.1959 25.7162 25.2527 25.8646 25.2527C26.0129 25.2527 26.1612 25.1959 26.2744 25.083L35.8249 15.5322C36.0846 15.2722 36.1411 14.8788 35.9653 14.5535C35.6708 14.0088 35.6708 13.3319 35.965 12.7875C36.1414 12.4619 36.0849 12.0682 35.8249 11.8085L30.8481 6.83167C30.5878 6.57166 30.1947 6.5152 29.8691 6.69098C29.3243 6.98547 28.6475 6.98578 28.1027 6.69098C27.7774 6.5152 27.384 6.57166 27.1237 6.83167L15.9415 18.0139V16.9162L21.6278 11.2299C21.785 11.0727 21.8384 10.8389 21.7648 10.6287C21.6913 10.4184 21.5036 10.2692 21.2823 10.2444C20.3152 10.1361 19.3643 10.058 18.5999 9.99542C18.0759 9.95239 17.6617 9.91852 17.4149 9.88861C16.6537 9.79767 15.9119 10.0598 15.1477 10.6903L10.0906 14.6799C10.0873 14.6826 10.0836 14.6854 10.0803 14.6884C9.27094 15.3583 8.69507 16.2479 8.41522 17.2617C7.89093 19.1608 6.75812 22.6141 6.04431 24.021L3.58063 26.485L3.48877 26.3928C3.24677 26.1508 2.9248 26.0175 2.5827 26.0175C2.2406 26.0175 1.91864 26.1508 1.67664 26.3928L0.375366 27.6944C0.133362 27.9364 0 28.2581 0 28.6002C0 28.9426 0.133362 29.2642 0.375366 29.5062L7.771 36.9019C8.013 37.1439 8.33466 37.2772 8.67676 37.2772C9.01917 37.2772 9.34082 37.1439 9.58282 36.9019L10.8841 35.6003C11.1261 35.3586 11.2595 35.0366 11.2595 34.6945C11.2595 34.3524 11.1261 34.0305 10.8844 33.7885L10.7898 33.6942L11.4038 33.0801C11.6681 32.8159 11.9974 32.6212 12.3563 32.5171C12.3642 32.515 12.3718 32.5125 12.3798 32.5098L16.0944 31.2589C16.8787 30.99 17.6019 30.5869 18.2376 30.0708L20.4074 32.2406C20.6006 32.4338 20.8572 32.54 21.1304 32.54C21.4035 32.54 21.6599 32.4338 21.853 32.2406L39.7006 14.3933C39.8938 14.2001 40 13.9435 40 13.6703C40 13.3975 39.8938 13.1406 39.7006 12.9477ZM23.382 22.7817L22.9575 22.3569C22.8088 22.2083 22.8088 21.9666 22.9575 21.8176L23.7866 20.9885C24.0375 20.7376 24.3671 20.6122 24.6967 20.6122C24.9286 20.6122 25.1605 20.6744 25.365 20.7986L23.382 22.7817ZM22.894 15.4343C24.0872 14.2407 26.0287 14.241 27.222 15.434C28.3365 16.5485 28.4097 18.3151 27.4429 19.516C27.4411 19.0851 27.2687 18.6835 26.9333 18.3389C26.5637 17.8976 25.9607 17.6425 25.1871 17.601C24.2502 17.55 23.1216 17.8082 22.0728 18.2645C21.8515 17.2583 22.1506 16.1777 22.894 15.4343ZM10.0647 34.7809L8.76343 36.0825C8.73383 36.1121 8.69995 36.1185 8.67676 36.1185C8.65387 36.1185 8.62 36.1121 8.59039 36.0825L1.19476 28.6868C1.16486 28.6572 1.15875 28.6234 1.15875 28.6002C1.15875 28.577 1.16486 28.5434 1.19476 28.5138L2.49603 27.2122C2.52563 27.1826 2.55951 27.1762 2.5827 27.1762C2.6059 27.1762 2.63947 27.1826 2.66907 27.2122L10.0647 34.6078C10.0946 34.6375 10.1007 34.6713 10.1007 34.6945C10.1007 34.7177 10.0946 34.7513 10.0647 34.7809ZM19.0649 27.428L18.4088 28.2578C18.2391 28.4726 18.0554 28.6737 17.8595 28.8608C17.8574 28.8629 17.8549 28.8647 17.8528 28.8669C17.8513 28.8684 17.85 28.8699 17.8485 28.8715C17.2421 29.4479 16.5186 29.8883 15.7214 30.1617L12.0209 31.4078C11.4798 31.5671 10.9833 31.8619 10.5844 32.2607L9.9704 32.8748L4.40002 27.3044L6.9278 24.7766C6.96899 24.7351 7.00378 24.6878 7.03094 24.6362C7.7887 23.1918 8.97034 19.6045 9.53217 17.5702C9.74792 16.7886 10.191 16.1023 10.8139 15.5853L15.8707 11.5961C15.874 11.5933 15.8777 11.5906 15.881 11.5875C16.4035 11.1554 16.8341 10.9863 17.2769 11.0394C17.5455 11.0718 17.9691 11.1063 18.5049 11.1505C18.9359 11.1859 19.4269 11.2259 19.9451 11.2738L14.9521 16.2668C14.8434 16.3754 14.7824 16.5228 14.7824 16.6763L14.7827 21.7508C14.7827 21.8011 14.7894 21.8515 14.8026 21.9C15.0302 22.7536 15.9796 23.5022 16.8341 23.5022H16.853C17.3758 23.5022 17.8665 23.2996 18.2343 22.9315L20.5466 20.6189C20.9256 20.2399 21.4172 19.8923 21.9568 19.6027C21.9589 19.6017 21.9611 19.6011 21.9632 19.6002C21.9879 19.5892 22.0108 19.5764 22.0331 19.5627C23.0463 19.0332 24.2151 18.7082 25.1248 18.7582C25.5685 18.782 25.8975 18.9001 26.051 19.0906C26.0641 19.1068 26.0782 19.1223 26.0925 19.137C26.2976 19.342 26.297 19.5074 26.2738 19.6283C26.2555 19.722 26.2125 19.8245 26.1493 19.931C25.1929 19.2239 23.8333 19.303 22.9672 20.1691L22.1381 20.9982C21.8472 21.2894 21.687 21.676 21.687 22.0874C21.687 22.4988 21.8472 22.8854 22.1381 23.1763L22.5629 23.6011L20.332 25.8316C20.3162 25.8475 20.3012 25.8643 20.2875 25.882L19.0665 27.4261C19.0659 27.4268 19.0652 27.4274 19.0649 27.428Z" fill="#0085FF"/>
</g>
</svg>
