<svg width="40" height="40" viewBox="0 0 40 40" fill="none" xmlns="http://www.w3.org/2000/svg">
<g id="001-contact-form">
<g id="Group">
<path id="Vector" d="M25.5548 10.5415C25.8783 10.5415 26.1405 10.2793 26.1405 9.95582C26.1405 9.6323 25.8782 9.37012 25.5548 9.37012H14.4452C14.1217 9.37012 13.8595 9.63238 13.8595 9.95582C13.8595 10.2793 14.1218 10.5415 14.4452 10.5415H25.5548Z" fill="#0085FF"/>
<path id="Vector_2" d="M10.6672 15.641V17.1649C10.6672 17.8832 11.2516 18.4676 11.9698 18.4676H28.0302C28.7485 18.4676 29.3329 17.8832 29.3329 17.1649V15.641C29.3329 14.9228 28.7485 14.3384 28.0302 14.3384H11.9698C11.2516 14.3384 10.6672 14.9228 10.6672 15.641ZM28.1613 15.641V17.1649C28.1613 17.2373 28.1025 17.2961 28.0302 17.2961H11.9698C11.8975 17.2961 11.8387 17.2373 11.8387 17.1649V15.641C11.8387 15.5687 11.8975 15.5099 11.9698 15.5099H28.0302C28.1025 15.5099 28.1613 15.5687 28.1613 15.641Z" fill="#0085FF"/>
<path id="Vector_3" d="M10.6672 23.7947C10.6672 24.513 11.2516 25.0974 11.9698 25.0974H28.0302C28.7485 25.0974 29.3329 24.513 29.3329 23.7947V22.2709C29.3329 21.5526 28.7485 20.9683 28.0302 20.9683H11.9698C11.2516 20.9683 10.6672 21.5526 10.6672 22.2709V23.7947ZM11.8387 22.2709C11.8387 22.1986 11.8975 22.1397 11.9698 22.1397H28.0302C28.1026 22.1397 28.1614 22.1986 28.1614 22.2709V23.7947C28.1614 23.8671 28.1026 23.9259 28.0302 23.9259H11.9698C11.8975 23.9259 11.8387 23.8671 11.8387 23.7947V22.2709Z" fill="#0085FF"/>
<path id="Vector_4" d="M21.3624 28.019H18.6376C17.5299 28.019 16.6288 28.9202 16.6288 30.0279V30.1075C16.6288 31.2151 17.5299 32.1163 18.6376 32.1163H21.3624C22.4701 32.1163 23.3713 31.2151 23.3713 30.1075V30.0279C23.3713 28.9202 22.4701 28.019 21.3624 28.019ZM22.1998 30.1076C22.1998 30.5693 21.8241 30.9449 21.3624 30.9449H18.6376C18.1759 30.9449 17.8002 30.5693 17.8002 30.1076V30.0279C17.8002 29.5662 18.1759 29.1906 18.6376 29.1906H21.3624C21.8241 29.1906 22.1998 29.5662 22.1998 30.0279V30.1076Z" fill="#0085FF"/>
<path id="Vector_5" d="M22.7855 35.8953H7.71546C7.11437 35.8953 6.62539 35.4063 6.62539 34.8053V11.1272C6.62539 10.8037 6.36312 10.5415 6.03968 10.5415C5.71617 10.5415 5.45398 10.8038 5.45398 11.1272V34.8053C5.45398 36.0523 6.46851 37.0668 7.71554 37.0668H22.7855C23.1091 37.0668 23.3712 36.8045 23.3712 36.4811C23.3712 36.1577 23.109 35.8953 22.7855 35.8953Z" fill="#0085FF"/>
<path id="Vector_6" d="M32.9297 0.10764C32.1703 -0.118689 32.3977 0.0953739 7.71547 0.0138896C6.46851 0.0138896 5.4539 1.02842 5.4539 2.27545V8.78412C5.4539 9.10764 5.71617 9.36983 6.03961 9.36983C6.36312 9.36983 6.62531 9.10756 6.62531 8.78412V7.10616H33.3746V34.8051C33.3746 35.2443 33.1132 35.6387 32.7086 35.8097C32.1226 36.0576 32.3012 36.9351 32.937 36.9351C33.4325 36.9351 34.5461 36.1183 34.5461 34.805V2.27545C34.5461 1.251 33.8619 0.385452 32.9297 0.10764ZM33.3746 5.93467H6.62539V2.27545C6.62539 1.72889 7.03086 1.27076 7.5632 1.19592C7.70664 1.17576 6.37828 1.18912 32.2845 1.1853C32.8867 1.1853 33.3746 1.67553 33.3746 2.27537V5.93467Z" fill="#0085FF"/>
<path id="Vector_7" d="M9.75742 1.76807C8.7693 1.76807 7.96539 2.57189 7.96539 3.56002C7.96539 4.54814 8.7693 5.35205 9.75742 5.35205C10.7455 5.35205 11.5494 4.54814 11.5494 3.56002C11.5494 2.57189 10.7455 1.76807 9.75742 1.76807ZM9.75742 4.18057C9.41531 4.18057 9.13688 3.90221 9.13688 3.56002C9.13688 3.21783 9.41524 2.93955 9.75742 2.93955C10.0995 2.93955 10.3779 3.21791 10.3779 3.56002C10.3779 3.90213 10.0995 4.18057 9.75742 4.18057Z" fill="#0085FF"/>
<path id="Vector_8" d="M14.4452 1.76807C13.4571 1.76807 12.6533 2.57189 12.6533 3.56002C12.6533 4.54814 13.4571 5.35205 14.4452 5.35205C15.4334 5.35205 16.2373 4.54814 16.2373 3.56002C16.2373 2.57189 15.4334 1.76807 14.4452 1.76807ZM14.4452 4.18057C14.1031 4.18057 13.8248 3.90221 13.8248 3.56002C13.8248 3.21783 14.1031 2.93955 14.4452 2.93955C14.7873 2.93955 15.0658 3.21791 15.0658 3.56002C15.0658 3.90213 14.7874 4.18057 14.4452 4.18057Z" fill="#0085FF"/>
<path id="Vector_9" d="M19.1331 1.76807C18.145 1.76807 17.3411 2.57189 17.3411 3.56002C17.3411 4.54814 18.145 5.35205 19.1331 5.35205C20.1213 5.35205 20.9251 4.54814 20.9251 3.56002C20.9251 2.57189 20.1213 1.76807 19.1331 1.76807ZM19.1331 4.18057C18.791 4.18057 18.5126 3.90221 18.5126 3.56002C18.5126 3.21783 18.7909 2.93955 19.1331 2.93955C19.4752 2.93955 19.7536 3.21791 19.7536 3.56002C19.7536 3.90213 19.4753 4.18057 19.1331 4.18057Z" fill="#0085FF"/>
<path id="Vector_10" d="M32.652 33.9898C32.652 33.6288 32.4652 33.3054 32.1526 33.125L26.0755 29.6164C25.7628 29.4358 25.3895 29.4358 25.0768 29.6164C24.7641 29.7969 24.5774 30.1202 24.5774 30.4813V37.4985C24.5774 37.8595 24.7641 38.1829 25.0768 38.3634C25.3895 38.5439 25.7628 38.5439 26.0755 38.3634L27.5508 37.5116L28.685 39.4761C28.879 39.8119 29.232 39.9999 29.5945 39.9999C29.7723 39.9999 29.9523 39.9547 30.1169 39.8596L31.4277 39.1028C31.9283 38.8138 32.1004 38.1714 31.8114 37.6709L30.6772 35.7064L32.1525 34.8547C32.4653 34.6743 32.652 34.3509 32.652 33.9898ZM30.0014 34.7441C29.7545 34.8867 29.5779 35.1168 29.5041 35.3922C29.4302 35.6676 29.4681 35.9553 29.6107 36.2022L30.7353 38.15L29.6379 38.7836L28.5133 36.8357C28.3158 36.4937 27.9563 36.3023 27.5872 36.3023C27.4063 36.3023 27.2229 36.3483 27.0553 36.4451L25.749 37.1993V30.7805L31.3078 33.9899L30.0014 34.7441Z" fill="#0085FF"/>
</g>
</g>
</svg>
