<svg width="40" height="40" viewBox="0 0 40 40" fill="none" xmlns="http://www.w3.org/2000/svg">
<g id="006-passport" clip-path="url(#clip0_3_1003)">
<g id="Group">
<g id="Group_2">
<path id="Vector" d="M21.3074 10.8256C20.6827 9.27407 19.4917 8.06069 17.9537 7.40793C14.7787 6.0615 11.099 7.55495 9.74958 10.7371C9.09585 12.2781 9.07983 13.9811 9.70455 15.5321C10.3293 17.084 11.5202 18.2974 13.0576 18.9497C13.8503 19.2858 14.6741 19.4449 15.4859 19.4449C17.9242 19.4449 20.2495 18.0079 21.2623 15.6206C21.9161 14.0792 21.9321 12.3766 21.3074 10.8256ZM20.4721 11.1622C20.5672 11.3977 20.6387 11.6388 20.6987 11.8809L19.2757 11.2772C19.2562 10.3764 19.0927 9.60514 18.9191 9.0364C19.5994 9.59722 20.1335 10.3209 20.4721 11.1622ZM15.7046 13.7526L17.6327 14.5703C17.3421 15.1305 16.984 15.6087 16.5939 16.0083L15.0294 15.3446L15.7046 13.7526ZM13.3733 11.7854C13.6854 11.1657 14.066 10.6481 14.4662 10.2149L15.9586 10.8481L15.2274 12.5717L13.3733 11.7854ZM16.0562 12.9238L16.7874 11.2002L18.3625 11.8684C18.329 12.4551 18.2164 13.0878 17.9878 13.743L16.0562 12.9238ZM17.8473 8.70142C18.0083 9.0956 18.2729 9.88228 18.3519 10.8856L17.139 10.371L17.8473 8.70142ZM16.3103 10.0193L15.1795 9.53969C15.8867 8.95649 16.571 8.6094 16.9836 8.43278L16.3103 10.0193ZM15.5245 7.81363C15.7176 7.81363 15.9121 7.82663 16.1063 7.84812C15.5791 8.11822 14.9134 8.53584 14.2537 9.14708L12.8297 8.54288C13.6434 8.07124 14.5732 7.81363 15.5245 7.81363ZM10.4228 11.5123L12.1994 12.2656C11.9934 12.8563 11.8798 13.435 11.8358 13.9897L10.1537 13.2765C10.1442 12.6817 10.2327 12.0875 10.4228 11.5123ZM10.5394 15.1965C10.4219 14.9049 10.3353 14.6058 10.2708 14.3047L11.8183 14.9609C11.8723 15.9968 12.129 16.8915 12.377 17.5372C11.5617 16.9526 10.924 16.1508 10.5394 15.1965ZM10.7725 10.6825C11.0836 10.0913 11.4922 9.57818 11.9709 9.15655L13.5884 9.84281C13.2068 10.2934 12.8507 10.8216 12.5481 11.4358L10.7725 10.6825ZM13.0247 12.6162L14.8758 13.4009L14.2006 14.9929L12.7156 14.3632C12.7321 13.805 12.8231 13.2159 13.0247 12.6162ZM13.2382 17.2612C13.0507 16.7775 12.8501 16.1193 12.7605 15.36L13.8489 15.8217L13.2382 17.2612ZM14.6778 16.1733L15.8456 16.669C15.1874 17.1701 14.5252 17.4968 14.0311 17.6973L14.6778 16.1733ZM14.5577 18.4581C15.1944 18.1866 16.0122 17.7489 16.7914 17.0702L18.3325 17.7239C17.2241 18.4146 15.8806 18.6937 14.5577 18.4581ZM19.1532 17.0936L17.4762 16.3824C17.8438 15.9647 18.181 15.4811 18.4626 14.9219L20.2367 15.6741C19.951 16.2178 19.5829 16.6935 19.1532 17.0936ZM20.5892 14.8459L18.8171 14.0942C19.0481 13.4499 19.1802 12.8268 19.2387 12.2391L20.8517 12.9238C20.8817 13.5705 20.7958 14.2197 20.5892 14.8459Z" fill="#0085FF"/>
</g>
</g>
<g id="Group_3">
<g id="Group_4">
<path id="Vector_2" d="M39.994 35.9702L35.6011 7.41133C35.5591 7.1377 35.3 6.95063 35.0309 6.99322L27.3774 8.17007C27.0848 7.3828 26.4866 6.71012 25.6568 6.35151L11.0516 0.0419236C10.7989 -0.0670964 10.5039 0.0489572 10.3943 0.302458L0.0409375 24.2673C-0.0116187 24.3889 -0.0135725 24.5269 0.0349785 24.65C0.0845065 24.7731 0.180046 24.872 0.302058 24.9246L14.9073 31.2342C15.0349 31.2892 15.1649 31.3327 15.2959 31.3702L16.5584 39.5749C16.5964 39.8224 16.8094 39.999 17.052 39.999C17.0775 39.999 17.103 39.997 17.1285 39.9931L39.5758 36.5405C39.7068 36.5205 39.8249 36.449 39.903 36.3419C39.9815 36.2348 40.0146 36.1013 39.994 35.9702ZM15.3034 30.3164L1.15781 24.2048L11.1141 1.15879L25.2602 7.26978C26.3676 7.74845 26.8792 9.03881 26.4011 10.1462L18.18 29.1749C17.9484 29.7116 17.5213 30.1257 16.9781 30.3413C16.4348 30.5575 15.8406 30.5479 15.3034 30.3164ZM29.4685 23.8497L31.3222 31.1006L30.9786 31.4442L27.4755 26.1599C27.3925 26.0349 27.2579 25.9539 27.1084 25.9389C26.9593 25.9233 26.8113 25.9769 26.7047 26.083L25.9115 26.8762C25.2513 27.5364 24.7267 28.0611 23.9408 28.8433C23.7543 29.0294 23.6802 29.2565 23.7193 29.5186C23.7688 29.8467 23.8158 30.1753 23.8634 30.5038L23.9689 31.2301C23.8818 31.315 23.7959 31.4011 23.7098 31.4872L23.3052 30.7584C23.0626 30.3203 22.8196 29.8817 22.574 29.447C22.4765 29.2729 22.3239 29.1624 22.2128 29.1004C21.5166 28.7102 20.8189 28.3221 20.1211 27.9344L19.8675 27.7934L20.0146 27.4537C20.2781 27.5087 20.6108 27.5958 20.9373 27.6813C21.4115 27.8059 21.8596 27.9234 22.1937 27.9734C22.2352 27.9794 22.2757 27.9824 22.3152 27.9824C22.5118 27.9824 22.6884 27.9079 22.8314 27.7639L25.5118 25.0805C25.5363 25.056 25.5592 25.0295 25.5887 24.9949L25.6218 24.9564C25.7163 24.8479 25.7598 24.7038 25.7408 24.5608C25.7213 24.4178 25.6418 24.2897 25.5217 24.2102L22.3297 22.0935L22.8188 20.9616C25.1646 21.5877 27.1813 22.0645 27.869 22.227C28.054 22.2705 28.3257 22.2705 28.5707 22.0244L31.3991 19.1925C31.5777 19.0135 31.7568 18.9259 31.9793 18.9084C32.2164 18.887 32.4485 18.9865 32.6075 19.175C32.7676 19.3641 32.8251 19.6072 32.7661 19.8418C32.7246 20.0063 32.6375 20.1504 32.492 20.2959L31.6818 21.1061C31.0211 21.7663 30.4313 22.3565 29.6801 23.1038C29.472 23.3101 29.4001 23.5576 29.4685 23.8497ZM20.4171 26.5181L21.9261 23.0264L24.4659 24.7104L22.2166 26.9622C21.939 26.9102 21.5594 26.8102 21.1903 26.7131C20.9168 26.6412 20.6557 26.5737 20.4171 26.5181ZM17.4707 38.9287L16.3253 31.4833C16.6709 31.4663 17.016 31.4028 17.3471 31.2717C18.1388 30.9576 18.7605 30.3544 19.0981 29.5721L19.4678 28.7163L19.6344 28.8089C20.3271 29.1939 21.0198 29.5791 21.7211 29.9727C21.9596 30.3948 22.1943 30.819 22.4293 31.2431L23.1531 32.5466C23.2266 32.6787 23.3742 32.7542 23.5232 32.7802C23.5468 32.7842 23.5707 32.7861 23.5952 32.7861C23.7248 32.7861 23.8613 32.7311 23.9574 32.6471C23.9914 32.6171 24.0194 32.5921 24.0474 32.5646L24.269 32.3425C24.4301 32.181 24.5906 32.0195 24.7541 31.8614C24.9362 31.6849 25.0127 31.4587 24.9752 31.2062L24.8521 30.3619C24.8101 30.0663 24.7676 29.7707 24.723 29.4756C25.4673 28.7353 25.9789 28.2232 26.6182 27.5839L26.9789 27.2233L30.482 32.5075C30.5651 32.6326 30.6996 32.7136 30.8492 32.7286C30.9957 32.7431 31.1467 32.6906 31.2528 32.5845L32.2307 31.6066C32.3557 31.4816 32.4052 31.3 32.3617 31.129L30.4695 23.7291C31.1818 23.0203 31.7525 22.4496 32.3886 21.8134L33.1989 21.0032C33.4739 20.7281 33.6495 20.428 33.7355 20.0859C33.8721 19.5427 33.7356 18.9605 33.371 18.5294C33.0064 18.0983 32.4561 17.8662 31.9 17.9112C31.4418 17.9473 31.0347 18.1403 30.6901 18.4859L27.9593 21.2208C27.186 21.0378 25.3489 20.5996 23.2197 20.0334L27.3196 10.5433C27.5156 10.0896 27.5937 9.61547 27.5747 9.15233L34.6885 8.05792L38.9293 35.628L17.4707 38.9287Z" fill="#0085FF"/>
</g>
</g>
<g id="Group_5">
<g id="Group_6">
<path id="Vector_3" d="M17.4457 23.3198L6.79217 18.7174C6.56407 18.6194 6.29904 18.7244 6.20047 18.9519C6.10142 19.18 6.20702 19.445 6.43502 19.5436L17.0885 24.1461C17.1465 24.1711 17.207 24.1831 17.2666 24.1831C17.4407 24.1831 17.6067 24.0811 17.6802 23.9115C17.7788 23.6834 17.6738 23.4184 17.4457 23.3198Z" fill="#0085FF"/>
</g>
</g>
<g id="Group_7">
<g id="Group_8">
<path id="Vector_4" d="M15.9206 26.1929L5.26715 21.5904C5.03905 21.4914 4.77402 21.597 4.67545 21.825C4.57689 22.0531 4.682 22.3181 4.91 22.4167L15.5635 27.0192C15.6215 27.0442 15.682 27.0562 15.7416 27.0562C15.9157 27.0562 16.0817 26.9542 16.1552 26.7846C16.2538 26.5566 16.1487 26.2915 15.9206 26.1929Z" fill="#0085FF"/>
</g>
</g>
</g>
<defs>
<clipPath id="clip0_3_1003">
<rect width="40" height="40" fill="white"/>
</clipPath>
</defs>
</svg>
