<svg width="40" height="40" viewBox="0 0 40 40" fill="none" xmlns="http://www.w3.org/2000/svg">
<g id="008-booking">
<g id="Group">
<path id="Vector" d="M31.0844 8.08563V7.39375C31.083 6.86292 30.8715 6.35423 30.4961 5.97888C30.1208 5.60352 29.6121 5.39203 29.0812 5.39062C28.5502 5.3912 28.041 5.60243 27.6655 5.97797C27.2899 6.3535 27.0787 6.86267 27.0781 7.39375V8.05313H25.0281V7.39375C25.0281 6.86303 24.8175 6.354 24.4425 5.97843C24.0675 5.60286 23.5588 5.39145 23.0281 5.39062C22.4971 5.39129 21.9879 5.60254 21.6124 5.97806C21.2369 6.35357 21.0257 6.86269 21.025 7.39375V8.05313H18.975V7.39375C18.975 7.1309 18.9232 6.87063 18.8226 6.62778C18.7221 6.38494 18.5746 6.16429 18.3888 5.97843C18.2029 5.79257 17.9822 5.64514 17.7394 5.54455C17.4966 5.44396 17.2363 5.39219 16.9734 5.39219C16.7106 5.39219 16.4503 5.44396 16.2075 5.54455C15.9646 5.64514 15.744 5.79257 15.5581 5.97843C15.3723 6.16429 15.2248 6.38494 15.1242 6.62778C15.0236 6.87063 14.9719 7.1309 14.9719 7.39375V8.05313H12.9219V7.39375C12.9205 6.86292 12.709 6.35423 12.3336 5.97888C11.9583 5.60352 11.4496 5.39203 10.9187 5.39062C10.3877 5.39129 9.87857 5.60254 9.50306 5.97806C9.12754 6.35357 8.91629 6.86269 8.91563 7.39375V8.08563C7.94395 8.20544 7.0495 8.67603 6.40038 9.40893C5.75126 10.1418 5.39218 11.0866 5.39062 12.0656V30.5969C5.39187 31.6607 5.81501 32.6805 6.56723 33.4328C7.31945 34.185 8.33932 34.6081 9.40312 34.6094H30.5969C31.6607 34.6081 32.6805 34.185 33.4328 33.4328C34.185 32.6805 34.6081 31.6607 34.6094 30.5969V12.0656C34.6078 11.0866 34.2487 10.1418 33.5996 9.40893C32.9505 8.67603 32.056 8.20544 31.0844 8.08563ZM28.1719 7.39375C28.1722 7.15267 28.2681 6.92156 28.4386 6.75109C28.6091 6.58062 28.8402 6.48471 29.0812 6.48438C29.322 6.48585 29.5524 6.58213 29.7226 6.75236C29.8929 6.92258 29.9891 7.15302 29.9906 7.39375V9.80625C29.9906 10.0474 29.8948 10.2787 29.7243 10.4493C29.5537 10.6198 29.3224 10.7156 29.0812 10.7156C28.8401 10.7156 28.6088 10.6198 28.4382 10.4493C28.2677 10.2787 28.1719 10.0474 28.1719 9.80625V7.39375ZM22.1187 7.39375C22.119 7.15264 22.2149 6.92149 22.3854 6.751C22.5559 6.58051 22.787 6.48462 23.0281 6.48438C23.2688 6.48512 23.4993 6.58127 23.6692 6.75174C23.8391 6.92221 23.9345 7.15308 23.9344 7.39375V9.80625C23.9344 10.047 23.8387 10.2779 23.6685 10.4482C23.4982 10.6184 23.2673 10.7141 23.0266 10.7141C22.7858 10.7141 22.5549 10.6184 22.3846 10.4482C22.2144 10.2779 22.1187 10.047 22.1187 9.80625V7.39375ZM16.0656 7.39375C16.0656 7.15298 16.1613 6.92208 16.3315 6.75183C16.5018 6.58158 16.7327 6.48594 16.9734 6.48594C17.2142 6.48594 17.4451 6.58158 17.6154 6.75183C17.7856 6.92208 17.8813 7.15298 17.8813 7.39375V9.80625C17.8813 10.047 17.7856 10.2779 17.6154 10.4482C17.4451 10.6184 17.2142 10.7141 16.9734 10.7141C16.7327 10.7141 16.5018 10.6184 16.3315 10.4482C16.1613 10.2779 16.0656 10.047 16.0656 9.80625V7.39375ZM10.0094 7.39375C10.0096 7.15264 10.1055 6.92149 10.276 6.751C10.4465 6.58051 10.6776 6.48462 10.9187 6.48438C11.1595 6.48585 11.3899 6.58213 11.5601 6.75236C11.7304 6.92258 11.8266 7.15302 11.8281 7.39375V9.80625C11.8281 10.0474 11.7323 10.2787 11.5618 10.4493C11.3912 10.6198 11.1599 10.7156 10.9187 10.7156C10.6776 10.7156 10.4463 10.6198 10.2757 10.4493C10.1052 10.2787 10.0094 10.0474 10.0094 9.80625V7.39375ZM8.91563 9.19094V9.80625C8.91563 10.3375 9.12667 10.847 9.50233 11.2227C9.87799 11.5983 10.3875 11.8094 10.9187 11.8094C11.45 11.8094 11.9595 11.5983 12.3352 11.2227C12.7108 10.847 12.9219 10.3375 12.9219 9.80625V9.14688H14.9719V9.80625C14.9719 10.3371 15.1828 10.8462 15.5581 11.2216C15.9335 11.5969 16.4426 11.8078 16.9734 11.8078C17.5043 11.8078 18.0134 11.5969 18.3888 11.2216C18.7641 10.8462 18.975 10.3371 18.975 9.80625V9.14688H21.025V9.80625C21.025 10.3371 21.2359 10.8462 21.6112 11.2216C21.9866 11.5969 22.4957 11.8078 23.0266 11.8078C23.5574 11.8078 24.0665 11.5969 24.4419 11.2216C24.8172 10.8462 25.0281 10.3371 25.0281 9.80625V9.14688H27.0781V9.80625C27.0781 10.3375 27.2892 10.847 27.6648 11.2227C28.0405 11.5983 28.55 11.8094 29.0812 11.8094C29.6125 11.8094 30.122 11.5983 30.4977 11.2227C30.8733 10.847 31.0844 10.3375 31.0844 9.80625V9.19094C31.7636 9.3065 32.3801 9.65841 32.825 10.1845C33.2699 10.7106 33.5145 11.377 33.5156 12.0659V13.7119H6.48438V12.0656C6.4856 11.3767 6.73025 10.7104 7.17513 10.1844C7.62 9.65836 8.23647 9.30649 8.91563 9.19094ZM30.5969 33.5156H9.40312C8.6293 33.5147 7.88744 33.2069 7.34026 32.6597C6.79309 32.1126 6.48528 31.3707 6.48438 30.5969V14.8063H33.5156V30.5969C33.5147 31.3707 33.2069 32.1126 32.6597 32.6597C32.1126 33.2069 31.3707 33.5147 30.5969 33.5156Z" fill="#0085FF"/>
<path id="Vector_2" d="M13.0262 17.542H10.8181C10.4337 17.5425 10.0652 17.6954 9.79335 17.9672C9.52153 18.2391 9.3686 18.6076 9.3681 18.992V21.2001C9.3686 21.5845 9.52153 21.9531 9.79335 22.2249C10.0652 22.4967 10.4337 22.6496 10.8181 22.6501H13.0262C13.4106 22.6496 13.7792 22.4967 14.051 22.2249C14.3228 21.9531 14.4757 21.5845 14.4762 21.2001V18.992C14.4757 18.6076 14.3228 18.2391 14.051 17.9672C13.7792 17.6954 13.4106 17.5425 13.0262 17.542ZM13.3825 21.2001C13.3824 21.2946 13.3448 21.3851 13.278 21.4519C13.2113 21.5187 13.1207 21.5563 13.0262 21.5564H10.8181C10.7236 21.5563 10.6331 21.5187 10.5663 21.4519C10.4995 21.3851 10.4619 21.2946 10.4619 21.2001V18.992C10.4619 18.8975 10.4995 18.807 10.5663 18.7402C10.6331 18.6734 10.7236 18.6358 10.8181 18.6357H13.0262C13.1207 18.6358 13.2113 18.6734 13.278 18.7402C13.3448 18.807 13.3824 18.8975 13.3825 18.992V21.2001Z" fill="#0085FF"/>
<path id="Vector_3" d="M21.104 17.542H18.8959C18.5115 17.5425 18.143 17.6954 17.8712 17.9672C17.5993 18.2391 17.4464 18.6076 17.4459 18.992V21.2001C17.4464 21.5845 17.5993 21.9531 17.8712 22.2249C18.143 22.4967 18.5115 22.6496 18.8959 22.6501H21.104C21.4885 22.6496 21.857 22.4967 22.1288 22.2249C22.4006 21.9531 22.5536 21.5845 22.554 21.2001V18.992C22.5536 18.6076 22.4006 18.2391 22.1288 17.9672C21.857 17.6954 21.4885 17.5425 21.104 17.542ZM21.4603 21.2001C21.4602 21.2946 21.4227 21.3851 21.3559 21.4519C21.2891 21.5187 21.1985 21.5563 21.104 21.5564H18.8959C18.8015 21.5563 18.7109 21.5187 18.6441 21.4519C18.5773 21.3851 18.5398 21.2946 18.5397 21.2001V18.992C18.5398 18.8975 18.5773 18.807 18.6441 18.7402C18.7109 18.6734 18.8015 18.6358 18.8959 18.6357H21.104C21.1985 18.6358 21.2891 18.6734 21.3559 18.7402C21.4227 18.807 21.4602 18.8975 21.4603 18.992V21.2001Z" fill="#0085FF"/>
<path id="Vector_4" d="M29.8906 18.2903L27.4375 20.7422L26.2638 19.5685C26.1606 19.4689 26.0224 19.4138 25.8791 19.415C25.7357 19.4163 25.5985 19.4739 25.4971 19.5753C25.3958 19.6767 25.3383 19.8139 25.3371 19.9573C25.3358 20.1007 25.391 20.2388 25.4906 20.3419L27.0509 21.9022C27.1017 21.953 27.162 21.9934 27.2283 22.0209C27.2947 22.0484 27.3658 22.0625 27.4377 22.0625C27.5095 22.0625 27.5806 22.0484 27.647 22.0209C27.7133 21.9934 27.7736 21.953 27.8244 21.9022L30.6641 19.0625C30.7666 18.96 30.8242 18.8209 30.8242 18.6758C30.8242 18.5308 30.7666 18.3917 30.6641 18.2891C30.5615 18.1865 30.4224 18.1289 30.2773 18.1289C30.1323 18.1289 29.9932 18.1865 29.8906 18.2891V18.2903Z" fill="#0085FF"/>
<path id="Vector_5" d="M13.0262 25.0752H10.8181C10.4337 25.0757 10.0652 25.2286 9.79335 25.5004C9.52153 25.7723 9.3686 26.1408 9.3681 26.5252V28.7333C9.3686 29.1177 9.52153 29.4863 9.79335 29.7581C10.0652 30.0299 10.4337 30.1828 10.8181 30.1833H13.0262C13.4106 30.1828 13.7792 30.0299 14.051 29.7581C14.3228 29.4863 14.4757 29.1177 14.4762 28.7333V26.5252C14.4757 26.1408 14.3228 25.7723 14.051 25.5004C13.7792 25.2286 13.4106 25.0757 13.0262 25.0752ZM13.3825 28.7333C13.3824 28.8278 13.3448 28.9183 13.278 28.9851C13.2113 29.0519 13.1207 29.0895 13.0262 29.0896H10.8181C10.7236 29.0895 10.6331 29.0519 10.5663 28.9851C10.4995 28.9183 10.4619 28.8278 10.4619 28.7333V26.5252C10.4619 26.4307 10.4995 26.3402 10.5663 26.2734C10.6331 26.2066 10.7236 26.169 10.8181 26.1689H13.0262C13.1207 26.169 13.2113 26.2066 13.278 26.2734C13.3448 26.3402 13.3824 26.4307 13.3825 26.5252V28.7333Z" fill="#0085FF"/>
<path id="Vector_6" d="M21.104 25.0752H18.8959C18.5115 25.0757 18.143 25.2286 17.8712 25.5004C17.5993 25.7723 17.4464 26.1408 17.4459 26.5252V28.7333C17.4464 29.1177 17.5993 29.4863 17.8712 29.7581C18.143 30.0299 18.5115 30.1828 18.8959 30.1833H21.104C21.4885 30.1828 21.857 30.0299 22.1288 29.7581C22.4006 29.4863 22.5536 29.1177 22.554 28.7333V26.5252C22.5536 26.1408 22.4006 25.7723 22.1288 25.5004C21.857 25.2286 21.4885 25.0757 21.104 25.0752ZM21.4603 28.7333C21.4602 28.8278 21.4227 28.9183 21.3559 28.9851C21.2891 29.0519 21.1985 29.0895 21.104 29.0896H18.8959C18.8015 29.0895 18.7109 29.0519 18.6441 28.9851C18.5773 28.9183 18.5398 28.8278 18.5397 28.7333V26.5252C18.5398 26.4307 18.5773 26.3402 18.6441 26.2734C18.7109 26.2066 18.8015 26.169 18.8959 26.1689H21.104C21.1985 26.169 21.2891 26.2066 21.3559 26.2734C21.4227 26.3402 21.4602 26.4307 21.4603 26.5252V28.7333Z" fill="#0085FF"/>
<path id="Vector_7" d="M29.1819 25.0752H26.9737C26.5893 25.0757 26.2208 25.2286 25.949 25.5004C25.6772 25.7723 25.5242 26.1408 25.5237 26.5252V28.7333C25.5242 29.1177 25.6772 29.4863 25.949 29.7581C26.2208 30.0299 26.5893 30.1828 26.9737 30.1833H29.1819C29.5663 30.1828 29.9348 30.0299 30.2066 29.7581C30.4784 29.4863 30.6314 29.1177 30.6319 28.7333V26.5252C30.6314 26.1408 30.4784 25.7723 30.2066 25.5004C29.9348 25.2286 29.5663 25.0757 29.1819 25.0752ZM29.5381 28.7333C29.538 28.8278 29.5005 28.9183 29.4337 28.9851C29.3669 29.0519 29.2763 29.0895 29.1819 29.0896H26.9737C26.8793 29.0895 26.7887 29.0519 26.7219 28.9851C26.6551 28.9183 26.6176 28.8278 26.6175 28.7333V26.5252C26.6176 26.4307 26.6551 26.3402 26.7219 26.2734C26.7887 26.2066 26.8793 26.169 26.9737 26.1689H29.1819C29.2763 26.169 29.3669 26.2066 29.4337 26.2734C29.5005 26.3402 29.538 26.4307 29.5381 26.5252V28.7333Z" fill="#0085FF"/>
</g>
</g>
</svg>
