<svg width="40" height="40" viewBox="0 0 40 40" fill="none" xmlns="http://www.w3.org/2000/svg">
<g id="002-search" clip-path="url(#clip0_3_901)">
<path id="Vector" d="M39.7822 8.62467C39.7786 8.56641 39.7673 8.50846 39.748 8.45345C39.7409 8.43197 39.7354 8.41146 39.7262 8.39062C39.6937 8.31803 39.6484 8.25195 39.5928 8.19531L31.5928 0.195312C31.5361 0.139323 31.4697 0.0940755 31.3968 0.061849C31.377 0.0527343 31.3568 0.0472005 31.3363 0.0400391C31.2796 0.0205078 31.221 0.00878908 31.1615 0.00520833C31.1501 0.00748698 31.138 0 31.124 0H11.124C9.28418 0.00227865 7.79297 1.49316 7.79069 3.33333V8.23991C3.20768 10.2611 0.25 14.7975 0.25 19.8066C0.25 24.8158 3.20768 29.3522 7.79069 31.3734V36.6667C7.79297 38.5068 9.28418 39.9977 11.124 40H36.4574C38.2975 39.9977 39.7887 38.5068 39.7907 36.6667V8.66667C39.7907 8.65202 39.7835 8.63932 39.7822 8.62467ZM37.5146 8H32.4574C32.0892 8 31.7907 7.7015 31.7907 7.33333V2.27604L37.5146 8ZM1.59733 19.8066C1.59342 16.7995 2.78613 13.9147 4.91244 11.7884C7.03874 9.66211 9.92383 8.4694 12.9307 8.47331C13.3096 8.47331 13.6855 8.49186 14.0566 8.528C19.2116 9.03744 23.3604 12.986 24.124 18.1094C24.2126 18.6709 24.2591 19.2383 24.2633 19.8066C24.2682 21.9417 23.6647 24.0339 22.5241 25.8385C21.6195 27.2806 20.4004 28.4993 18.958 29.4033C15.4655 31.5967 11.0573 31.7197 7.44792 29.7243C3.83854 27.7292 1.59798 23.9307 1.59733 19.8066ZM20.6735 29.8213C20.7646 29.7507 20.8548 29.6807 20.944 29.6081C21.2731 29.3431 21.5882 29.0615 21.8887 28.7646C22.1855 28.4642 22.4671 28.1494 22.7321 27.8206C22.8047 27.7314 22.8747 27.6406 22.9453 27.5495C23.026 27.444 23.1136 27.3441 23.1908 27.2367L28.874 32.9268C29.2503 33.2995 29.4622 33.8073 29.4622 34.3369C29.4622 34.8669 29.2503 35.3744 28.874 35.7474C28.0869 36.5081 26.8385 36.5081 26.0514 35.7474L20.3607 30.0667C20.4681 29.9886 20.5687 29.902 20.6735 29.8213ZM36.4574 38.6667H11.124C10.0195 38.6667 9.12402 37.7712 9.12402 36.6667V31.8939C9.16537 31.9072 9.20866 31.916 9.25065 31.9287C9.35742 31.9613 9.4655 31.9873 9.57357 32.0173C9.82292 32.084 10.0742 32.1507 10.3281 32.2005C10.4528 32.2266 10.5775 32.2507 10.7035 32.2728C10.9574 32.3174 11.2135 32.3525 11.4707 32.3822C11.5856 32.3952 11.6989 32.4115 11.8141 32.4212C12.1836 32.4528 12.5553 32.4733 12.9307 32.4733C15.1344 32.4749 17.2998 31.8981 19.2103 30.8001L25.1048 36.6888C25.932 37.5941 27.1898 37.9723 28.3789 37.6729C29.5684 37.3737 30.4974 36.4456 30.7975 35.2565C31.098 34.0674 30.721 32.8092 29.8161 31.9814L23.9242 26.0859C25.0221 24.1755 25.5993 22.0101 25.5973 19.8066C25.5973 19.3844 25.5771 18.9655 25.5361 18.5501C25.2516 15.6374 23.9622 12.9147 21.8893 10.8493C19.5186 8.46582 16.2926 7.13021 12.9307 7.13997C12.5553 7.13997 12.1836 7.16081 11.8141 7.19206C11.6989 7.20215 11.5846 7.2181 11.4701 7.23145C11.2135 7.26009 10.9587 7.29655 10.7048 7.34082C10.5781 7.36296 10.4518 7.38704 10.3262 7.41341C10.0755 7.4655 9.82682 7.52669 9.58008 7.59473C9.4694 7.62467 9.35872 7.65137 9.24675 7.68457C9.2054 7.69727 9.16341 7.70606 9.12207 7.7194V3.33333C9.12207 2.22884 10.0176 1.33333 11.1221 1.33333H30.4574V7.33333C30.4574 8.43783 31.3529 9.33333 32.4574 9.33333H38.4574V36.6667C38.4574 37.7712 37.5622 38.6667 36.4574 38.6667Z" fill="#0085FF"/>
<path id="Vector_2" d="M27.7907 4.66667C27.7907 4.2985 27.4922 4 27.124 4H12.4574C12.0892 4 11.7907 4.2985 11.7907 4.66667C11.7907 5.03483 12.0892 5.33333 12.4574 5.33333H27.124C27.4922 5.33333 27.7907 5.03483 27.7907 4.66667Z" fill="#0085FF"/>
<path id="Vector_3" d="M35.124 16H27.124C26.7559 16 26.4574 16.2985 26.4574 16.6667C26.4574 17.0348 26.7559 17.3333 27.124 17.3333H35.124C35.4922 17.3333 35.7907 17.0348 35.7907 16.6667C35.7907 16.2985 35.4922 16 35.124 16Z" fill="#0085FF"/>
<path id="Vector_4" d="M35.124 20H27.124C26.7559 20 26.4574 20.2985 26.4574 20.6667C26.4574 21.0348 26.7559 21.3333 27.124 21.3333H35.124C35.4922 21.3333 35.7907 21.0348 35.7907 20.6667C35.7907 20.2985 35.4922 20 35.124 20Z" fill="#0085FF"/>
<path id="Vector_5" d="M35.7907 24.6667C35.7907 24.2985 35.4922 24 35.124 24H26.4574C26.0892 24 25.7907 24.2985 25.7907 24.6667C25.7907 25.0348 26.0892 25.3333 26.4574 25.3333H35.124C35.4922 25.3333 35.7907 25.0348 35.7907 24.6667Z" fill="#0085FF"/>
<path id="Vector_6" d="M35.7907 28.6667C35.7907 28.2985 35.4922 28 35.124 28H29.124C28.7559 28 28.4574 28.2985 28.4574 28.6667C28.4574 29.0348 28.7559 29.3333 29.124 29.3333H35.124C35.4922 29.3333 35.7907 29.0348 35.7907 28.6667Z" fill="#0085FF"/>
<path id="Vector_7" d="M27.7907 8.66667C27.7907 8.2985 27.4922 8 27.124 8H21.7907C21.4225 8 21.124 8.2985 21.124 8.66667C21.124 9.03483 21.4225 9.33333 21.7907 9.33333H27.124C27.4922 9.33333 27.7907 9.03483 27.7907 8.66667Z" fill="#0085FF"/>
<path id="Vector_8" d="M35.7907 12.6667C35.7907 12.2985 35.4922 12 35.124 12H25.124C24.7559 12 24.4574 12.2985 24.4574 12.6667C24.4574 13.0348 24.7559 13.3333 25.124 13.3333H35.124C35.4922 13.3333 35.7907 13.0348 35.7907 12.6667Z" fill="#0085FF"/>
<path id="Vector_9" d="M10.4574 16.6668H15.124C15.4922 16.6668 15.7907 16.3683 15.7907 16.0002C15.7907 15.632 15.4922 15.3335 15.124 15.3335H10.4574C10.0892 15.3335 9.7907 15.632 9.7907 16.0002C9.7907 16.3683 10.0892 16.6668 10.4574 16.6668Z" fill="#0085FF"/>
<path id="Vector_10" d="M18.4574 20.0002C18.4574 19.632 18.1589 19.3335 17.7907 19.3335H7.79069C7.42253 19.3335 7.12402 19.632 7.12402 20.0002C7.12402 20.3683 7.42253 20.6668 7.79069 20.6668H17.7907C18.1589 20.6668 18.4574 20.3683 18.4574 20.0002Z" fill="#0085FF"/>
<path id="Vector_11" d="M15.124 23.3335H10.4574C10.0892 23.3335 9.7907 23.632 9.7907 24.0002C9.7907 24.3683 10.0892 24.6668 10.4574 24.6668H15.124C15.4922 24.6668 15.7907 24.3683 15.7907 24.0002C15.7907 23.632 15.4922 23.3335 15.124 23.3335Z" fill="#0085FF"/>
<path id="Vector_12" d="M17.6761 28.5998C19.3021 27.7339 20.6504 26.426 21.5654 24.8273C21.6182 24.7352 21.6755 24.646 21.7249 24.5526C21.7507 24.5044 21.7708 24.4546 21.7956 24.4064C21.8968 24.2118 21.9954 24.0171 22.0827 23.8179C22.1702 23.6187 22.2389 23.4292 22.3102 23.2333C22.3307 23.1766 22.3568 23.1213 22.377 23.064C24.0723 18.134 21.696 12.7284 16.9173 10.6447C12.1383 8.56107 6.56055 10.4986 4.10222 15.0959C3.32845 16.5441 2.92546 18.1617 2.92936 19.8039C2.92318 23.3273 4.77377 26.5933 7.79948 28.3986C10.8252 30.2043 14.5781 30.2821 17.6761 28.6037V28.5998ZM8.77604 27.412C8.05046 27.0165 7.38575 26.5184 6.80209 25.9331C6.39714 25.5285 6.03288 25.0855 5.7142 24.6099C5.55664 24.3742 5.41179 24.1324 5.27865 23.884C3.27214 20.0952 4.33529 15.4087 7.78028 12.857C11.2253 10.3052 16.0182 10.6542 19.0576 13.6779C21.7494 16.3951 22.3548 20.55 20.5508 23.9224V23.9279C19.7559 25.4152 18.5371 26.633 17.0495 27.4273C14.4688 28.8293 11.3525 28.8244 8.77604 27.4146V27.412Z" fill="#0085FF"/>
<path id="Vector_13" d="M36.4574 32C36.0892 32 35.7907 32.2985 35.7907 32.6667V35.3333C35.7907 35.7015 35.4922 36 35.124 36H32.4574C32.0892 36 31.7907 36.2985 31.7907 36.6667C31.7907 37.0348 32.0892 37.3333 32.4574 37.3333H35.124C36.2288 37.3333 37.124 36.4378 37.124 35.3333V32.6667C37.124 32.2985 36.8255 32 36.4574 32Z" fill="#0085FF"/>
</g>
<defs>
<clipPath id="clip0_3_901">
<rect width="40" height="40" fill="white"/>
</clipPath>
</defs>
</svg>
