<svg width="80" height="80" viewBox="0 0 80 80" fill="none" xmlns="http://www.w3.org/2000/svg">
<g id="004-adventure" clip-path="url(#clip0_3_5496)">
<path id="Vector" d="M74.5763 7.38352L39.3835 0.0220618C38.8456 -0.0939147 38.313 0.254015 38.1993 0.794984L33.4641 23.431L28.6038 19.2169C28.1933 18.8629 27.5753 18.8965 27.2106 19.2978L26.4583 20.1196L24.7102 18.5211C24.302 18.1487 23.6702 18.1754 23.2971 18.5836L17.2038 25.2424C17.0245 25.4377 16.9306 25.6964 16.9428 25.9611C16.9543 26.2274 17.0703 26.4761 17.2663 26.6547L19.0144 28.2547L18.2628 29.0765C17.8966 29.4755 17.9157 30.0951 18.3056 30.472L22.6028 34.6204L16.6743 41.0976L12.1619 37.1841C11.7521 36.8301 11.1349 36.8652 10.7694 37.265L10.0171 38.0875L8.26977 36.4883C8.07368 36.3082 7.82494 36.2075 7.5495 36.2266C7.28474 36.238 7.036 36.354 6.85669 36.5501L0.763348 43.2096C0.584042 43.4049 0.490193 43.6636 0.502401 43.9291C0.513846 44.1946 0.630585 44.4441 0.825914 44.6227L2.57319 46.2211L1.82163 47.0429C1.45539 47.442 1.47447 48.0615 1.86436 48.4384L18.5131 64.5096C18.3025 64.8857 18.3376 65.3618 18.6497 65.6846L31.6505 79.1646C32.164 79.6972 32.8797 80.0001 33.6183 80.0001H33.6549C34.4057 79.9902 35.1275 79.6659 35.6341 79.1119L45.7058 68.1048C46.2132 67.5501 46.4711 66.8032 46.4138 66.0539C46.3574 65.3046 45.9888 64.6049 45.4051 64.1334L42.6515 61.9131L62.3095 66.0257C62.7406 66.1165 63.1747 66.1607 63.6058 66.1607C64.8106 66.1607 65.9894 65.812 67.0226 65.1375C68.4227 64.2219 69.3833 62.8157 69.7259 61.1775L79.4275 14.8007C79.7701 13.161 79.4542 11.4885 78.5378 10.0868C77.6214 8.68596 76.2152 7.72458 74.5763 7.38352ZM19.3555 25.8543L24.099 20.6712L25.1093 21.5937L20.3657 26.7783L19.3555 25.8543ZM28.0293 21.3663L44.7009 35.8252L36.2735 45.0347L20.3969 29.709L28.0293 21.3663ZM50.6004 59.7942C50.4623 59.9445 50.2746 60.0285 50.0694 60.0315C49.8825 60.0544 49.6742 59.9544 49.5322 59.8072L47.9551 58.1721L58.8218 46.2959L60.5912 47.7235C60.7499 47.8509 60.846 48.034 60.8613 48.2385C60.8773 48.4415 60.8094 48.6361 60.6713 48.7887L50.6004 59.7942ZM46.5642 56.73L37.1846 47.004L46.7442 36.5562L57.2622 45.0377L46.5642 56.73ZM22.779 46.3898L28.4169 40.2293L29.698 41.4654C29.6957 41.4737 29.6896 41.4791 29.6888 41.4867L27.7584 50.7084L22.779 46.3898ZM24.0441 36.0091L26.9771 38.8406L21.2683 45.0797L18.1881 42.4077L24.0441 36.0091ZM2.91578 43.8223L7.65861 38.6377L8.66883 39.5617L3.92523 44.7447L2.91578 43.8223ZM11.5888 39.3335L28.2605 53.7924L19.8331 63.0026L3.95575 47.6754L11.5888 39.3335ZM30.303 54.5226L40.8203 63.0057L30.1214 74.6964L20.7418 64.9704L30.303 54.5226ZM44.4209 66.205C44.4361 66.4087 44.369 66.604 44.2309 66.7551L34.1592 77.7614C34.0211 77.9117 33.8327 77.9957 33.629 77.9987C33.4359 78.0178 33.233 77.9216 33.091 77.7744L31.5131 76.1385L42.3806 64.2639L44.15 65.6907C44.3087 65.8181 44.4049 66.0005 44.4209 66.205ZM30.828 52.3763C30.4778 52.0947 30.0016 52.1009 29.6446 52.3442L29.4775 52.1993C29.4843 52.1756 29.4996 52.1566 29.5049 52.1329L31.3941 43.1035L34.9551 46.5408C34.7437 46.9185 34.7803 47.3931 35.0924 47.7159L47.8658 60.9616L39.2973 59.1693C39.2813 59.1663 39.2653 59.1708 39.2492 59.1693L30.828 52.3763ZM77.4688 14.3887L67.7665 60.7655C67.5338 61.8803 66.8799 62.8378 65.9269 63.4612C64.9739 64.0846 63.8347 64.3005 62.7185 64.0663L51.3535 61.6895C51.6198 61.5453 51.8685 61.3691 52.0753 61.1424L62.1462 50.1354C62.6536 49.5814 62.9123 48.8337 62.8558 48.0844C62.7986 47.3351 62.43 46.6355 61.8463 46.1639L49.6101 36.296L65.2074 39.5174C65.2699 39.5304 65.331 39.5365 65.3905 39.5365C65.8086 39.5365 66.1825 39.2435 66.271 38.8177C66.3717 38.3317 66.0589 37.8541 65.5713 37.7541L45.1076 33.5294L35.1939 24.9311L39.9527 2.18365L74.1666 9.33986C75.2813 9.57334 76.2389 10.2272 76.8623 11.1802C77.4879 12.134 77.7023 13.2731 77.4688 14.3887Z" fill="#0085FF"/>
<path id="Vector_2" d="M70.4118 18.3792L43.8211 12.6315C43.3359 12.5285 42.8567 12.8352 42.7507 13.3205C42.6454 13.8065 42.9551 14.2857 43.4412 14.3902L70.0318 20.1379C70.0959 20.1516 70.16 20.1593 70.2234 20.1593C70.6384 20.1593 71.0108 19.8709 71.1023 19.4489C71.2069 18.9629 70.8978 18.4837 70.4118 18.3792Z" fill="#0085FF"/>
<path id="Vector_3" d="M67.9961 28.0679L41.4047 22.3202C40.9217 22.2164 40.4395 22.5239 40.3342 23.0092C40.2297 23.4952 40.5387 23.9744 41.0247 24.0797L67.6162 29.8266C67.6795 29.8411 67.7436 29.848 67.8069 29.848C68.222 29.848 68.5951 29.5596 68.6859 29.1376C68.7912 28.6516 68.4822 28.1739 67.9961 28.0679Z" fill="#0085FF"/>
</g>
<defs>
<clipPath id="clip0_3_5496">
<rect width="80" height="80" fill="white"/>
</clipPath>
</defs>
</svg>
