<svg width="81" height="80" viewBox="0 0 81 80" fill="none" xmlns="http://www.w3.org/2000/svg">
<g id="001-bus" clip-path="url(#clip0_38_116)">
<g id="Group">
<g id="Group_2">
<path id="Vector" d="M60.9841 43.5186H58.9237C58.2759 43.5186 57.7509 44.0436 57.7509 44.6914C57.751 45.3392 58.276 45.8642 58.9237 45.8642H60.9841C61.6319 45.8642 62.1569 45.3392 62.1569 44.6914C62.1569 44.0436 61.6319 43.5186 60.9841 43.5186Z" fill="#0085FF"/>
</g>
</g>
<g id="Group_3">
<g id="Group_4">
<path id="Vector_2" d="M80.4963 36.8442C80.4884 36.6467 80.4661 36.4495 80.4278 36.2565L77.8002 22.9584C77.8 22.958 77.7999 22.9575 77.7999 22.957L77.2783 20.3175C76.928 18.5447 75.362 17.2578 73.5549 17.2578H4.3064C2.2075 17.2577 0.5 18.9653 0.5 21.0642V52.4071C0.5 54.506 2.2075 56.2135 4.3064 56.2135H8.02124C8.58764 59.9052 11.7853 62.7418 15.6329 62.7418C19.4806 62.7418 22.6782 59.9054 23.2446 56.2135H26.2649C26.9126 56.2135 27.4378 55.6885 27.4378 55.0407C27.4378 54.3929 26.9128 53.8679 26.2649 53.8679H23.2445C22.6781 50.1763 19.4804 47.3398 15.6328 47.3398C11.7851 47.3398 8.58748 50.1762 8.02108 53.8679H4.3064C3.50078 53.8679 2.84546 53.2124 2.84546 52.407V21.0642C2.84546 20.2586 3.50078 19.6031 4.3064 19.6031H73.5547C74.245 19.6031 74.8431 20.0947 74.9772 20.772L75.2224 22.013H59.824C58.6808 22.013 57.7508 22.943 57.7508 24.0861V36.7353C57.7508 37.9253 58.3205 39.0542 59.2747 39.755C61.5718 41.4425 66.7075 43.5278 78.1542 44.044V51.9142C78.1542 52.9917 77.2777 53.8682 76.2002 53.8682H72.9785C72.4119 50.1767 69.2144 47.3401 65.3666 47.3401C61.5189 47.3401 58.3215 50.1765 57.7549 53.8682H31.722C31.0743 53.8682 30.5492 54.3932 30.5492 55.041C30.5492 55.6888 31.0742 56.2138 31.722 56.2138H57.7552C58.3216 59.9055 61.5193 62.7421 65.3669 62.7421C69.2147 62.7421 72.4122 59.9057 72.9788 56.2138H76.2005C78.5713 56.2138 80.5 54.2851 80.5 51.9143V36.9926V36.9925C80.4998 36.9428 80.4981 36.8934 80.4963 36.8442ZM15.6329 49.6856C18.5859 49.6856 20.9882 52.0879 20.9882 55.0409C20.9882 57.9938 18.5859 60.3963 15.6329 60.3963C12.68 60.3963 10.2776 57.9938 10.2776 55.0409C10.2776 52.0879 12.68 49.6856 15.6329 49.6856ZM65.3669 60.3962C62.4139 60.3962 60.0116 57.9937 60.0116 55.0407C60.0116 52.0877 62.4139 49.6854 65.3669 49.6854C68.3199 49.6854 70.7224 52.0877 70.7224 55.0407C70.7222 57.9937 68.3199 60.3962 65.3669 60.3962ZM60.0964 36.7353V24.3586H75.6858L78.1267 36.7118C78.1311 36.7339 78.1333 36.7564 78.1366 36.7787C78.1463 36.8439 78.1525 36.9097 78.1533 36.9754C78.1533 36.9812 78.1541 36.9868 78.1541 36.9925V41.696C66.7943 41.1723 62.3289 39.0882 60.6635 37.8646C60.3085 37.6039 60.0964 37.1817 60.0964 36.7353Z" fill="#0085FF"/>
</g>
</g>
<g id="Group_5">
<g id="Group_6">
<path id="Vector_3" d="M27.1932 22.0129H7.56199C6.53059 22.0129 5.69153 22.852 5.69153 23.8834V37.0803C5.69153 38.1117 6.53059 38.9507 7.56199 38.9507H27.1932C28.2246 38.9507 29.0637 38.1117 29.0637 37.0803V23.8834C29.0637 22.852 28.2246 22.0129 27.1932 22.0129ZM16.2048 36.6053H8.03699V24.3584H16.2048V36.6053ZM26.7182 36.6053H18.5504V24.3584H26.7182V36.6053Z" fill="#0085FF"/>
</g>
</g>
<g id="Group_7">
<g id="Group_8">
<path id="Vector_4" d="M52.9371 22.0129H33.3057C32.2743 22.0129 31.4352 22.852 31.4352 23.8834V37.0803C31.4352 38.1117 32.2743 38.9507 33.3057 38.9507H52.9371C53.9685 38.9507 54.8075 38.1117 54.8075 37.0803V23.8834C54.8075 22.852 53.9685 22.0129 52.9371 22.0129ZM52.4621 36.6053H44.2941V32.1604C44.2941 31.5126 43.7691 30.9876 43.1213 30.9876C42.4735 30.9876 41.9485 31.5126 41.9485 32.1604V36.6053H33.7807V24.3584H41.9485V26.7034C41.9485 27.3512 42.4735 27.8762 43.1213 27.8762C43.7691 27.8762 44.2941 27.3512 44.2941 26.7034V24.3584H52.4621V36.6053Z" fill="#0085FF"/>
</g>
</g>
</g>
<defs>
<clipPath id="clip0_38_116">
<rect width="80" height="80" fill="white" transform="translate(0.5)"/>
</clipPath>
</defs>
</svg>
