<svg width="81" height="80" viewBox="0 0 81 80" fill="none" xmlns="http://www.w3.org/2000/svg">
<g id="003-visa">
<g id="Group">
<path id="Vector" d="M73.4256 10.1343H7.57438C6.5638 10.1361 5.59513 10.5384 4.88054 11.2529C4.16595 11.9675 3.76369 12.9362 3.76188 13.9468V66.048C3.76369 67.0592 4.16638 68.0283 4.88164 68.743C5.59691 69.4576 6.56638 69.8595 7.5775 69.8605H73.4256C74.4367 69.8595 75.4062 69.4576 76.1215 68.743C76.8367 68.0283 77.2394 67.0592 77.2413 66.048V13.9493C77.2401 12.9377 76.8377 11.9679 76.1224 11.2527C75.407 10.5375 74.4372 10.1353 73.4256 10.1343ZM7.57438 12.3218H73.4256C73.8567 12.3223 74.2701 12.4935 74.5752 12.7981C74.8804 13.1026 75.0524 13.5157 75.0538 13.9468V34.4962H5.94625V13.9493C5.94691 13.5177 6.11868 13.1041 6.42389 12.799C6.72909 12.4939 7.14283 12.3223 7.57438 12.3218ZM73.4256 67.678H7.57438C7.14326 67.6775 6.7299 67.5063 6.42477 67.2017C6.11963 66.8972 5.94757 66.4841 5.94625 66.053V36.6837H75.0538V66.0505C75.0531 66.4821 74.8813 66.8957 74.5761 67.2008C74.2709 67.5059 73.8572 67.6775 73.4256 67.678Z" fill="#0085FF"/>
<path id="Vector_2" d="M24.2756 29.8655C24.3555 30.0709 24.4956 30.2473 24.6775 30.3718C24.8594 30.4962 25.0746 30.5628 25.295 30.5628C25.5154 30.5628 25.7306 30.4962 25.9125 30.3718C26.0944 30.2473 26.2345 30.0709 26.3144 29.8655L31.0725 17.6467C31.1777 17.3764 31.1711 17.0753 31.0543 16.8098C30.9375 16.5442 30.72 16.3359 30.4497 16.2308C30.1793 16.1256 29.8783 16.1321 29.6127 16.2489C29.3472 16.3657 29.1389 16.5832 29.0337 16.8536L25.295 26.4548L21.5556 16.8536C21.5057 16.7168 21.429 16.5914 21.33 16.4847C21.231 16.3779 21.1117 16.292 20.979 16.232C20.8464 16.172 20.7031 16.1391 20.5576 16.1352C20.412 16.1312 20.2672 16.1564 20.1315 16.2092C19.9958 16.262 19.872 16.3414 19.7674 16.4426C19.6628 16.5439 19.5795 16.665 19.5223 16.7989C19.4651 16.9328 19.4352 17.0767 19.4344 17.2223C19.4336 17.3679 19.4618 17.5122 19.5175 17.6467L24.2756 29.8655Z" fill="#0085FF"/>
<path id="Vector_3" d="M50.55 30.5869C50.684 30.6389 50.827 30.6639 50.9707 30.6607C51.1144 30.6574 51.2561 30.6258 51.3876 30.5678C51.5191 30.5097 51.6379 30.4264 51.7372 30.3224C51.8365 30.2184 51.9143 30.0959 51.9662 29.9619L53.04 27.2044H58.37L59.4444 29.9619C59.4943 30.0986 59.571 30.2241 59.67 30.3308C59.769 30.4375 59.8883 30.5234 60.021 30.5834C60.1536 30.6435 60.2969 30.6764 60.4424 30.6803C60.588 30.6842 60.7328 30.659 60.8685 30.6062C61.0042 30.5534 61.128 30.4741 61.2326 30.3728C61.3372 30.2716 61.4205 30.1505 61.4777 30.0166C61.5349 29.8827 61.5648 29.7387 61.5656 29.5931C61.5664 29.4476 61.5382 29.3033 61.4825 29.1687L56.7244 16.95C56.6445 16.7446 56.5044 16.5681 56.3225 16.4437C56.1406 16.3193 55.9254 16.2527 55.705 16.2527C55.4846 16.2527 55.2694 16.3193 55.0875 16.4437C54.9056 16.5681 54.7655 16.7446 54.6856 16.95L49.9275 29.1687C49.875 29.3027 49.8494 29.4457 49.8523 29.5896C49.8552 29.7334 49.8865 29.8753 49.9443 30.0071C50.0021 30.1388 50.0854 30.2579 50.1893 30.3574C50.2933 30.4569 50.4158 30.5348 50.55 30.5869ZM55.705 20.3631L57.5175 25.0194H53.8925L55.705 20.3631Z" fill="#0085FF"/>
<path id="Vector_4" d="M35.3356 30.5625C35.4793 30.5626 35.6215 30.5343 35.7543 30.4794C35.887 30.4245 36.0076 30.3439 36.1092 30.2423C36.2108 30.1407 36.2913 30.0201 36.3463 29.8874C36.4012 29.7547 36.4295 29.6124 36.4294 29.4688V17.25C36.4294 16.9599 36.3141 16.6817 36.109 16.4766C35.9039 16.2715 35.6257 16.1562 35.3356 16.1562C35.0455 16.1562 34.7673 16.2715 34.5622 16.4766C34.3571 16.6817 34.2419 16.9599 34.2419 17.25V29.4688C34.2419 29.7588 34.3571 30.037 34.5622 30.2421C34.7673 30.4473 35.0455 30.5625 35.3356 30.5625Z" fill="#0085FF"/>
<path id="Vector_5" d="M43.7538 28.3611H40.2981C40.008 28.3611 39.7298 28.4763 39.5247 28.6814C39.3196 28.8865 39.2044 29.1647 39.2044 29.4548C39.2044 29.7449 39.3196 30.0231 39.5247 30.2282C39.7298 30.4333 40.008 30.5486 40.2981 30.5486H43.7538C44.635 30.5476 45.4799 30.1971 46.1031 29.574C46.7263 28.9509 47.077 28.1061 47.0781 27.2248V25.5898C47.077 24.7086 46.7263 23.8637 46.1031 23.2406C45.4799 22.6175 44.635 22.2671 43.7538 22.2661H42.5288C42.2273 22.2657 41.9384 22.1459 41.7252 21.9327C41.5121 21.7196 41.3922 21.4306 41.3919 21.1292V19.6917C41.3922 19.3902 41.5121 19.1012 41.7252 18.888C41.9383 18.6747 42.2273 18.5547 42.5288 18.5542H45.9844C46.2745 18.5542 46.5527 18.439 46.7578 18.2338C46.9629 18.0287 47.0781 17.7505 47.0781 17.4604C47.0781 17.1704 46.9629 16.8922 46.7578 16.6871C46.5527 16.4819 46.2745 16.3667 45.9844 16.3667H42.5288C41.6473 16.3679 40.8023 16.7186 40.1791 17.3419C39.5559 17.9652 39.2054 18.8103 39.2044 19.6917V21.1292C39.2055 22.0105 39.5562 22.8554 40.1793 23.4786C40.8025 24.1018 41.6474 24.4524 42.5288 24.4536H43.7538C44.0551 24.4537 44.3441 24.5735 44.5572 24.7865C44.7704 24.9996 44.8903 25.2885 44.8906 25.5898V27.2248C44.8903 27.5262 44.7704 27.8151 44.5572 28.0281C44.3441 28.2412 44.0551 28.3609 43.7538 28.3611Z" fill="#0085FF"/>
<path id="Vector_6" d="M26.2275 51.0162C26.9248 50.1601 27.365 49.1237 27.4971 48.0275C27.6292 46.9313 27.4478 45.82 26.9738 44.8228C26.4999 43.8255 25.7528 42.983 24.8194 42.3932C23.886 41.8033 22.8045 41.4902 21.7003 41.4902C20.5961 41.4902 19.5146 41.8033 18.5812 42.3932C17.6478 42.983 16.9008 43.8255 16.4268 44.8228C15.9529 45.82 15.7714 46.9313 15.9035 48.0275C16.0356 49.1237 16.4758 50.1601 17.1731 51.0162C16.0035 51.1457 14.9226 51.7017 14.1371 52.578C13.3517 53.4543 12.9168 54.5894 12.9156 55.7662V61.6731C12.9156 61.9632 13.0309 62.2414 13.236 62.4465C13.4411 62.6516 13.7193 62.7668 14.0094 62.7668H29.3913C29.6813 62.7668 29.9595 62.6516 30.1646 62.4465C30.3698 62.2414 30.485 61.9632 30.485 61.6731V55.7637C30.4832 54.5873 30.0481 53.4529 29.2627 52.5771C28.4773 51.7013 27.3967 51.1456 26.2275 51.0162ZM21.7 43.6875C22.4222 43.6873 23.1282 43.9014 23.7288 44.3025C24.3293 44.7037 24.7974 45.2739 25.0738 45.9411C25.3503 46.6083 25.4226 47.3425 25.2817 48.0509C25.1409 48.7592 24.7931 49.4099 24.2825 49.9205C23.7718 50.4312 23.1211 50.779 22.4128 50.9198C21.7045 51.0607 20.9703 50.9883 20.3031 50.7119C19.6359 50.4355 19.0656 49.9674 18.6645 49.3668C18.2633 48.7663 18.0493 48.0603 18.0494 47.3381C18.0505 46.3702 18.4355 45.4423 19.1199 44.758C19.8043 44.0736 20.7322 43.6886 21.7 43.6875ZM28.2975 60.5768H15.1031V55.7643C15.104 55.0778 15.377 54.4197 15.8625 53.9343C16.3479 53.4489 17.006 53.1758 17.6925 53.175H25.7081C26.3946 53.1758 27.0528 53.4489 27.5382 53.9343C28.0236 54.4197 28.2967 55.0778 28.2975 55.7643V60.5768Z" fill="#0085FF"/>
<path id="Vector_7" d="M66.5875 42.625H47.15C46.8599 42.625 46.5817 42.7402 46.3766 42.9454C46.1715 43.1505 46.0562 43.4287 46.0562 43.7188C46.0562 44.0088 46.1715 44.287 46.3766 44.4922C46.5817 44.6973 46.8599 44.8125 47.15 44.8125H66.5875C66.8776 44.8125 67.1558 44.6973 67.3609 44.4922C67.566 44.287 67.6812 44.0088 67.6812 43.7188C67.6812 43.4287 67.566 43.1505 67.3609 42.9454C67.1558 42.7402 66.8776 42.625 66.5875 42.625Z" fill="#0085FF"/>
<path id="Vector_8" d="M66.5875 50.9868H47.15C46.8599 50.9868 46.5817 51.102 46.3766 51.3072C46.1715 51.5123 46.0562 51.7905 46.0562 52.0806C46.0562 52.3706 46.1715 52.6488 46.3766 52.854C46.5817 53.0591 46.8599 53.1743 47.15 53.1743H66.5875C66.8776 53.1743 67.1558 53.0591 67.3609 52.854C67.566 52.6488 67.6812 52.3706 67.6812 52.0806C67.6812 51.7905 67.566 51.5123 67.3609 51.3072C67.1558 51.102 66.8776 50.9868 66.5875 50.9868Z" fill="#0085FF"/>
<path id="Vector_9" d="M66.5875 59.3474H56.395C56.1049 59.3474 55.8267 59.4626 55.6216 59.6678C55.4165 59.8729 55.3013 60.1511 55.3013 60.4412C55.3013 60.7312 55.4165 61.0094 55.6216 61.2146C55.8267 61.4197 56.1049 61.5349 56.395 61.5349H66.5875C66.8776 61.5349 67.1558 61.4197 67.3609 61.2146C67.566 61.0094 67.6813 60.7312 67.6813 60.4412C67.6813 60.1511 67.566 59.8729 67.3609 59.6678C67.1558 59.4626 66.8776 59.3474 66.5875 59.3474Z" fill="#0085FF"/>
</g>
</g>
</svg>
