<svg width="80" height="80" viewBox="0 0 80 80" fill="none" xmlns="http://www.w3.org/2000/svg">
<g id="tourism 1">
<g id="OUTLINE">
<path id="Vector" d="M39.0666 28.2673C27.8345 40.8568 20.5507 56.4701 18.1209 73.1659L17.5131 77.319L19.9869 77.6809L20.5946 73.5278C22.954 57.3157 30.0268 42.1547 40.9334 29.9299L39.0666 28.2673Z" fill="#0085FF"/>
<path id="Vector_2" d="M58.75 75H55V77.5H58.75V75Z" fill="#0085FF"/>
<path id="Vector_3" d="M73.75 35H68.75V21.25C68.7502 20.1191 68.3669 19.0216 67.6629 18.1367C66.9588 17.2518 65.9755 16.6317 64.8736 16.3777C63.7716 16.1237 62.6161 16.2508 61.5957 16.7383C60.5753 17.2257 59.7503 18.0447 59.2555 19.0615C58.2796 18.1533 57.2511 17.3034 56.1753 16.516C59.8244 14.0203 63.6652 11.8171 67.6618 9.92703L65.7208 13.8089L67.9569 14.927L72.1536 6.53394L63.7604 2.33716L62.6422 4.57318L67.7535 7.12884C62.9205 9.32833 58.3007 11.969 53.9528 15.0173C52.4246 14.0731 50.8234 13.2525 49.1646 12.5634C51.3211 10.1349 52.5084 6.99772 52.5 3.74997V2.49997H51.25C49.5 2.4952 47.7664 2.83757 46.1495 3.50727C44.5327 4.17696 43.0647 5.16068 41.8306 6.40149L39.699 8.5333L29.4948 4.45157C28.8135 4.17853 28.067 4.11164 27.348 4.25921C26.629 4.40678 25.9691 4.76231 25.4505 5.28165L21.6943 9.0379L26.1773 11.5284C20.3836 13.3414 15.1859 16.6831 11.1317 21.2016C7.07747 25.7202 4.3167 31.2484 3.14012 37.204C1.96353 43.1597 2.41469 49.3224 4.44607 55.0432C6.47744 60.764 10.0139 65.8312 14.6829 69.7111L16.2814 67.7888C14.404 66.2274 12.7149 64.4525 11.2485 62.5H11.4646C12.7333 62.4985 13.9497 61.9939 14.8468 61.0968C15.7439 60.1996 16.2486 58.9832 16.25 57.7145C16.2492 57.4143 16.3079 57.1168 16.4228 56.8394C16.5377 56.562 16.7065 56.3102 16.9194 56.0984L19.8485 53.1694C20.2942 52.726 20.6476 52.1986 20.8882 51.6178C21.1288 51.0369 21.2517 50.4141 21.25 49.7854V48.9645C21.2517 48.3358 21.1288 47.713 20.8882 47.1322C20.6476 46.5513 20.2942 46.0239 19.8485 45.5806L18.384 44.116C17.4858 43.2199 16.2688 42.7167 15 42.7167C13.7312 42.7167 12.5143 43.2199 11.6161 44.116L11.4015 44.3306C11.1898 44.5435 10.938 44.7123 10.6606 44.8272C10.3832 44.9421 10.0857 45.0008 9.78548 45H5.02771C5.01123 44.5844 5.00001 44.168 5.00001 43.75C5.00046 42.4965 5.07628 41.2443 5.22706 40H9.84834C10.62 40 11.3744 39.7711 12.016 39.3424C12.6576 38.9137 13.1577 38.3043 13.453 37.5914C13.7483 36.8784 13.8256 36.0939 13.675 35.3371C13.5245 34.5802 13.1529 33.885 12.6073 33.3394L8.55573 29.2878C10.6493 25.2735 13.5904 21.7621 17.1753 18.9969C20.7602 16.2317 24.9032 14.2786 29.3176 13.2731L32.9443 15.2879L25 23.2322V26.9037L19.699 24.7833L14.0257 30.4565L21.5384 33.4616L24.5435 40.9742L30.2167 35.301L28.0963 30H31.7677L39.7121 22.0556L45.9621 33.3056L49.7183 29.5495C50.2377 29.0309 50.5933 28.3711 50.7409 27.652C50.8885 26.933 50.8215 26.1865 50.5484 25.5052L46.4667 15.301L47.2679 14.4999C48.8157 15.0844 50.3143 15.7918 51.7493 16.6152C51.2438 16.9941 50.7418 17.3778 50.2435 17.7665L51.7865 19.7334C52.5199 19.1581 53.2627 18.5954 54.015 18.0455C55.7223 19.2267 57.3084 20.5741 58.75 22.068V35H53.75C52.7558 35.0011 51.8026 35.3966 51.0996 36.0996C50.3966 36.8026 50.0012 37.7558 50 38.75V68.75C49.9995 69.6976 50.3592 70.61 51.0062 71.3024C49.481 72.1207 47.8901 72.8101 46.25 73.3632V72.2854C46.2514 71.7928 46.155 71.3047 45.9665 70.8496C45.7779 70.3944 45.501 69.9812 45.1517 69.6338L42.8662 67.3483C42.7497 67.2325 42.6574 67.0948 42.5945 66.9431C42.5317 66.7914 42.4996 66.6287 42.5 66.4645V65C42.5004 64.6686 42.6322 64.3508 42.8666 64.1165C43.1009 63.8822 43.4186 63.7503 43.75 63.75C44.7442 63.7488 45.6974 63.3534 46.4004 62.6504C47.1034 61.9473 47.4989 60.9942 47.5 60V56.25C47.4989 55.2558 47.1034 54.3026 46.4004 53.5996C45.6974 52.8966 44.7442 52.5011 43.75 52.5H41.0355C40.5428 52.4986 40.0548 52.595 39.5996 52.7835C39.1445 52.9721 38.7312 53.249 38.3838 53.5983L32.3483 59.6338C32.2326 59.7502 32.0949 59.8426 31.9431 59.9054C31.7914 59.9683 31.6288 60.0004 31.4646 60H30C29.0058 60.0011 28.0526 60.3966 27.3496 61.0996C26.6466 61.8026 26.2511 62.7558 26.25 63.75V66.4645C26.2487 66.9572 26.345 67.4452 26.5336 67.9004C26.7221 68.3555 26.999 68.7688 27.3483 69.1162L28.3838 70.1516C28.5003 70.2674 28.5926 70.4051 28.6555 70.5568C28.7183 70.7085 28.7505 70.8712 28.75 71.0354V74.0947C27.2078 73.7147 25.6971 73.2168 24.2311 72.6054L23.2689 74.9128C28.2072 76.9643 33.5617 77.8152 38.8927 77.3958C44.2237 76.9764 49.3792 75.2985 53.9359 72.5H73.75C74.7442 72.4988 75.6974 72.1034 76.4004 71.4004C77.1034 70.6973 77.4989 69.7442 77.5 68.75V38.75C77.4989 37.7558 77.1034 36.8026 76.4004 36.0996C75.6974 35.3966 74.7442 35.0011 73.75 35ZM9.78548 47.5C10.4142 47.5017 11.037 47.3787 11.6178 47.1381C12.1987 46.8976 12.7261 46.5442 13.1694 46.0984L13.384 45.8839C13.5962 45.6716 13.8481 45.5033 14.1254 45.3884C14.4027 45.2735 14.6999 45.2144 15 45.2144C15.3002 45.2144 15.5974 45.2735 15.8746 45.3884C16.1519 45.5033 16.4039 45.6716 16.6161 45.8839L18.0806 47.3484C18.2935 47.5602 18.4623 47.812 18.5772 48.0894C18.6921 48.3668 18.7508 48.6643 18.75 48.9645V49.7854C18.7508 50.0857 18.6921 50.3831 18.5772 50.6605C18.4623 50.9379 18.2935 51.1898 18.0806 51.4015L15.1515 54.3306C14.7058 54.7739 14.3524 55.3013 14.1118 55.8822C13.8713 56.463 13.7483 57.0858 13.75 57.7145C13.7493 58.3204 13.5083 58.9014 13.0799 59.3298C12.6514 59.7583 12.0705 59.9993 11.4646 60H9.55018C7.23016 56.1911 5.75565 51.9283 5.22648 47.5H9.78548ZM10.8394 35.1072C11.0355 35.3032 11.169 35.553 11.2231 35.8249C11.2772 36.0968 11.2494 36.3786 11.1433 36.6348C11.0373 36.8909 10.8576 37.1098 10.6271 37.2638C10.3966 37.4178 10.1256 37.5 9.84834 37.5H5.6318C6.03866 35.5104 6.63921 33.5653 7.42486 31.6927L10.8394 35.1072ZM25.4566 36.5257L23.4616 31.5384L18.4743 29.5434L20.3011 27.7166L25.2884 29.7116L27.2833 34.6989L25.4566 36.5257ZM46.8306 11.4015L43.5333 14.6989L48.2272 26.4335C48.3183 26.6606 48.3406 26.9095 48.2914 27.1492C48.2422 27.3889 48.1236 27.6088 47.9504 27.7816L46.538 29.1943L40.2879 17.9443L30.7323 27.5H27.5V24.2677L37.0557 14.712L29.7689 10.6638L29.7611 10.6234C29.7452 10.6265 29.7296 10.6301 29.7138 10.6332L25.8057 8.46204L27.2183 7.04954C27.3912 6.87638 27.6111 6.75783 27.8508 6.70862C28.0905 6.65941 28.3393 6.68171 28.5664 6.77274L40.3011 11.4666L43.5985 8.16938C45.2989 6.45915 47.5255 5.37107 49.9196 5.08039C49.6289 7.4745 48.5408 9.70108 46.8306 11.4015ZM43.75 74.0912C39.6595 75.0961 35.4088 75.2697 31.25 74.6016V71.0354C31.2514 70.5428 31.155 70.0547 30.9665 69.5996C30.7779 69.1444 30.501 68.7312 30.1517 68.3838L29.1162 67.3483C28.9998 67.2325 28.9074 67.0948 28.8445 66.9431C28.7817 66.7914 28.7496 66.6287 28.75 66.4645V63.75C28.7504 63.4186 28.8822 63.1008 29.1165 62.8665C29.3509 62.6322 29.6686 62.5003 30 62.5H31.4646C31.9572 62.5013 32.4452 62.4049 32.9004 62.2164C33.3556 62.0279 33.7688 61.7509 34.1162 61.4016L40.1517 55.3662C40.2675 55.2497 40.4052 55.1574 40.5569 55.0945C40.7086 55.0316 40.8713 54.9995 41.0355 55H43.75C44.0814 55.0003 44.3991 55.1322 44.6335 55.3665C44.8678 55.6008 44.9996 55.9186 45 56.25V60C44.9996 60.3314 44.8678 60.6491 44.6335 60.8834C44.3991 61.1178 44.0814 61.2496 43.75 61.25C42.7558 61.2511 41.8026 61.6466 41.0996 62.3496C40.3966 63.0526 40.0011 64.0058 40 65V66.4645C39.9987 66.9572 40.095 67.4452 40.2836 67.9004C40.4721 68.3555 40.749 68.7688 41.0983 69.1162L43.3838 71.4016C43.5003 71.5174 43.5926 71.6551 43.6555 71.8068C43.7183 71.9585 43.7505 72.1212 43.75 72.2854V74.0912ZM61.25 21.25C61.25 20.5869 61.5134 19.951 61.9822 19.4822C62.4511 19.0134 63.087 18.75 63.75 18.75C64.4131 18.75 65.0489 19.0134 65.5178 19.4822C65.9866 19.951 66.25 20.5869 66.25 21.25V35H61.25V21.25ZM75 68.75C74.9996 69.0814 74.8678 69.3991 74.6335 69.6334C74.3991 69.8678 74.0814 69.9996 73.75 70H53.75C53.4186 69.9996 53.1009 69.8678 52.8666 69.6334C52.6322 69.3991 52.5004 69.0814 52.5 68.75V38.75C52.5004 38.4186 52.6322 38.1008 52.8666 37.8665C53.1009 37.6322 53.4186 37.5003 53.75 37.5H73.75C74.0814 37.5003 74.3991 37.6322 74.6335 37.8665C74.8678 38.1008 74.9996 38.4186 75 38.75V68.75Z" fill="#0085FF"/>
<path id="Vector_4" d="M73.75 75H70V77.5H73.75V75Z" fill="#0085FF"/>
<path id="Vector_5" d="M58.75 40H56.25V67.5H58.75V40Z" fill="#0085FF"/>
<path id="Vector_6" d="M65 40H62.5V67.5H65V40Z" fill="#0085FF"/>
<path id="Vector_7" d="M71.25 40H68.75V67.5H71.25V40Z" fill="#0085FF"/>
<path id="Vector_8" d="M37.5 41.25V41.9821L34.4821 45C34.2493 45.2316 34.0647 45.5071 33.939 45.8105C33.8134 46.114 33.7491 46.4393 33.75 46.7677V47.5C33.7508 48.1628 34.0144 48.7983 34.4831 49.2669C34.9518 49.7356 35.5872 49.9992 36.25 50H39.4823C39.8107 50.0009 40.136 49.9366 40.4395 49.811C40.7429 49.6853 41.0184 49.5007 41.25 49.2679L43.0177 47.5H45C45.6628 47.4992 46.2983 47.2356 46.7669 46.7669C47.2356 46.2983 47.4993 45.6628 47.5 45V41.25C47.4993 40.5872 47.2356 39.9517 46.7669 39.4831C46.2983 39.0144 45.6628 38.7508 45 38.75H40C39.3372 38.7508 38.7018 39.0144 38.2331 39.4831C37.7644 39.9517 37.5008 40.5872 37.5 41.25ZM40 41.9823V41.25H45V45H43.0177C42.6893 44.9991 42.364 45.0634 42.0606 45.189C41.7571 45.3147 41.4816 45.4993 41.25 45.7321L39.4823 47.5H36.25V46.7679L39.2679 43.75C39.5007 43.5184 39.6853 43.2429 39.811 42.9395C39.9367 42.636 40.0009 42.3107 40 41.9823Z" fill="#0085FF"/>
</g>
</g>
</svg>
