<svg width="80" height="80" viewBox="0 0 80 80" fill="none" xmlns="http://www.w3.org/2000/svg">
<g id="002-ticket-flight">
<g id="Layer 42">
<path id="Vector" d="M42.7012 19.6774C42.4816 19.6776 42.2658 19.62 42.0755 19.5102C41.8853 19.4005 41.7273 19.2426 41.6175 19.0524L40.9925 17.9687C40.8293 17.6817 40.7863 17.3419 40.8728 17.0233C40.9593 16.7048 41.1683 16.4334 41.4541 16.2683C41.74 16.1033 42.0795 16.058 42.3986 16.1424C42.7178 16.2267 42.9906 16.4339 43.1575 16.7187L43.7825 17.8024C43.8921 17.9923 43.9499 18.2078 43.95 18.4271C43.95 18.6464 43.8924 18.8619 43.7828 19.0518C43.6733 19.2418 43.5156 19.3997 43.3258 19.5095C43.1359 19.6193 42.9206 19.6772 42.7012 19.6774Z" fill="#0085FF"/>
<path id="Vector_2" d="M46.5163 33.7499L40.7825 33.6537C39.6948 33.6318 38.6214 33.9034 37.675 34.4399L29.0725 28.7062C28.4916 28.3159 27.8125 28.0972 27.113 28.0751C26.4135 28.053 25.7219 28.2284 25.1175 28.5812L23.215 29.6799C23.055 29.7723 22.9175 29.8991 22.8123 30.051C22.7072 30.2029 22.637 30.3763 22.6069 30.5586C22.5767 30.7409 22.5874 30.9276 22.6381 31.1053C22.6888 31.283 22.7782 31.4472 22.9 31.5862L29.9 39.5612L26.5125 41.8112L24.1813 40.2299C23.5971 39.8373 22.9149 39.6156 22.2115 39.5897C21.5081 39.5639 20.8114 39.735 20.2 40.0837L19.3925 40.5512C19.1054 40.7169 18.8959 40.99 18.8101 41.3102C18.7243 41.6304 18.7692 41.9716 18.935 42.2587L20.9838 45.8087L18.955 48.0874C18.7806 48.2836 18.6723 48.5297 18.6456 48.7909C18.6189 49.0521 18.6751 49.315 18.8063 49.5424L20.0563 51.7074C20.1661 51.8976 20.3241 52.0555 20.5143 52.1653C20.7046 52.275 20.9204 52.3326 21.14 52.3324C21.2239 52.3321 21.3077 52.3237 21.39 52.3074L24.38 51.6949L26.43 55.2449C26.5958 55.532 26.8688 55.7415 27.189 55.8273C27.5092 55.9131 27.8504 55.8682 28.1375 55.7024L28.945 55.2362C29.5531 54.8817 30.05 54.3642 30.3796 53.7422C30.7092 53.1202 30.8582 52.4184 30.81 51.7162L30.605 48.9062L34.25 47.0962L37.66 57.1412C37.7194 57.3163 37.8168 57.476 37.9453 57.6089C38.0738 57.7418 38.2302 57.8445 38.4032 57.9096C38.5762 57.9748 38.7615 58.0008 38.9458 57.9857C39.13 57.9706 39.3086 57.9149 39.4688 57.8224L41.3713 56.7237C41.9786 56.3761 42.4759 55.8646 42.8062 55.2476C43.1364 54.6306 43.2863 53.9331 43.2388 53.2349L42.5737 42.9174C43.5053 42.3617 44.2747 41.5712 44.805 40.6249L47.5888 35.6112C47.6947 35.4223 47.7497 35.2091 47.7484 34.9925C47.7472 34.7759 47.6897 34.5634 47.5815 34.3757C47.4734 34.1881 47.3184 34.0317 47.1316 33.922C46.9449 33.8123 46.7328 33.753 46.5163 33.7499ZM25.7838 31.0812L26.3675 30.7437C26.5694 30.6271 26.7999 30.5692 27.0329 30.5768C27.266 30.5843 27.4923 30.6568 27.6863 30.7862L35.3825 35.9112L31.9963 38.1612L25.7838 31.0812ZM22.7725 42.2949L24.2563 43.3024L22.93 44.1774L21.7413 42.1249C21.9152 42.0772 22.0975 42.0676 22.2755 42.097C22.4535 42.1263 22.6231 42.1938 22.7725 42.2949ZM21.4225 49.0724L22.2975 48.0862L23.0638 49.4124L21.7725 49.6774L21.4225 49.0724ZM28.3163 51.8987C28.3286 52.0784 28.3022 52.2587 28.2388 52.4274C28.1754 52.596 28.0765 52.7491 27.9488 52.8762L26.76 50.8174L28.1863 50.1087L28.3163 51.8987ZM40.1175 54.5587L39.5338 54.8962L36.5 45.9737L40.14 44.1662L40.735 53.3962C40.7516 53.6284 40.7024 53.8605 40.5932 54.0661C40.484 54.2717 40.3192 54.4424 40.1175 54.5587ZM42.6175 39.4062C42.2502 40.0707 41.689 40.6075 41.0088 40.9449L25.5088 48.6474L24.1838 46.3524L38.605 36.7787C39.2345 36.3516 39.9821 36.133 40.7425 36.1537L44.3925 36.2149L42.6175 39.4062Z" fill="#0085FF"/>
<path id="Vector_3" d="M76.725 34.8625L71.725 26.2C71.5609 25.9167 71.2912 25.7099 70.975 25.625C70.6542 25.5398 70.3128 25.5847 70.025 25.75C69.5983 25.9965 69.1271 26.1565 68.6385 26.2208C68.1499 26.2851 67.6535 26.2525 67.1775 26.1248C66.7015 25.9971 66.2554 25.7768 65.8646 25.4766C65.4738 25.1763 65.146 24.802 64.9 24.375C64.6535 23.9483 64.4935 23.4772 64.4292 22.9886C64.3649 22.5 64.3975 22.0035 64.5252 21.5275C64.6529 21.0516 64.8732 20.6054 65.1734 20.2146C65.4737 19.8238 65.848 19.4961 66.275 19.25C66.4169 19.1677 66.5408 19.0579 66.6396 18.9269C66.7384 18.796 66.8099 18.6466 66.85 18.4875C66.8949 18.3311 66.9069 18.167 66.8854 18.0057C66.8639 17.8444 66.8093 17.6892 66.725 17.55L61.725 8.88752C60.8962 7.45207 59.5311 6.40464 57.93 5.97565C56.3289 5.54667 54.623 5.77126 53.1875 6.60002L5.5625 34.1C4.12704 34.9289 3.07961 36.2939 2.65063 37.895C2.22164 39.4961 2.44623 41.202 3.275 42.6375L8.275 51.3C8.43908 51.5834 8.70877 51.7901 9.025 51.875C9.34576 51.9602 9.68719 51.9153 9.975 51.75C10.313 51.5673 10.6748 51.4326 11.05 51.35C11.179 51.7199 11.2466 52.1083 11.25 52.5C11.247 53.4937 10.851 54.4458 10.1484 55.1484C9.44575 55.851 8.49364 56.2471 7.5 56.25C7.16848 56.25 6.85053 56.3817 6.61611 56.6161C6.38169 56.8506 6.25 57.1685 6.25 57.5V67.5C6.25 69.1576 6.90848 70.7473 8.08058 71.9194C9.25268 73.0915 10.8424 73.75 12.5 73.75H67.5C69.1576 73.75 70.7473 73.0915 71.9194 71.9194C73.0915 70.7473 73.75 69.1576 73.75 67.5V57.5C73.75 57.1685 73.6183 56.8506 73.3839 56.6161C73.1495 56.3817 72.8315 56.25 72.5 56.25C71.5054 56.25 70.5516 55.8549 69.8483 55.1517C69.1451 54.4484 68.75 53.4946 68.75 52.5C68.75 51.5055 69.1451 50.5516 69.8483 49.8484C70.5516 49.1451 71.5054 48.75 72.5 48.75C72.8315 48.75 73.1495 48.6183 73.3839 48.3839C73.6183 48.1495 73.75 47.8315 73.75 47.5V43.8L74.4375 43.4C75.8729 42.5712 76.9204 41.2061 77.3494 39.605C77.7784 38.0039 77.5538 36.298 76.725 34.8625ZM12.5 71.25C11.5063 71.2471 10.5542 70.851 9.85162 70.1484C9.149 69.4458 8.75296 68.4937 8.75 67.5V58.625C10.1607 58.3349 11.4283 57.5673 12.3391 56.4516C13.2499 55.3359 13.7482 53.9403 13.75 52.5C13.75 52.25 13.725 52 13.7 51.75C14.2821 52.0738 14.7658 52.5489 15.1 53.125C15.3465 53.5518 15.5065 54.0229 15.5708 54.5115C15.6351 55.0001 15.6025 55.4965 15.4748 55.9725C15.3471 56.4485 15.1268 56.8946 14.8266 57.2854C14.5263 57.6762 14.152 58.004 13.725 58.25C13.5831 58.3323 13.4591 58.4422 13.3604 58.5731C13.2616 58.7041 13.1901 58.8535 13.15 59.0125C13.1051 59.169 13.0931 59.333 13.1146 59.4943C13.1361 59.6557 13.1907 59.8108 13.275 59.95L18.275 68.6125C18.9704 69.8062 20.0435 70.7342 21.325 71.25H12.5ZM71.25 46.375C69.8371 46.6619 68.5669 47.4284 67.6545 48.5447C66.7421 49.661 66.2437 51.0583 66.2437 52.5C66.2437 53.9417 66.7421 55.3391 67.6545 56.4553C68.5669 57.5716 69.8371 58.3381 71.25 58.625V67.5C71.247 68.4937 70.851 69.4458 70.1484 70.1484C69.4457 70.851 68.4936 71.2471 67.5 71.25H53.75V70C53.75 69.6685 53.6183 69.3506 53.3839 69.1161C53.1495 68.8817 52.8315 68.75 52.5 68.75C52.1685 68.75 51.8505 68.8817 51.6161 69.1161C51.3817 69.3506 51.25 69.6685 51.25 70V71.25H26.1125C26.3531 71.1485 26.5869 71.0316 26.8125 70.9L51.35 56.7375C51.4628 57.0024 51.6637 57.2202 51.9185 57.3541C52.1734 57.4881 52.4667 57.5299 52.7488 57.4726C53.031 57.4153 53.2847 57.2623 53.4671 57.0396C53.6495 56.8168 53.7494 56.5379 53.75 56.25V55.35L71.25 45.25V46.375ZM73.1875 41.2375L61.2875 48.1125L60.6625 47.025C60.4967 46.7366 60.2232 46.5258 59.902 46.4391C59.5809 46.3524 59.2384 46.3968 58.95 46.5625C58.6616 46.7283 58.4508 47.0018 58.3641 47.323C58.2773 47.6441 58.3217 47.9866 58.4875 48.275L59.1125 49.3625L25.5625 68.7375C25.1358 68.984 24.6646 69.144 24.176 69.2083C23.6875 69.2726 23.191 69.24 22.715 69.1123C22.239 68.9846 21.7929 68.7643 21.4021 68.4641C21.0113 68.1638 20.6835 67.7895 20.4375 67.3625L16 59.675C16.9243 58.8685 17.5824 57.8007 17.8875 56.6125C18.181 55.5224 18.1733 54.373 17.8651 53.287C17.557 52.2009 16.9599 51.2187 16.1377 50.4452C15.3154 49.6716 14.2986 49.1357 13.1957 48.8944C12.0929 48.6531 10.9452 48.7155 9.875 49.075L5.4375 41.3875C5.19099 40.9608 5.03101 40.4897 4.96671 40.0011C4.90241 39.5125 4.93504 39.016 5.06274 38.54C5.19044 38.0641 5.41071 37.6179 5.71094 37.2271C6.01118 36.8363 6.3855 36.5086 6.8125 36.2625L54.4375 8.76252C54.8642 8.51602 55.3354 8.35604 55.8239 8.29174C56.3125 8.22744 56.809 8.26007 57.285 8.38777C57.761 8.51547 58.2071 8.73573 58.5979 9.03597C58.9887 9.3362 59.3165 9.71052 59.5625 10.1375L64 17.825C63.0757 18.6316 62.4176 19.6994 62.1125 20.8875C61.819 21.9777 61.8267 23.127 62.1349 24.2131C62.443 25.2992 63.04 26.2813 63.8623 27.0549C64.6846 27.8284 65.7014 28.3644 66.8043 28.6057C67.9071 28.847 69.0548 28.7845 70.125 28.425L74.5625 36.1125C74.809 36.5392 74.969 37.0104 75.0333 37.499C75.0976 37.9876 75.065 38.484 74.9373 38.96C74.8096 39.436 74.5893 39.8821 74.289 40.2729C73.9888 40.6637 73.6145 40.9915 73.1875 41.2375Z" fill="#0085FF"/>
<path id="Vector_4" d="M44.1175 23.3825C44.2273 23.5727 44.3853 23.7306 44.5755 23.8403C44.7658 23.95 44.9816 24.0077 45.2012 24.0075C45.4209 24.0081 45.6367 23.9498 45.8262 23.8387C46.113 23.6729 46.3222 23.4001 46.408 23.0802C46.4938 22.7603 46.4491 22.4194 46.2837 22.1325L45.6587 21.05C45.4918 20.7652 45.219 20.558 44.8999 20.4737C44.5808 20.3893 44.2412 20.4346 43.9554 20.5996C43.6695 20.7647 43.4605 21.0361 43.3741 21.3546C43.2876 21.6732 43.3306 22.013 43.4937 22.3L44.1175 23.3825Z" fill="#0085FF"/>
<path id="Vector_5" d="M48.7825 26.4625L48.1575 25.38C47.9906 25.0953 47.7178 24.8881 47.3986 24.8037C47.0795 24.7194 46.74 24.7646 46.4541 24.9297C46.1683 25.0947 45.9593 25.3661 45.8728 25.6847C45.7863 26.0033 45.8293 26.3431 45.9925 26.63L46.6175 27.7125C46.7844 27.9973 47.0572 28.2045 47.3763 28.2888C47.6955 28.3732 48.035 28.3279 48.3209 28.1629C48.6067 27.9978 48.8157 27.7264 48.9022 27.4079C48.9887 27.0893 48.9456 26.7495 48.7825 26.4625Z" fill="#0085FF"/>
<path id="Vector_6" d="M51.2825 30.7926L50.6575 29.7101C50.4906 29.4253 50.2178 29.2182 49.8986 29.1338C49.5795 29.0494 49.24 29.0947 48.9541 29.2598C48.6683 29.4248 48.4593 29.6962 48.3728 30.0148C48.2863 30.3333 48.3293 30.6732 48.4925 30.9601L49.1175 32.0426C49.2844 32.3274 49.5572 32.5345 49.8763 32.6189C50.1955 32.7033 50.535 32.658 50.8209 32.4929C51.1067 32.3279 51.3157 32.0565 51.4022 31.7379C51.4887 31.4194 51.4456 31.0796 51.2825 30.7926Z" fill="#0085FF"/>
<path id="Vector_7" d="M53.7825 35.1251L53.1575 34.0426C52.9906 33.7579 52.7178 33.5507 52.3986 33.4663C52.0795 33.382 51.74 33.4272 51.4541 33.5923C51.1683 33.7573 50.9593 34.0287 50.8728 34.3473C50.7863 34.6658 50.8293 35.0057 50.9925 35.2926L51.6175 36.3751C51.7844 36.6599 52.0572 36.8671 52.3763 36.9514C52.6955 37.0358 53.035 36.9905 53.3209 36.8255C53.6067 36.6604 53.8157 36.389 53.9022 36.0705C53.9887 35.7519 53.9456 35.4121 53.7825 35.1251Z" fill="#0085FF"/>
<path id="Vector_8" d="M56.2825 39.4525L55.6575 38.37C55.4906 38.0853 55.2178 37.8781 54.8986 37.7937C54.5795 37.7094 54.24 37.7546 53.9541 37.9197C53.6683 38.0847 53.4593 38.3561 53.3728 38.6747C53.2863 38.9932 53.3293 39.3331 53.4925 39.62L54.1175 40.7025C54.2844 40.9873 54.5572 41.1944 54.8763 41.2788C55.1955 41.3632 55.535 41.3179 55.8209 41.1529C56.1067 40.9878 56.3157 40.7164 56.4022 40.3978C56.4887 40.0793 56.4456 39.7395 56.2825 39.4525Z" fill="#0085FF"/>
<path id="Vector_9" d="M58.1575 42.7001C57.9906 42.4153 57.7178 42.2082 57.3986 42.1238C57.0795 42.0394 56.74 42.0847 56.4541 42.2498C56.1683 42.4148 55.9593 42.6862 55.8728 43.0048C55.7863 43.3233 55.8293 43.6631 55.9925 43.9501L56.6175 45.0326C56.699 45.1759 56.808 45.3017 56.9383 45.4027C57.0686 45.5037 57.2175 45.5779 57.3766 45.6211C57.5357 45.6643 57.7018 45.6756 57.8653 45.6544C58.0287 45.6331 58.1864 45.5797 58.3291 45.4973C58.4719 45.4149 58.597 45.305 58.6971 45.1741C58.7972 45.0431 58.8705 44.8937 58.9126 44.7343C58.9548 44.5749 58.9649 44.4088 58.9426 44.2454C58.9203 44.0821 58.8659 43.9248 58.7825 43.7826L58.1575 42.7001Z" fill="#0085FF"/>
<path id="Vector_10" d="M49.0725 21.965C49.1546 22.1073 49.2639 22.232 49.3942 22.3321C49.5245 22.4321 49.6733 22.5055 49.832 22.5479C49.9907 22.5904 50.1562 22.6012 50.3191 22.5797C50.482 22.5582 50.639 22.5047 50.7812 22.4225L59.4412 17.4225C59.7283 17.2567 59.9378 16.9837 60.0236 16.6635C60.1094 16.3433 60.0645 16.0021 59.8987 15.715L57.3987 11.385C57.233 11.0979 56.9599 10.8884 56.6397 10.8026C56.3195 10.7168 55.9783 10.7617 55.6912 10.9275L47.0312 15.9275C46.889 16.0094 46.7643 16.1186 46.6642 16.2488C46.5642 16.379 46.4907 16.5276 46.4481 16.6862C46.4055 16.8448 46.3946 17.0102 46.4159 17.173C46.4373 17.3357 46.4905 17.4927 46.5725 17.635L49.0725 21.965ZM55.8587 13.715L57.1087 15.88L50.6087 19.63L49.3587 17.465L55.8587 13.715Z" fill="#0085FF"/>
<path id="Vector_11" d="M69.8987 33.0351C69.733 32.748 69.46 32.5385 69.1397 32.4527C68.8195 32.367 68.4783 32.4119 68.1912 32.5776L59.5312 37.5776C59.3879 37.6591 59.2622 37.7681 59.1612 37.8984C59.0602 38.0287 58.9859 38.1777 58.9427 38.3368C58.8995 38.4958 58.8882 38.6619 58.9095 38.8254C58.9307 38.9889 58.9841 39.1465 59.0665 39.2893C59.149 39.432 59.2588 39.5571 59.3898 39.6572C59.5207 39.7574 59.6702 39.8306 59.8296 39.8727C59.9889 39.9149 60.1551 39.9251 60.3184 39.9027C60.4817 39.8804 60.639 39.826 60.7812 39.7426L69.4412 34.7426C69.7283 34.5769 69.9378 34.3038 70.0236 33.9836C70.1094 33.6634 70.0645 33.3222 69.8987 33.0351Z" fill="#0085FF"/>
<path id="Vector_12" d="M70.6912 36.9075L62.0312 41.9075C61.8879 41.989 61.7622 42.098 61.6612 42.2283C61.5602 42.3586 61.4859 42.5075 61.4427 42.6666C61.3995 42.8257 61.3882 42.9918 61.4095 43.1553C61.4307 43.3187 61.4841 43.4764 61.5665 43.6192C61.649 43.7619 61.7588 43.887 61.8898 43.9871C62.0207 44.0872 62.1702 44.1605 62.3296 44.2026C62.4889 44.2448 62.6551 44.255 62.8184 44.2326C62.9817 44.2103 63.139 44.1559 63.2812 44.0725L71.9412 39.0725C72.226 38.9056 72.4332 38.6328 72.5175 38.3136C72.6019 37.9945 72.5566 37.655 72.3916 37.3691C72.2265 37.0833 71.9551 36.8743 71.6366 36.7878C71.318 36.7013 70.9782 36.7444 70.6912 36.9075Z" fill="#0085FF"/>
<path id="Vector_13" d="M52.5 58.75C52.1685 58.75 51.8505 58.8817 51.6161 59.1161C51.3817 59.3505 51.25 59.6685 51.25 60V61.25C51.25 61.5815 51.3817 61.8995 51.6161 62.1339C51.8505 62.3683 52.1685 62.5 52.5 62.5C52.8315 62.5 53.1495 62.3683 53.3839 62.1339C53.6183 61.8995 53.75 61.5815 53.75 61.25V60C53.75 59.6685 53.6183 59.3505 53.3839 59.1161C53.1495 58.8817 52.8315 58.75 52.5 58.75Z" fill="#0085FF"/>
<path id="Vector_14" d="M52.5 63.75C52.1685 63.75 51.8505 63.8817 51.6161 64.1161C51.3817 64.3505 51.25 64.6685 51.25 65V66.25C51.25 66.5815 51.3817 66.8995 51.6161 67.1339C51.8505 67.3683 52.1685 67.5 52.5 67.5C52.8315 67.5 53.1495 67.3683 53.3839 67.1339C53.6183 66.8995 53.75 66.5815 53.75 66.25V65C53.75 64.6685 53.6183 64.3505 53.3839 64.1161C53.1495 63.8817 52.8315 63.75 52.5 63.75Z" fill="#0085FF"/>
<path id="Vector_15" d="M67.5 66.25H58.75C58.4185 66.25 58.1005 66.3817 57.8661 66.6161C57.6317 66.8505 57.5 67.1685 57.5 67.5C57.5 67.8315 57.6317 68.1495 57.8661 68.3839C58.1005 68.6183 58.4185 68.75 58.75 68.75H67.5C67.8315 68.75 68.1495 68.6183 68.3839 68.3839C68.6183 68.1495 68.75 67.8315 68.75 67.5C68.75 67.1685 68.6183 66.8505 68.3839 66.6161C68.1495 66.3817 67.8315 66.25 67.5 66.25Z" fill="#0085FF"/>
<path id="Vector_16" d="M58.75 63.75H67.5C67.8315 63.75 68.1495 63.6183 68.3839 63.3839C68.6183 63.1495 68.75 62.8315 68.75 62.5C68.75 62.1685 68.6183 61.8505 68.3839 61.6161C68.1495 61.3817 67.8315 61.25 67.5 61.25H58.75C58.4185 61.25 58.1005 61.3817 57.8661 61.6161C57.6317 61.8505 57.5 62.1685 57.5 62.5C57.5 62.8315 57.6317 63.1495 57.8661 63.3839C58.1005 63.6183 58.4185 63.75 58.75 63.75Z" fill="#0085FF"/>
</g>
</g>
</svg>
