<?xml version="1.0" encoding="utf-8"?><svg xmlns="http://www.w3.org/2000/svg" xmlns:xlink="http://www.w3.org/1999/xlink"><symbol fill="none" viewBox="0 0 16 16" id="telegram" xmlns="http://www.w3.org/2000/svg"><path d="m14.629 3.698-2.012 9.618c-.152.679-.548.848-1.11.528l-3.066-2.29-1.48 1.442c-.163.166-.3.305-.616.305l.22-3.165 5.683-5.204c.247-.223-.054-.347-.384-.123L4.839 9.29l-3.024-.959c-.658-.208-.67-.667.137-.986L13.78 2.727c.548-.208 1.027.124.849.971Z" fill="#000"/></symbol><symbol fill="none" viewBox="0 0 21 22" id="whatsapp" xmlns="http://www.w3.org/2000/svg"><path d="m.488 20.694 1.365-4.978a9.572 9.572 0 0 1-1.287-4.802c.004-5.3 4.316-9.608 9.612-9.608 2.57 0 4.986 1 6.799 2.817a9.53 9.53 0 0 1 2.813 6.798c-.004 5.297-4.316 9.608-9.612 9.608h-.004A9.61 9.61 0 0 1 5.58 19.36L.488 20.694Z" fill="#21D33E"/><path d="m.139 21.043 1.412-5.159A9.93 9.93 0 0 1 .225 10.91c0-5.49 4.468-9.953 9.957-9.953a9.894 9.894 0 0 1 7.042 2.919 9.903 9.903 0 0 1 2.915 7.042c-.004 5.488-4.469 9.953-9.957 9.953h-.004a9.953 9.953 0 0 1-4.759-1.213L.14 21.043Zm5.523-3.185.302.18a8.266 8.266 0 0 0 4.214 1.154h.004c4.562 0 8.274-3.712 8.274-8.274 0-2.21-.86-4.288-2.42-5.854a8.207 8.207 0 0 0-5.85-2.424c-4.567 0-8.278 3.711-8.278 8.274a8.26 8.26 0 0 0 1.263 4.401l.196.314-.835 3.052 3.13-.823Z" fill="url(#ba)"/><path fill-rule="evenodd" clip-rule="evenodd" d="M7.69 6.747c-.188-.415-.384-.423-.56-.431-.145-.008-.31-.004-.479-.004a.919.919 0 0 0-.663.31c-.227.247-.87.851-.87 2.075 0 1.224.89 2.409 1.015 2.574.126.164 1.723 2.758 4.249 3.754 2.103.828 2.53.663 2.986.624.455-.04 1.47-.6 1.679-1.181.207-.58.207-1.079.145-1.18-.063-.103-.228-.166-.479-.291-.247-.126-1.471-.726-1.699-.808-.227-.083-.392-.126-.56.125-.165.247-.644.808-.79.973-.144.165-.29.188-.537.063-.247-.126-1.051-.388-2-1.236-.742-.659-1.24-1.475-1.385-1.722-.145-.247-.016-.384.11-.506.11-.11.247-.29.372-.436.126-.145.165-.247.247-.415.083-.165.044-.31-.02-.436-.054-.13-.537-1.357-.76-1.852Z" fill="#fff"/><defs><linearGradient id="ba" x1="10.139" y1="21.043" x2="10.139" y2=".957" gradientUnits="userSpaceOnUse"><stop stop-color="#F9F9F9"/><stop offset="1" stop-color="#fff"/></linearGradient></defs></symbol></svg>