<?xml version="1.0" encoding="utf-8"?><svg xmlns="http://www.w3.org/2000/svg" xmlns:xlink="http://www.w3.org/1999/xlink"><symbol viewBox="0 0 15 7" id="arrow-left" xmlns="http://www.w3.org/2000/svg"><path d="M1 3.5h14m-14 0 3-3m-3 3 3 3"/></symbol><symbol viewBox="0 0 22 24" id="basket" xmlns="http://www.w3.org/2000/svg"><g clip-path="url(#ba)"><path d="M10.363 18.443a2.046 2.046 0 0 0-2.045 2.042 2.046 2.046 0 0 0 4.09 0 2.046 2.046 0 0 0-2.045-2.042Zm6.134 0a2.046 2.046 0 0 0-2.045 2.042 2.046 2.046 0 0 0 4.089 0 2.046 2.046 0 0 0-2.044-2.042Zm3.978-8.199L7.413 6.891a.614.614 0 0 0-.75.73L8.67 16.4h-.786L5.482 5.895a.613.613 0 0 0-.474-.464l-4.27-.882A.614.614 0 0 0 .489 5.75l3.885.802L6.797 17.15a.613.613 0 0 0 .598.477h12.07a.615.615 0 0 0 .607-.53l.858-6.175a.613.613 0 0 0-.455-.678Zm-8.14 3.91a.613.613 0 0 1-1.227 0v-2.696a.613.613 0 0 1 1.227 0v2.696Zm2.625 0a.613.613 0 0 1-1.227 0v-1.88a.613.613 0 0 1 1.227 0v1.88Zm2.625 0a.613.613 0 0 1-1.227 0v-1.226a.613.613 0 0 1 1.227 0v1.226Z"/></g><path fill-rule="evenodd" clip-rule="evenodd" d="M16.268 4.568a2.996 2.996 0 0 0-1.693-.523c-.627 0-1.21.193-1.693.523-.28-.843-.492-1.752-.492-2.383C12.39.98 13.37 0 14.575 0s2.185.98 2.185 2.185c0 .631-.212 1.54-.492 2.383Zm-4.722 2.274.024.006v-.011l-.024.005Zm4.972 1.217c-1.333-.33-2.766-.681-4.129-1.013a2.185 2.185 0 1 1 4.129 1.013Zm4.436 1.103c-.866-.217-2.155-.538-3.618-.9a2.995 2.995 0 0 0 .243-1.425c.87.18 1.762.45 2.308.765.596.344.969.928 1.067 1.56ZM9.869 6.439c-.36-.086-.706-.167-1.03-.243a2.19 2.19 0 0 1-.376-2.667 2.188 2.188 0 0 1 3.147-.7c.098.738.338 1.599.61 2.353a3.01 3.01 0 0 0-.449.774c-.628.113-1.305.278-1.902.483Zm10.124.075a3.43 3.43 0 0 1-.217.114c-.696-.295-1.587-.526-2.397-.672a3.01 3.01 0 0 0-.449-.774c.262-.727.494-1.553.599-2.273.095-.067.189-.128.278-.18a2.188 2.188 0 0 1 2.986.8 2.188 2.188 0 0 1-.8 2.985Z"/><defs><clipPath id="ba"><path transform="translate(0 3.064)" d="M0 0h20.936v20.936H0z"/></clipPath></defs></symbol><symbol viewBox="0 0 16 16" id="box" xmlns="http://www.w3.org/2000/svg"><path d="M8 8.867a.497.497 0 0 1-.253-.067L1.86 5.394a.501.501 0 1 1 .507-.867L8 7.787l5.6-3.24a.507.507 0 0 1 .687.18c.14.24.053.547-.18.687L8.26 8.8a.627.627 0 0 1-.26.067Z"/><path d="M8 14.906a.504.504 0 0 1-.5-.5V8.36c0-.273.227-.5.5-.5s.5.227.5.5v6.046c0 .274-.227.5-.5.5Z"/><path d="M8 15.167c-.587 0-1.167-.127-1.627-.38l-3.56-1.98c-.966-.534-1.72-1.82-1.72-2.927V6.113c0-1.106.754-2.386 1.72-2.926l3.56-1.973c.914-.507 2.34-.507 3.254 0l3.56 1.98c.966.533 1.72 1.82 1.72 2.926v3.767c0 1.106-.754 2.386-1.72 2.926l-3.56 1.974c-.46.253-1.04.38-1.627.38ZM8 1.833c-.42 0-.833.087-1.14.254L3.3 4.067c-.64.36-1.207 1.313-1.207 2.053v3.767c0 .733.567 1.693 1.207 2.053l3.56 1.98c.607.34 1.673.34 2.28 0l3.56-1.98c.64-.36 1.207-1.313 1.207-2.053V6.12c0-.733-.567-1.693-1.207-2.053l-3.56-1.98c-.307-.167-.72-.254-1.14-.254Z"/><path d="M11.333 9.327a.504.504 0 0 1-.5-.5V6.68l-6.08-3.506a.495.495 0 0 1-.18-.68c.14-.24.44-.32.68-.18l6.327 3.653a.502.502 0 0 1 .253.433v2.44a.5.5 0 0 1-.5.487Z"/></symbol><symbol viewBox="0 0 344.96 344.96" id="check" xmlns="http://www.w3.org/2000/svg"><g data-name="Слой 2"><path class="dcls-1" d="m321.85 86.24-40-23.11-23.1-40H212.5L172.48 0l-40 23.11H86.24l-23.11 40-40 23.1v46.21L0 172.48l23.11 40v46.21l40 23.11 23.11 40h46.21l40 23.1 40-23.11h46.21l23.11-40 40-23.11V212.5l23.11-40-23.11-40V86.24ZM156.91 243.07a16.79 16.79 0 0 1-23.34 0l-50.45-50.44a16.19 16.19 0 0 1 0-22.89l13.35-13.35a16.19 16.19 0 0 1 22.89 0l25.87 25.87 80.34-80.35a16.19 16.19 0 0 1 22.89 0l13.35 13.35a16.19 16.19 0 0 1 0 22.89Z" data-name="Capa 1"/></g></symbol><symbol viewBox="0 0 18 18" id="chevron-down" xmlns="http://www.w3.org/2000/svg"><path d="M2.5 6 9 12.5 15.5 6"/></symbol><symbol viewBox="0 0 14 14" id="chevron-left" xmlns="http://www.w3.org/2000/svg"><path d="M10 1.5 4 7l6 5.5"/></symbol><symbol viewBox="0 0 14 14" id="chevron-right" xmlns="http://www.w3.org/2000/svg"><path d="M4 1.5 10 7l-6 5.5"/></symbol><symbol viewBox="0 0 24 24" id="fb" xmlns="http://www.w3.org/2000/svg"><path d="M13.397 20.997v-8.196h2.765l.411-3.209h-3.176V7.548c0-.926.258-1.56 1.587-1.56h1.684v-2.86A22.108 22.108 0 0 0 14.201 3c-2.444 0-4.122 1.492-4.122 4.231v2.355H7.332v3.21h2.753v8.201h3.312Z"/></symbol><symbol viewBox="0 0 24 24" id="instagram" xmlns="http://www.w3.org/2000/svg"><g clip-path="url(#ia)"><path d="M12.004 5.838a6.157 6.157 0 0 0-6.158 6.158 6.157 6.157 0 0 0 6.158 6.158 6.157 6.157 0 0 0 6.158-6.158 6.157 6.157 0 0 0-6.158-6.158Zm0 10.155a3.996 3.996 0 1 1 3.997-3.997 3.995 3.995 0 0 1-3.997 3.997Z"/><path d="M16.948.076c-2.208-.103-7.677-.098-9.887 0-1.942.09-3.655.56-5.036 1.94C-.283 4.326.012 7.436.012 11.997c0 4.668-.26 7.706 2.013 9.979 2.317 2.316 5.472 2.013 9.979 2.013 4.624 0 6.22.003 7.855-.63 2.223-.863 3.901-2.85 4.065-6.42.104-2.208.098-7.676 0-9.886C23.726 2.84 21.465.285 16.948.077Zm3.495 20.372c-1.513 1.513-3.612 1.378-8.468 1.378-5 0-7.005.074-8.468-1.393-1.685-1.677-1.38-4.37-1.38-8.453 0-5.525-.567-9.504 4.978-9.788 1.274-.045 1.649-.06 4.856-.06l.045.03c5.329 0 9.51-.558 9.761 4.986.057 1.265.07 1.645.07 4.847-.001 4.942.093 6.959-1.394 8.453Z"/><path d="M18.406 7.034a1.439 1.439 0 1 0 0-2.878 1.439 1.439 0 0 0 0 2.878Z"/></g><defs><clipPath id="ia"><path d="M0 0h24v24H0z"/></clipPath></defs></symbol><symbol viewBox="0 0 16 16" id="telegram" xmlns="http://www.w3.org/2000/svg"><path d="m14.629 3.698-2.012 9.618c-.152.679-.548.848-1.11.528l-3.066-2.29-1.48 1.442c-.163.166-.3.305-.616.305l.22-3.165 5.683-5.204c.247-.223-.054-.347-.384-.123L4.839 9.29l-3.024-.959c-.658-.208-.67-.667.137-.986L13.78 2.727c.548-.208 1.027.124.849.971Z"/></symbol><symbol viewBox="0 0 16 16" id="viber" xmlns="http://www.w3.org/2000/svg"><path d="M8 1.335c-1.071.013-3.374.19-4.662 1.37-.958.948-1.292 2.35-1.331 4.084-.033 1.728-.072 4.973 3.058 5.856v1.346s-.02.538.337.648c.438.14.688-.275 1.105-.72l.778-.879c2.142.178 3.782-.232 3.97-.293.435-.139 2.883-.451 3.283-3.696.41-3.351-.2-5.463-1.301-6.418h-.007c-.332-.306-1.668-1.279-4.652-1.29 0 0-.222-.014-.578-.008Zm.037.942a7.02 7.02 0 0 1 .488.011c2.527.007 3.732.767 4.017 1.023.927.794 1.405 2.697 1.055 5.495-.332 2.713-2.317 2.885-2.685 3.002-.156.05-1.6.406-3.42.289 0 0-1.356 1.634-1.78 2.055-.067.074-.146.095-.196.085-.071-.018-.093-.107-.089-.229l.013-2.233c-2.655-.733-2.498-3.5-2.47-4.946.033-1.446.304-2.628 1.113-3.43 1.088-.982 3.043-1.115 3.953-1.122Zm.2 1.446a.166.166 0 1 0 0 .332 3.136 3.136 0 0 1 2.242.883c.606.588.9 1.378.912 2.411 0 .092.074.167.167.167V7.51a.167.167 0 0 0 .168-.165 3.588 3.588 0 0 0-1.009-2.646c-.66-.645-1.496-.977-2.48-.977Zm-2.198.382a.523.523 0 0 0-.342.067H5.69a2.61 2.61 0 0 0-.637.523 1.003 1.003 0 0 0-.256.525.71.71 0 0 0 .026.302l.01.006c.172.504.396.988.67 1.444a8.48 8.48 0 0 0 1.29 1.762l.015.022.024.017.015.018.017.015c.532.505 1.127.94 1.769 1.295.734.4 1.18.588 1.447.667v.004c.078.024.15.034.221.034.228-.016.444-.109.613-.262a2.53 2.53 0 0 0 .517-.638v-.004c.128-.241.085-.469-.1-.623-.37-.323-.77-.61-1.195-.857-.285-.155-.574-.061-.69.095l-.25.315c-.129.156-.361.134-.361.134l-.007.004C7.093 8.527 6.63 6.772 6.63 6.772s-.022-.239.139-.36l.312-.252c.15-.122.254-.41.094-.695a7.498 7.498 0 0 0-.856-1.194.475.475 0 0 0-.28-.167Zm2.486.495c-.221 0-.221.334.003.334A2.098 2.098 0 0 1 10 5.572 1.94 1.94 0 0 1 10.5 7a.168.168 0 0 0 .167.165l.007.009a.169.169 0 0 0 .167-.167c.015-.662-.191-1.218-.595-1.663C9.84 4.9 9.273 4.65 8.549 4.6h-.024Zm.274.898c-.228-.006-.236.335-.01.341.55.029.816.306.851.877a.166.166 0 0 0 .165.163h.007a.168.168 0 0 0 .16-.178c-.039-.744-.445-1.164-1.166-1.202H8.8Z"/></symbol><symbol viewBox="0 0 24 24" id="vk" xmlns="http://www.w3.org/2000/svg"><g clip-path="url(#la)"><path d="M23.873 17.52a1.657 1.657 0 0 0-.082-.157c-.416-.75-1.212-1.67-2.386-2.761l-.025-.025-.012-.013-.013-.012h-.013c-.533-.508-.87-.85-1.012-1.025-.258-.333-.316-.67-.175-1.012.1-.258.475-.804 1.125-1.637.341-.442.612-.796.812-1.062 1.441-1.916 2.066-3.14 1.874-3.674l-.074-.124c-.05-.075-.18-.144-.387-.207-.209-.062-.475-.072-.8-.03l-3.599.024a.467.467 0 0 0-.25.006l-.163.038-.062.031-.05.038a.556.556 0 0 0-.137.13.86.86 0 0 0-.125.22 20.41 20.41 0 0 1-1.337 2.811 26.57 26.57 0 0 1-.85 1.343c-.258.38-.475.659-.65.837-.175.18-.333.323-.475.431-.141.109-.25.155-.324.138a8.938 8.938 0 0 1-.213-.05.83.83 0 0 1-.281-.306 1.372 1.372 0 0 1-.144-.487 5.39 5.39 0 0 1-.043-.507 9.935 9.935 0 0 1 .006-.6c.009-.258.012-.433.012-.524 0-.317.007-.66.019-1.031l.031-.881c.009-.217.013-.446.013-.687 0-.242-.015-.431-.044-.569a1.95 1.95 0 0 0-.13-.4.674.674 0 0 0-.257-.3 1.443 1.443 0 0 0-.419-.169c-.441-.1-1.004-.154-1.687-.162-1.55-.017-2.545.084-2.986.3a1.683 1.683 0 0 0-.475.375c-.15.183-.171.283-.063.3.5.075.854.254 1.062.537l.075.15c.059.108.117.3.175.575a5.8 5.8 0 0 1 .113.912 9.726 9.726 0 0 1 0 1.562c-.042.433-.081.77-.119 1.012a2.027 2.027 0 0 1-.169.587c-.075.15-.125.242-.15.275a.215.215 0 0 1-.062.063.936.936 0 0 1-.337.062c-.117 0-.259-.058-.425-.175a3 3 0 0 1-.519-.48 6.433 6.433 0 0 1-.606-.857c-.225-.366-.458-.8-.7-1.3l-.2-.362a31.154 31.154 0 0 1-.512-1.018 19.632 19.632 0 0 1-.575-1.294.824.824 0 0 0-.3-.4l-.062-.037a.855.855 0 0 0-.2-.106 1.326 1.326 0 0 0-.287-.081L.8 5.779c-.35 0-.587.08-.712.238l-.05.075a.404.404 0 0 0-.038.2c0 .092.025.204.075.337a41.238 41.238 0 0 0 1.63 3.4c.588 1.09 1.098 1.97 1.531 2.636.433.666.875 1.295 1.325 1.886.45.592.748.971.893 1.137a7.6 7.6 0 0 0 .344.375l.312.3c.2.2.494.44.881.719.388.279.817.554 1.287.825.471.27 1.019.491 1.644.662.624.17 1.233.24 1.824.206h1.437c.292-.025.512-.117.662-.275l.05-.063a.83.83 0 0 0 .094-.23c.03-.105.044-.22.044-.344a4.12 4.12 0 0 1 .08-.968c.063-.288.134-.504.213-.65a1.598 1.598 0 0 1 .482-.55.797.797 0 0 1 .1-.043c.2-.067.434-.003.706.193.27.196.524.438.762.725.237.288.522.61.856.968.333.359.625.625.874.8l.25.15c.167.1.384.192.65.275.266.083.5.104.7.063l3.199-.05c.316 0 .562-.053.737-.157.175-.104.279-.218.312-.343a.97.97 0 0 0 .007-.425 1.574 1.574 0 0 0-.088-.331Z"/></g><defs><clipPath id="la"><path d="M0 0h24v24H0z"/></clipPath></defs></symbol><symbol viewBox="0 0 16 17" id="whatsapp" xmlns="http://www.w3.org/2000/svg"><g clip-path="url(#ma)"><path d="m11.671 10.038-.006.05c-1.466-.73-1.619-.828-1.808-.544-.132.197-.514.643-.63.775-.116.13-.232.14-.43.05-.2-.1-.842-.31-1.602-.99-.592-.53-.99-1.18-1.107-1.38-.195-.338.213-.386.585-1.09.067-.14.033-.25-.016-.35-.05-.1-.448-1.08-.615-1.47-.16-.39-.325-.34-.448-.34-.384-.033-.665-.028-.912.23-1.076 1.182-.805 2.402.116 3.7 1.81 2.368 2.773 2.804 4.536 3.409.476.151.91.13 1.253.08.383-.06 1.178-.48 1.344-.95.17-.47.17-.86.12-.95-.049-.09-.18-.14-.38-.23Z"/><path d="M13.68 2.8C8.554-2.157.07 1.437.067 8.427a7.89 7.89 0 0 0 1.064 3.964L0 16.5l4.223-1.101c5.27 2.846 11.774-.934 11.777-6.967 0-2.117-.827-4.11-2.33-5.607l.01-.026Zm.988 5.61c-.004 5.09-5.59 8.267-10.008 5.67l-.24-.143-2.5.65.67-2.43-.16-.25C-.318 7.53 2.84 1.81 8.049 1.81c1.77 0 3.43.69 4.68 1.94a6.525 6.525 0 0 1 1.94 4.66Z"/></g><defs><clipPath id="ma"><path transform="translate(0 .5)" d="M0 0h16v16H0z"/></clipPath></defs></symbol></svg>