<svg width="407" height="242" viewBox="0 0 407 242" fill="none" xmlns="http://www.w3.org/2000/svg">
<g clip-path="url(#clip0_201_23868)">
<path d="M317.18 63.4947C312.059 68.9154 307.128 74.5257 302.349 80.2876C297.532 86.0116 292.942 91.9251 288.504 97.9524L285.204 102.501L281.98 107.126C281.449 107.884 280.918 108.642 280.387 109.438L278.832 111.789C277.808 113.343 276.746 114.897 275.721 116.489L272.725 121.265L271.208 123.654L269.766 126.08L266.883 130.932L264.114 135.86C249.321 162.091 237.866 190.294 229.977 219.597C235.78 189.802 245.263 160.575 258.387 132.903L260.852 127.71L263.432 122.592L264.721 120.014L266.087 117.475L268.818 112.395C269.728 110.727 270.714 109.059 271.663 107.391L273.066 104.889C273.559 104.055 274.052 103.221 274.546 102.425L277.504 97.4596L280.577 92.5696C284.673 86.0874 288.959 79.6811 293.473 73.4264C297.987 67.1717 302.652 61.0307 307.546 55.0793C309.859 52.2741 313.956 51.8951 316.649 54.1695C319.38 56.4818 319.759 60.5379 317.521 63.1914C317.446 63.3051 317.332 63.4189 317.218 63.5326L317.18 63.4947Z" fill="#59D030"/>
<path d="M143.684 130.97C162.08 148.331 177.935 167.967 190.756 189.157C174.863 170.166 156.504 153.524 136.553 139.764C134.011 138.058 133.366 134.533 135.073 131.917C136.78 129.302 140.308 128.619 142.963 130.439C143.19 130.591 143.456 130.818 143.646 130.97H143.684Z" fill="#59D030"/>
<path d="M68.2 87.3004C74.6103 90.7879 80.869 94.5407 86.9379 98.4452C93.0069 102.388 98.8862 106.557 104.538 110.917C97.9 108.187 91.2241 105.723 84.4724 103.525C77.7207 101.364 70.931 99.4308 64.1034 97.8008C61.1069 97.0805 59.2103 94.0858 59.8931 90.9774C60.5379 87.907 63.6103 85.9358 66.7586 86.6939C67.2517 86.8077 67.7448 86.9972 68.2 87.2246V87.3004Z" fill="#0085FF"/>
<path d="M153.545 219.066C161.283 222.212 168.793 225.738 176.114 229.566C183.396 233.395 190.452 237.565 197.279 242C189.503 239.612 181.652 237.603 173.8 236.011C165.948 234.419 158.02 233.168 150.169 232.334C148.31 232.144 146.717 231.234 145.617 229.87C144.517 228.505 143.872 226.761 144.024 224.828C144.176 222.933 145.086 221.265 146.452 220.09C147.817 218.952 149.638 218.384 151.61 218.573C152.293 218.649 152.938 218.801 153.545 219.066Z" fill="#59D030"/>
<path d="M95.2069 210.954C108.028 213.57 120.469 217.133 132.455 221.53C119.71 221.644 107.117 222.705 94.8655 224.676C94.4104 224.752 93.9552 224.752 93.5 224.752C93.0448 224.752 92.6276 224.676 92.1724 224.563C91.3 224.373 90.5035 223.994 89.7828 223.463C88.3414 222.44 87.2793 220.848 86.9379 218.952C86.2173 215.162 88.7207 211.56 92.6276 210.878C93.0448 210.802 93.5 210.764 93.9173 210.764C94.3345 210.764 94.7897 210.84 95.169 210.916L95.2069 210.954Z" fill="#0085FF"/>
<path d="M6.4098 223.994C11.8339 222.819 17.2581 221.795 22.7201 220.999C28.1822 220.203 33.6063 219.521 39.0684 219.066C44.5305 218.573 49.9546 218.308 55.3788 218.156C58.1098 218.156 60.8029 218.081 63.5339 218.081L67.5926 218.156C68.9581 218.156 70.2857 218.156 71.6512 218.27C70.3236 218.46 68.996 218.763 67.6684 218.99L63.7236 219.748C61.1063 220.317 58.4891 220.924 55.8719 221.492C50.6753 222.781 45.4788 224.146 40.396 225.738C35.3132 227.292 30.2684 229.036 25.3374 230.893C20.4063 232.751 15.5132 234.798 10.7339 236.958C9.06497 237.716 7.20635 237.716 5.57531 237.148C3.94428 236.541 2.5029 235.328 1.66842 233.622C0.833935 231.917 0.758073 230.021 1.36497 228.353C1.97187 226.685 3.22359 225.207 5.00635 224.411C5.46152 224.221 5.95462 224.032 6.4098 223.956V223.994Z" fill="#59D030"/>
<path d="M233.504 118.005C223.945 141.091 216.511 165.238 211.238 190.067C212.073 164.707 215.183 139.195 220.759 114.025C221.176 112.206 222.276 110.689 223.718 109.779C225.197 108.87 226.98 108.491 228.8 108.945C232.404 109.817 234.604 113.381 233.845 116.906C233.769 117.285 233.656 117.664 233.504 118.005Z" fill="#59D030"/>
<path d="M271.283 33.0551C260.397 47.1187 250.345 61.9784 241.279 77.5962C246.248 60.2346 252.469 43.0627 259.79 26.2697C261.307 22.8202 265.328 21.266 268.703 22.8202C272.079 24.3744 273.559 28.3167 272.117 31.6526C271.89 32.1454 271.586 32.6382 271.283 33.0551Z" fill="#0085FF"/>
<path d="M284.407 207.163C273.483 215.958 263.166 225.852 253.721 236.693C259.752 223.653 267.034 210.954 275.531 198.899C276.517 197.459 278.034 196.625 279.59 196.36C281.145 196.094 282.776 196.435 284.141 197.459C285.507 198.482 286.303 199.923 286.569 201.477C286.835 203.031 286.493 204.623 285.545 205.988C285.203 206.443 284.824 206.86 284.407 207.201V207.163Z" fill="#0085FF"/>
<path d="M321.732 174.752C319.228 175.89 316.763 177.103 314.259 178.278L306.863 182.107C301.97 184.798 297.114 187.603 292.373 190.636C295.749 186.125 299.314 181.727 303.032 177.406C304.928 175.283 306.825 173.16 308.759 171.038C310.732 168.991 312.742 166.868 314.752 164.821C317.256 162.395 321.201 162.395 323.552 164.821C325.866 167.285 325.828 171.189 323.476 173.502C322.945 174.032 322.339 174.411 321.694 174.715L321.732 174.752Z" fill="#59D030"/>
<path d="M389.704 142.114C371.383 145.488 353.214 150.985 335.766 158.718C351.204 147.459 368.197 137.982 386.252 130.477C387.048 130.136 387.883 129.984 388.679 129.984C389.476 129.984 390.273 130.174 390.993 130.477C392.435 131.083 393.648 132.258 394.255 133.813C394.862 135.367 394.786 137.035 394.179 138.475C393.573 139.916 392.435 141.053 390.917 141.697C390.538 141.849 390.121 141.963 389.704 142.039V142.114Z" fill="#0085FF"/>
<path d="M307.659 133.547C291.614 145.109 276.859 158.794 263.811 174.222C273.938 156.747 286.304 140.295 300.679 125.511C302.766 123.35 306.217 123.35 308.266 125.435C309.29 126.497 309.821 127.861 309.821 129.188C309.821 129.87 309.707 130.553 309.442 131.159C309.214 131.804 308.835 132.41 308.342 132.903C308.114 133.13 307.886 133.32 307.659 133.509V133.547Z" fill="#59D030"/>
<path d="M369.866 94.3891C356.363 98.3315 343.049 103.525 330.152 109.855C341.114 100.53 352.987 92.0768 365.618 84.6469C366.908 83.8888 368.387 83.6993 369.752 84.0783C371.08 84.4195 372.256 85.2914 372.976 86.5802C374.418 89.1579 373.508 92.4179 371.042 93.8584C370.663 94.0858 370.245 94.2375 369.866 94.3891Z" fill="#0085FF"/>
<path d="M335.311 209.21C316.269 214.783 297.721 222.781 280.311 232.978C296.014 220.241 313.386 209.286 332.048 200.567C332.655 200.302 333.262 200.15 333.869 200.112C334.476 200.112 335.083 200.188 335.652 200.416C336.79 200.833 337.738 201.667 338.231 202.842C338.762 204.017 338.762 205.268 338.345 206.367C337.928 207.466 337.093 208.376 335.993 208.945C335.804 209.059 335.576 209.134 335.348 209.21H335.311Z" fill="#0085FF"/>
<path d="M402.107 194.161C390.652 193.555 379.045 193.744 367.4 194.768C378.362 190.749 389.742 187.451 401.349 184.95C403.928 184.381 406.431 186.049 406.887 188.551C407.38 191.091 405.749 193.517 403.283 194.047C402.904 194.123 402.487 194.161 402.069 194.161H402.107Z" fill="#59D030"/>
<path d="M99.4551 51.4402C110.19 56.9746 120.355 63.6463 129.686 71.2278C134.352 75.0185 138.827 79.0367 143 83.3202C145.162 85.4051 147.134 87.6416 149.145 89.8402C150.169 90.9395 151.117 92.0768 152.065 93.214L154.948 96.6256C158.627 101.326 162.193 106.102 165.379 111.144C167.048 113.608 168.49 116.186 170.045 118.726C170.765 120.014 171.486 121.303 172.207 122.63C172.548 123.274 172.927 123.919 173.269 124.563L174.293 126.534L175.279 128.506L175.772 129.491L176.227 130.515L178.124 134.533L179.869 138.589C180.476 139.954 180.969 141.318 181.538 142.683C183.7 148.18 185.558 153.752 187.19 159.4C185.179 153.866 182.903 148.445 180.4 143.176C179.755 141.849 179.148 140.522 178.465 139.233L176.455 135.329L174.331 131.5L173.8 130.553L173.231 129.605L172.093 127.71L170.955 125.852C170.576 125.246 170.159 124.639 169.779 123.995C168.983 122.782 168.186 121.531 167.39 120.318C165.721 117.93 164.09 115.503 162.307 113.229C158.855 108.529 155.062 104.169 151.193 99.8477L148.159 96.7393C147.134 95.7159 146.148 94.6544 145.086 93.6689C142.962 91.6977 140.914 89.6507 138.714 87.7932C134.427 83.9267 129.838 80.4013 125.134 77.1034C115.727 70.4696 105.676 64.8972 95.1688 60.3863C92.7033 59.3249 91.5275 56.4818 92.5516 53.9041C93.5378 51.3264 96.4964 50.1134 99.1516 51.2127C99.2654 51.2506 99.3792 51.3264 99.493 51.3643L99.4551 51.4402Z" fill="#0085FF"/>
<path d="M6.37288 168.422C23.7832 166.261 41.3453 165.768 58.7556 167.057C67.4418 167.702 76.0901 168.763 84.6625 170.242L86.2556 170.507L87.8487 170.81L91.035 171.417C92.097 171.644 93.1591 171.796 94.2212 172.061L97.4074 172.781C99.5315 173.274 101.618 173.729 103.742 174.26L110 175.966C111.025 176.269 112.087 176.496 113.111 176.837L116.221 177.785L119.331 178.733C120.356 179.074 121.418 179.339 122.404 179.718L128.511 181.841C129.004 182.031 129.535 182.182 130.028 182.372L131.545 182.94L134.58 184.116L137.576 185.291C138.563 185.67 139.549 186.125 140.573 186.542C142.545 187.376 144.556 188.21 146.528 189.081L152.369 191.773C154.304 192.683 156.238 193.668 158.135 194.616C173.459 202.387 187.987 211.636 201.452 222.137C187.304 212.622 172.245 204.472 156.618 197.876C154.645 197.08 152.711 196.246 150.738 195.488L144.783 193.251C142.811 192.531 140.8 191.849 138.79 191.166C137.804 190.825 136.78 190.484 135.794 190.143L132.759 189.195L129.725 188.247L128.207 187.793C127.714 187.641 127.183 187.527 126.69 187.376L120.583 185.708C119.559 185.404 118.535 185.215 117.511 184.95L114.438 184.229L111.366 183.509C110.342 183.244 109.318 183.092 108.256 182.865L102.073 181.652C99.9867 181.273 97.9384 181.007 95.8522 180.666L92.7418 180.173C91.7177 179.984 90.6556 179.908 89.6315 179.756L86.5211 179.377L84.966 179.188L83.4108 179.036C75.066 178.164 66.6832 177.747 58.3384 177.709C41.6108 177.671 24.9591 179.339 8.68667 182.524C6.79012 182.903 4.89357 182.448 3.37633 181.462C1.85909 180.439 0.645293 178.846 0.228052 176.913C-0.227121 174.942 0.190121 173.009 1.21426 171.455C1.74529 170.659 2.39012 169.976 3.18667 169.445C3.98322 168.915 4.89357 168.536 5.91771 168.308C6.06943 168.308 6.25909 168.232 6.44874 168.232L6.37288 168.422Z" fill="#0085FF"/>
<path d="M17.4859 120.318C54.0514 119.597 90.3514 128.847 121.569 146.512C89.1756 131.083 52.9514 124.715 17.9032 127.899C15.8549 128.089 13.9963 126.534 13.7687 124.45C13.5411 122.365 15.0583 120.507 17.2204 120.318C17.2963 120.318 17.4101 120.318 17.4859 120.318Z" fill="#0085FF"/>
<path d="M217.268 10.6898C206.989 51.2506 201.034 93.0244 199.592 135.139C198.075 93.0244 201.034 50.6062 208.544 8.79448C208.961 6.33051 211.313 4.73841 213.741 5.19329C216.168 5.64818 217.761 7.96052 217.344 10.3866C217.344 10.5003 217.306 10.614 217.268 10.6898Z" fill="#59D030"/>
<path d="M172.7 66.9063C177.783 81.5385 182.069 96.3603 185.597 111.296C179.528 97.1942 172.776 83.4718 165.342 70.2043C164.28 68.271 164.924 65.807 166.897 64.7077C168.831 63.6084 171.297 64.2907 172.435 66.2619C172.549 66.4514 172.662 66.7168 172.738 66.9063H172.7Z" fill="#59D030"/>
<path d="M145.732 15.7694C150.283 25.8148 154.456 35.9361 158.249 46.209C152.066 37.187 145.618 28.4305 138.828 19.9771C137.425 18.2334 137.728 15.6936 139.473 14.291C141.218 12.8885 143.797 13.1538 145.201 14.8976C145.428 15.1629 145.58 15.4662 145.732 15.7694Z" fill="#0085FF"/>
<path d="M191.513 55.4204C191.513 58.2635 189.199 60.5379 186.392 60.5379C183.585 60.5379 181.271 58.2256 181.271 55.4204C181.271 52.6153 183.585 50.3029 186.392 50.3029C189.199 50.3029 191.513 52.6153 191.513 55.4204Z" fill="#0085FF"/>
<path d="M126.691 38.8929C126.691 41.7359 124.377 44.0103 121.57 44.0103C118.763 44.0103 116.449 41.698 116.449 38.8929C116.449 36.0877 118.763 33.7754 121.57 33.7754C124.377 33.7754 126.691 36.0877 126.691 38.8929Z" fill="#0085FF"/>
<path d="M121.569 92.8349C121.569 95.6779 119.256 97.9524 116.449 97.9524C113.642 97.9524 111.328 95.64 111.328 92.8349C111.328 90.0298 113.642 87.7174 116.449 87.7174C119.256 87.7174 121.569 90.0298 121.569 92.8349Z" fill="#0085FF"/>
<path d="M206.116 152.766C206.116 155.609 203.803 157.884 200.996 157.884C198.189 157.884 195.875 155.571 195.875 152.766C195.875 149.961 198.189 147.649 200.996 147.649C203.803 147.649 206.116 149.961 206.116 152.766Z" fill="#0085FF"/>
<path d="M81.5519 153.335C81.5519 156.178 79.2381 158.452 76.4312 158.452C73.6243 158.452 71.3105 156.14 71.3105 153.335C71.3105 150.53 73.6243 148.217 76.4312 148.217C79.2381 148.217 81.5519 150.53 81.5519 153.335Z" fill="#0085FF"/>
<path d="M50.0304 106.633C50.0304 109.476 47.7166 111.751 44.9098 111.751C42.1029 111.751 39.7891 109.438 39.7891 106.633C39.7891 103.828 42.1029 101.516 44.9098 101.516C47.7166 101.516 50.0304 103.828 50.0304 106.633Z" fill="#0085FF"/>
<path d="M24.048 202.425C24.048 205.268 21.7342 207.542 18.9273 207.542C16.1204 207.542 13.8066 205.23 13.8066 202.425C13.8066 199.62 16.1204 197.307 18.9273 197.307C21.7342 197.307 24.048 199.62 24.048 202.425Z" fill="#0085FF"/>
<path d="M235.513 44.0103C235.513 46.8534 233.199 49.1278 230.392 49.1278C227.585 49.1278 225.271 46.8155 225.271 44.0103C225.271 41.2052 227.585 38.8929 230.392 38.8929C233.199 38.8929 235.513 41.2052 235.513 44.0103Z" fill="#0085FF"/>
<path d="M289.792 49.1278C289.792 51.9709 287.478 54.2453 284.671 54.2453C281.865 54.2453 279.551 51.933 279.551 49.1278C279.551 46.3227 281.865 44.0103 284.671 44.0103C287.478 44.0103 289.792 46.3227 289.792 49.1278Z" fill="#0085FF"/>
<path d="M318.544 92.8349C318.544 95.6779 316.23 97.9524 313.423 97.9524C310.617 97.9524 308.303 95.64 308.303 92.8349C308.303 90.0298 310.617 87.7174 313.423 87.7174C316.23 87.7174 318.544 90.0298 318.544 92.8349Z" fill="#0085FF"/>
<path d="M356.097 125.587C356.097 128.43 353.783 130.704 350.976 130.704C348.169 130.704 345.855 128.392 345.855 125.587C345.855 122.782 348.169 120.469 350.976 120.469C353.783 120.469 356.097 122.782 356.097 125.587Z" fill="#59D030"/>
<path d="M350.939 174.222C350.939 177.065 348.625 179.339 345.818 179.339C343.011 179.339 340.697 177.027 340.697 174.222C340.697 171.417 343.011 169.104 345.818 169.104C348.625 169.104 350.939 171.417 350.939 174.222Z" fill="#59D030"/>
<path d="M225.69 95.4505L221.631 91.3186L215.941 92.3042L218.635 87.1867L215.941 82.0692L221.631 83.0548L225.652 78.9229L226.486 84.6469L231.683 87.1867L226.486 89.7644L225.69 95.4505Z" fill="#0085FF"/>
<path d="M261.725 95.4505L257.666 91.3186L251.977 92.3042L254.67 87.1867L251.977 82.0692L257.666 83.0548L261.725 78.9229L262.559 84.6469L267.718 87.1867L262.559 89.7644L261.725 95.4505Z" fill="#59D030"/>
<path d="M89.8963 66.2619L82.348 70.1284L81.2859 78.5439L75.2549 72.5545L66.91 74.1466L70.7411 66.5652L66.6445 59.0974L75.0652 60.4242L80.8687 54.2453L82.2342 62.6228L89.8963 66.2619Z" fill="#59D030"/>
<path d="M153.658 63.3051L148.158 65.0868L146.527 70.6212L143.113 65.9586L137.348 66.1103L140.724 61.4098L138.789 55.989L144.289 57.7707L148.879 54.2453V60.0072L153.658 63.3051Z" fill="#59D030"/>
<path d="M119.331 123.35L114.362 126.269L113.945 132.031L109.62 128.202L104.007 129.567L106.32 124.298L103.248 119.37L109.014 119.939L112.731 115.503L113.983 121.152L119.331 123.35Z" fill="#59D030"/>
<path d="M85.3075 193.024L80.8695 196.739L81.4385 202.501L76.5454 199.468L71.2351 201.78L72.6006 196.17L68.7695 191.849L74.5351 191.432L77.4557 186.428L79.6557 191.773L85.3075 193.024Z" fill="#59D030"/>
<path d="M32.2793 146.322L27.8793 150.037L28.4483 155.799L23.5172 152.766L18.2448 155.079L19.6103 149.468L15.7793 145.147L21.5448 144.73L24.4655 139.726L26.6276 145.071L32.2793 146.322Z" fill="#59D030"/>
<path d="M193.069 10.0833L186.317 15.7694L187.189 24.6018L179.679 19.9013L171.562 23.4646L173.686 14.8596L167.807 8.26379L176.645 7.61936L181.12 0L184.458 8.18797L193.069 10.0833Z" fill="#0085FF"/>
<path d="M141.937 161.561L137.537 165.276L138.106 171.038L133.175 167.967L127.903 170.279L129.269 164.669L125.438 160.348L131.203 159.931L134.124 154.965L136.286 160.31L141.937 161.561Z" fill="#59D030"/>
<path d="M344.756 76.0041L342.138 68.4226L334.4 66.224L340.849 61.4098L340.507 53.3734L347.069 57.9981L354.618 55.193L352.266 62.8882L357.273 69.1808L349.193 69.3324L344.756 76.0041Z" fill="#59D030"/>
<path d="M318.431 154.624L316.535 149.165L310.959 147.611L315.587 144.123L315.359 138.362L320.1 141.697L325.524 139.688L323.818 145.185L327.383 149.734L321.618 149.81L318.431 154.624Z" fill="#0085FF"/>
<path d="M382.155 171.038L382.459 165.238L377.869 161.75L383.445 160.234L385.379 154.775L388.528 159.628L394.293 159.779L390.652 164.252L392.321 169.787L386.935 167.74L382.155 171.038Z" fill="#0085FF"/>
</g>
<defs>
<clipPath id="clip0_201_23868">
<rect width="407" height="242" fill="white"/>
</clipPath>
</defs>
</svg>
