<svg width="40" height="40" viewBox="0 0 40 40" fill="none" xmlns="http://www.w3.org/2000/svg">
<g id="009-family">
<g id="Group">
<path id="Vector" fill-rule="evenodd" clip-rule="evenodd" d="M20.9421 4.375C18.4723 4.375 16.4702 6.37709 16.4702 8.84684V9.51584C16.4702 11.9856 18.4723 13.9877 20.9421 13.9877C23.4118 13.9877 25.4139 11.9856 25.4139 9.51584V8.84684C25.4139 6.37709 23.4118 4.375 20.9421 4.375ZM17.7202 8.84684C17.7202 7.06747 19.1627 5.625 20.9421 5.625C22.7214 5.625 24.1639 7.06747 24.1639 8.84684V9.51584C24.1639 11.2952 22.7214 12.7377 20.9421 12.7377C19.1627 12.7377 17.7202 11.2952 17.7202 9.51584V8.84684Z" fill="#0085FF"/>
<path id="Vector_2" fill-rule="evenodd" clip-rule="evenodd" d="M5.625 10.7812C5.625 8.45131 7.51381 6.5625 9.84375 6.5625C12.1737 6.5625 14.0625 8.45131 14.0625 10.7812V11.4062C14.0625 13.7362 12.1737 15.625 9.84375 15.625C7.51381 15.625 5.625 13.7362 5.625 11.4062V10.7812ZM9.84375 7.8125C8.20416 7.8125 6.875 9.14166 6.875 10.7812V11.4062C6.875 13.0458 8.20416 14.375 9.84375 14.375C11.4833 14.375 12.8125 13.0458 12.8125 11.4062V10.7812C12.8125 9.14166 11.4833 7.8125 9.84375 7.8125Z" fill="#0085FF"/>
<path id="Vector_3" d="M2.5 21.0937C2.5 18.246 4.80853 15.9374 7.65625 15.9374H11.4062C12.4073 15.9374 13.3427 16.2232 14.1341 16.7174C15.1263 15.3211 16.757 14.4102 18.6003 14.4102H22.6144C23.8978 14.4102 25.0796 14.8525 26.0133 15.5925C26.2838 15.8069 26.3292 16.2 26.1148 16.4705C25.9004 16.7411 25.5073 16.7865 25.2367 16.5721C24.5161 16.0009 23.6059 15.6602 22.6144 15.6602H18.6003C16.2667 15.6602 14.375 17.5519 14.375 19.8855C14.375 20.2307 14.0952 20.5105 13.75 20.5105C13.4048 20.5105 13.125 20.2307 13.125 19.8855C13.125 19.1527 13.269 18.4535 13.5302 17.8147C12.9189 17.4177 12.1901 17.1874 11.4062 17.1874H7.65625C5.49887 17.1874 3.75 18.9363 3.75 21.0937V28.1249C3.75 28.4701 3.47019 28.7499 3.125 28.7499C2.77982 28.7499 2.5 28.4701 2.5 28.1249V21.0937Z" fill="#0085FF"/>
<path id="Vector_4" fill-rule="evenodd" clip-rule="evenodd" d="M30.8275 12.8125C32.6821 12.8125 34.1859 14.3161 34.1859 16.1708V16.6461C34.1859 18.5008 32.6821 20.0044 30.8275 20.0044C28.9728 20.0044 27.4692 18.5008 27.4692 16.6461V16.1708C27.4692 14.3161 28.9728 12.8125 30.8275 12.8125ZM32.9359 16.1708C32.9359 15.0064 31.9918 14.0625 30.8275 14.0625C29.6631 14.0625 28.7192 15.0064 28.7192 16.1708V16.6461C28.7192 17.8105 29.6631 18.7544 30.8275 18.7544C31.9918 18.7544 32.9359 17.8105 32.9359 16.6461V16.1708Z" fill="#0085FF"/>
<path id="Vector_5" d="M36.5625 24.3516C36.5625 22.1031 34.7397 20.2803 32.4913 20.2803H29.6391C28.685 20.2803 27.806 20.6093 27.1118 21.1595C26.8413 21.3739 26.7958 21.7671 27.0102 22.0376C27.2247 22.3081 27.6177 22.3535 27.8883 22.1391C28.3695 21.7577 28.9769 21.5303 29.6391 21.5303H32.4913C34.0494 21.5303 35.3125 22.7934 35.3125 24.3516V29.6993C35.3125 30.0445 35.5922 30.3243 35.9375 30.3243C36.2828 30.3243 36.5625 30.0445 36.5625 29.6993V24.3516Z" fill="#0085FF"/>
<path id="Vector_6" fill-rule="evenodd" clip-rule="evenodd" d="M17.1875 19.0625V24.5312H11.7188C11.0284 24.5312 10.4688 25.0909 10.4688 25.7812V29.5312C10.4688 30.2216 11.0284 30.7812 11.7188 30.7812H17.1875V36.25C17.1875 36.9403 17.7472 37.5 18.4375 37.5H22.1875C22.8778 37.5 23.4375 36.9403 23.4375 36.25V30.7812H28.9062C29.5966 30.7812 30.1562 30.2216 30.1562 29.5312V25.7812C30.1562 25.0909 29.5966 24.5312 28.9062 24.5312H23.4375V19.0625C23.4375 18.3722 22.8778 17.8125 22.1875 17.8125H18.4375C17.7472 17.8125 17.1875 18.3722 17.1875 19.0625ZM17.1875 25.7812C17.8778 25.7812 18.4375 25.2216 18.4375 24.5312V19.0625H22.1875V24.5312C22.1875 25.2216 22.7472 25.7812 23.4375 25.7812H28.9062V29.5312H23.4375C22.7472 29.5312 22.1875 30.0909 22.1875 30.7812V36.25H18.4375V30.7812C18.4375 30.0909 17.8778 29.5312 17.1875 29.5312H11.7188V25.7812H17.1875Z" fill="#0085FF"/>
</g>
</g>
</svg>
