<svg width="40" height="40" viewBox="0 0 40 40" fill="none" xmlns="http://www.w3.org/2000/svg">
<g id="008-healthy" clip-path="url(#clip0_105_9126)">
<g id="Group">
<path id="Vector" d="M20.0001 7.8085C21.9456 7.8085 23.5285 6.22563 23.5285 4.2801V2.92748C23.5285 1.35258 22.2472 0.0712891 20.6723 0.0712891H19.3279C17.753 0.0712891 16.4717 1.35258 16.4717 2.92748V4.2801C16.4718 6.22571 18.0545 7.8085 20.0001 7.8085ZM17.6437 2.92748C17.6437 1.99878 18.3992 1.2432 19.3279 1.2432H20.6724C21.6011 1.2432 22.3566 1.99878 22.3566 2.92748V4.2801C22.3566 5.57944 21.2996 6.63659 20.0002 6.63659C18.7007 6.63659 17.6437 5.57952 17.6437 4.2801V2.92748Z" fill="#0085FF"/>
<path id="Vector_2" d="M25.7188 11.7947L33.2942 4.2191C33.7611 3.75229 34.0183 3.13141 34.0183 2.47092C34.0183 1.81035 33.7611 1.18955 33.294 0.722426C32.3298 -0.240887 30.7614 -0.240809 29.7977 0.722661L29.1918 1.32862C28.963 1.55745 28.9631 1.92848 29.1919 2.15724C29.4208 2.38608 29.7918 2.38608 30.0205 2.15716L30.6263 1.55128C31.1331 1.04455 31.9583 1.0447 32.4655 1.55128C32.7111 1.79684 32.8463 2.12341 32.8463 2.47092C32.8463 2.81836 32.7111 3.14493 32.4655 3.39056L27.1416 8.71519L25.3025 6.87599L28.058 4.12012C28.2868 3.89128 28.2867 3.52025 28.0579 3.2915C27.8291 3.06266 27.458 3.06266 27.2293 3.29157L23.1672 7.35382C22.3212 8.19947 21.1966 8.66519 20.0004 8.66519C18.8039 8.66519 17.679 8.19924 16.833 7.35327L10.2024 0.722661C9.23884 -0.240809 7.67051 -0.240887 6.70594 0.722661C6.23905 1.18955 5.98193 1.81035 5.98193 2.47092C5.98193 3.13141 6.23913 3.75229 6.70594 4.2191L14.2815 11.7947C14.5007 12.0139 14.6214 12.3054 14.6214 12.6153V13.8147C13.5217 15.0918 12.8862 16.7417 12.8862 18.4649C12.8862 22.1449 15.6949 25.1811 19.2812 25.5426L17.3122 34.6173L13.443 34.6175L14.9522 25.8915C15.0073 25.5725 14.7936 25.2693 14.4746 25.2143C14.1556 25.159 13.8525 25.3729 13.7974 25.6918L12.182 35.0326L10.9686 37.7766C10.7515 38.2682 10.7971 38.8307 11.0906 39.2811C11.384 39.7312 11.8797 40 12.4166 40H15.9168C16.7993 40 17.55 39.346 17.6745 38.4742L20.0002 27.7561L22.3259 38.4742C22.4504 39.3461 23.2011 40 24.0836 40H27.5838C28.1208 40 28.6164 39.7312 28.9098 39.2811C29.2033 38.8307 29.249 38.2682 29.0318 37.7763L27.8184 35.0326L25.6908 22.7294C26.5842 21.5403 27.1142 20.0634 27.1142 18.465C27.1142 16.6885 26.4596 15.062 25.3791 13.814C25.4166 13.2237 25.2126 12.288 25.7188 11.7947ZM7.15385 2.47084C7.15385 2.12333 7.28909 1.79676 7.53441 1.55144C7.78824 1.29791 8.12138 1.17119 8.45452 1.17119C8.7875 1.17119 9.12048 1.29791 9.37384 1.5512L14.6986 6.87599L12.8594 8.71519L7.53456 3.39041C7.28909 3.14493 7.15385 2.81836 7.15385 2.47084ZM16.5156 38.2988C16.4774 38.6006 16.2199 38.8281 15.9167 38.8281H12.4165C12.2158 38.8281 12.109 38.6974 12.0724 38.6413C12.0357 38.585 11.9592 38.4342 12.0404 38.2502L13.1286 35.7895L17.0578 35.7893L16.5242 38.2483C16.5206 38.2649 16.5178 38.2819 16.5156 38.2988ZM24.6883 23.8106L26.5571 34.6175H22.6881L20.719 25.5425C22.2312 25.3902 23.6049 24.762 24.6883 23.8106ZM27.9277 38.6413C27.8912 38.6974 27.7844 38.8281 27.5837 38.8281H24.0835C23.7803 38.8281 23.5228 38.6006 23.4846 38.2988C23.4825 38.2819 23.4796 38.2649 23.476 38.2483L22.9424 35.7896H26.8715L27.9596 38.25C28.0409 38.4342 27.9645 38.5849 27.9277 38.6413ZM20.0001 24.4069C16.7236 24.4069 14.0581 21.7413 14.0581 18.4649C14.0581 16.3765 15.1754 14.4167 16.9739 13.3501C17.2522 13.185 17.3441 12.8256 17.179 12.5472C17.0139 12.2689 16.6546 12.177 16.3761 12.3421C16.1745 12.4616 15.9801 12.5906 15.7932 12.7281C15.8231 12.1623 15.5834 11.432 15.11 10.966L13.688 9.54389L15.5273 7.70469L16.0044 8.18182C17.0718 9.24919 18.4909 9.83703 20.0004 9.83703C21.5095 9.83703 22.9284 9.24943 23.9957 8.18252L24.4737 7.70461L26.3129 9.54381L24.8904 10.9659C24.4748 11.369 24.1755 12.0789 24.2068 12.732C23.0277 11.8644 21.5728 11.3511 20.0001 11.3511C19.6972 11.3511 19.3924 11.3704 19.094 11.4083C18.773 11.4491 18.5459 11.7425 18.5867 12.0635C18.6276 12.3845 18.9206 12.6118 19.242 12.5708C19.4914 12.5391 19.7465 12.523 20.0001 12.523C23.2765 12.523 25.942 15.1885 25.942 18.4649C25.942 21.7413 23.2765 24.4069 20.0001 24.4069Z" fill="#0085FF"/>
<path id="Vector_3" d="M22.6903 15.1882C22.2198 15.1882 21.7776 15.3714 21.4451 15.704L19.2176 17.9315L18.1498 16.8636C17.4632 16.1771 16.3461 16.1771 15.6595 16.8637C14.9729 17.5502 14.9729 18.6673 15.6595 19.3539L17.8897 21.5841C18.2558 21.9502 18.7367 22.1332 19.2176 22.1332C19.6986 22.1332 20.1795 21.9502 20.5456 21.5841L23.9354 18.1943C24.268 17.8617 24.4512 17.4195 24.4512 16.9491C24.4512 16.4787 24.2681 16.0365 23.9354 15.704C23.6028 15.3714 23.1606 15.1882 22.6903 15.1882ZM23.1067 17.3656L19.7168 20.7555C19.4415 21.0307 18.9936 21.0307 18.7183 20.7555L16.4882 18.5253C16.2586 18.2957 16.2586 17.922 16.4882 17.6924C16.603 17.5775 16.7538 17.5201 16.9047 17.5201C17.0555 17.5201 17.2063 17.5775 17.3212 17.6923L18.6168 18.9879C18.9481 19.3192 19.4873 19.3192 19.8186 18.9879L22.2739 16.5327C22.3851 16.4214 22.533 16.3601 22.6903 16.3601C22.8477 16.3601 22.9956 16.4214 23.1068 16.5327C23.2181 16.6439 23.2793 16.7918 23.2793 16.9492C23.2793 17.1065 23.2179 17.2544 23.1067 17.3656Z" fill="#0085FF"/>
</g>
</g>
<defs>
<clipPath id="clip0_105_9126">
<rect width="40" height="40" fill="white"/>
</clipPath>
</defs>
</svg>
