<svg width="40" height="34" viewBox="0 0 40 34" fill="none" xmlns="http://www.w3.org/2000/svg">
<g id="Group">
<path id="Vector" d="M37.3932 1.95637C27.2422 5.20221 21.5217 0.462123 13.0596 0.000872702C12.6917 -0.0177106 12.3777 0.262706 12.3576 0.630289C12.3376 0.997956 12.6194 1.31221 12.987 1.33229C21.1509 1.77721 27.2677 6.59387 37.7993 3.22637C38.2286 3.08929 38.6667 3.41029 38.6667 3.86162V25.5725C38.6667 26.1469 38.2981 26.656 37.7494 26.8396C23.6162 31.5697 17.6056 20.7084 2.25683 26.959C1.81617 27.1384 1.33333 26.8213 1.33333 26.344V5.12071C1.33333 4.30912 1.81967 3.58296 2.57242 3.27071C4.661 2.40437 6.63033 1.83862 8.59283 1.54129C8.95692 1.48612 9.20725 1.14629 9.15217 0.782289C9.097 0.418206 8.75633 0.167706 8.39317 0.223039C6.32242 0.536873 4.25133 1.13087 2.0615 2.03912C0.80925 2.55862 0 3.76821 0 5.12071V26.3439C0 27.7648 1.44225 28.7304 2.75975 28.1939C17.6028 22.1492 23.5365 33.0025 38.1726 28.104C39.2657 27.7382 40 26.7209 40 25.5725V3.86162C40 2.51446 38.6902 1.54154 37.3932 1.95637Z" fill="#0085FF"/>
<path id="Vector_2" d="M37.7494 31.0064C37.6956 31.0244 37.6418 31.0423 37.5882 31.0599C37.2383 31.1745 37.0476 31.5511 37.1622 31.901C37.2767 32.2504 37.6527 32.4416 38.0034 32.3269C38.0598 32.3084 38.1163 32.2897 38.1731 32.2707C38.5221 32.1538 38.7103 31.7759 38.5934 31.4268C38.4763 31.0776 38.0983 30.8894 37.7494 31.0064Z" fill="#0085FF"/>
<path id="Vector_3" d="M34.2822 31.9022C22.597 34.0006 16.2648 25.421 2.2567 31.1257C1.9157 31.2646 1.75187 31.6535 1.8907 31.9945C2.02945 32.3356 2.41845 32.4994 2.75962 32.3605C16.3721 26.817 22.2983 35.4089 34.5179 33.2145C34.8803 33.1494 35.1213 32.8029 35.0562 32.4405C34.9911 32.0782 34.6455 31.8369 34.2822 31.9022Z" fill="#0085FF"/>
<path id="Vector_4" d="M31.051 24.4087C30.6839 24.4365 30.4088 24.7567 30.4366 25.1238C30.4643 25.4903 30.7839 25.7662 31.1517 25.7382C32.7519 25.617 34.3465 25.3108 36.0265 24.8021C36.3077 24.7169 36.5 24.4578 36.5 24.164V6.60699C36.5 6.16049 36.0685 5.8394 35.6402 5.9689C33.7188 6.55065 31.9044 6.8559 30.0931 6.9019C29.725 6.91124 29.4342 7.21724 29.4436 7.58532C29.4529 7.9534 29.7579 8.24199 30.1269 8.23482C31.7856 8.19265 33.4424 7.94815 35.1667 7.48965V23.6643C33.7539 24.0622 32.4028 24.3063 31.051 24.4087Z" fill="#0085FF"/>
<path id="Vector_5" d="M27.7716 25.7116C28.1437 25.7449 28.4625 25.4688 28.4947 25.1066C28.525 24.7668 28.2944 24.4194 27.8611 24.3808C27.4936 24.3482 27.1706 24.6191 27.1379 24.9858C27.1076 25.3256 27.3382 25.6728 27.7716 25.7116Z" fill="#0085FF"/>
<path id="Vector_6" d="M13.7922 5.06357C14.1599 5.09607 14.4828 4.82566 14.5155 4.45891C14.5483 4.09224 14.2776 3.76832 13.9108 3.73557C10.6296 3.44241 7.45983 3.91257 3.93558 5.21541C3.67375 5.31216 3.5 5.56166 3.5 5.84074V23.3978C3.5 23.8616 3.96267 24.1838 4.39783 24.0232C6.91533 23.0925 9.26067 22.6109 11.5681 22.5509C11.9362 22.5413 12.2268 22.2352 12.2172 21.8672C12.2077 21.4991 11.8977 21.2096 11.5334 21.2181C9.35625 21.2747 7.15583 21.6807 4.83333 22.4565V6.30882C7.9915 5.19666 10.85 4.80074 13.7922 5.06357Z" fill="#0085FF"/>
<path id="Vector_7" d="M10.6314 12.4958C9.82324 12.5374 9.00307 12.6243 8.19349 12.7542C7.82999 12.8125 7.58257 13.1545 7.64082 13.518C7.69924 13.8816 8.04107 14.1289 8.40474 14.0707C9.16707 13.9483 9.93932 13.8665 10.6999 13.8274C11.0676 13.8085 11.3504 13.4951 11.3314 13.1274C11.3126 12.7597 10.998 12.4761 10.6314 12.4958Z" fill="#0085FF"/>
<path id="Vector_8" d="M28.66 16.1848C28.6415 16.5525 28.9245 16.8656 29.2923 16.8842C30.1215 16.926 30.9277 16.9223 31.6918 16.8809C32.0595 16.8609 32.3414 16.5468 32.3215 16.1791C32.3016 15.8115 31.9859 15.5302 31.6197 15.5495C30.8771 15.5898 30.1169 15.5908 29.3595 15.5526C28.991 15.5345 28.6786 15.8171 28.66 16.1848Z" fill="#0085FF"/>
<path id="Vector_9" d="M21.1814 16.0877C23.3411 16.0877 25.0981 14.3307 25.0981 12.1711C25.0981 10.0114 23.3411 8.25439 21.1814 8.25439H17.1667C16.7985 8.25439 16.5 8.55289 16.5 8.92106V18.0877H15.6667C15.2985 18.0877 15 18.3862 15 18.7544C15 19.1226 15.2985 19.4211 15.6667 19.4211H16.5V21.2544C16.5 21.6226 16.7985 21.9211 17.1667 21.9211C17.5348 21.9211 17.8333 21.6226 17.8333 21.2544V19.4211H20.8333C21.2015 19.4211 21.5 19.1226 21.5 18.7544C21.5 18.3862 21.2015 18.0877 20.8333 18.0877H17.8333V16.0877H21.1814ZM17.8333 9.58773H21.1814C22.6059 9.58773 23.7648 10.7466 23.7648 12.1711C23.7648 13.5955 22.6059 14.7544 21.1814 14.7544H17.8333V9.58773Z" fill="#0085FF"/>
</g>
</svg>
