<svg width="39" height="39" viewBox="0 0 39 39" fill="none" xmlns="http://www.w3.org/2000/svg">
<path d="M36.875 30H33.6613C33.3819 28.9244 32.4119 28.125 31.25 28.125V23.7337C31.7738 24.1306 32.4188 24.375 33.125 24.375C34.8481 24.375 36.25 22.9731 36.25 21.25C36.25 21.0544 36.23 20.8575 36.19 20.6606C37.0094 20.08 37.5 19.1488 37.5 18.125C37.5 17.2431 37.135 16.4269 36.4987 15.8425C36.7437 15.39 36.875 14.8856 36.875 14.375C36.875 13.5994 36.5838 12.8612 36.0638 12.29C36.1875 11.9519 36.25 11.6038 36.25 11.25C36.25 9.65 35.0419 8.3275 33.49 8.14625C33.0056 7.00938 31.8869 6.25 30.625 6.25C29.3631 6.25 28.2444 7.00938 27.76 8.14625C26.2081 8.3275 25 9.65 25 11.25C25 11.6038 25.0625 11.9519 25.1863 12.29C24.8587 12.6494 24.635 13.0787 24.5044 13.5381C23.7394 12.8844 22.84 12.5 21.875 12.5C20.685 12.5 19.5925 13.0763 18.7331 14.0344C18.6531 13.1969 18.2806 12.3969 17.6831 11.7994L15.8837 10H18.75V8.74125C18.75 8.155 18.4581 7.59563 17.9694 7.24563C15.7087 5.62563 13.885 3.44125 12.6969 0.9275C12.4263 0.355 11.8713 0 11.25 0C10.6287 0 10.0737 0.355 9.80312 0.9275C8.61562 3.44125 6.79187 5.62625 4.53 7.24563C4.04187 7.59563 3.75 8.155 3.75 8.74125V10H6.61625L4.81687 11.7994C4.13875 12.4775 3.75 13.4163 3.75 14.375V15H6.61625L4.81687 16.7994C4.13875 17.4775 3.75 18.4163 3.75 19.375V20H10.625V22.5C9.025 22.5 7.7025 23.7081 7.52125 25.26C6.38438 25.7444 5.625 26.8631 5.625 28.125C5.625 28.8156 5.85562 29.4794 6.24813 30C5.215 30.0012 4.375 30.8419 4.375 31.875C4.375 32.22 4.095 32.5 3.75 32.5H1.875C0.84125 32.5 0 33.3413 0 34.375C0 35.4087 0.84125 36.25 1.875 36.25H5.115C5.045 36.4463 5 36.655 5 36.875C5 37.9087 5.84125 38.75 6.875 38.75H31.25C32.2837 38.75 33.125 37.9087 33.125 36.875C33.125 35.8413 32.2837 35 31.25 35H30H29.375C29.03 35 28.75 34.72 28.75 34.375C28.75 34.03 29.03 33.75 29.375 33.75H36.875C37.9087 33.75 38.75 32.9087 38.75 31.875C38.75 30.8412 37.9087 30 36.875 30ZM32.3187 30H23.9344C24.0819 29.7525 24.305 29.5513 24.5919 29.4513L25.0256 29.3L25.0106 28.8406C25.0094 28.8006 25.005 28.7619 25 28.75C25 27.7162 25.8412 26.875 26.875 26.875C27.5425 26.875 28.165 27.2438 28.5 27.8369L28.6481 28.1L28.9469 28.1469C29.4281 28.2231 29.8219 28.5775 29.95 29.0506L30.1338 29.7294L30.7862 29.4669C31.3875 29.2269 32.0181 29.5056 32.3187 30ZM22.5 26.1906C23.8937 25.95 25.1081 24.9188 25.9025 23.4325C26.4806 24.0175 27.2763 24.375 28.125 24.375C28.8312 24.375 29.4762 24.1306 30 23.7337V27.2288C29.8225 27.125 29.6362 27.035 29.435 26.9775C28.8538 26.1363 27.8975 25.625 26.875 25.625C25.2494 25.625 23.91 26.8725 23.7631 28.46C23.1756 28.795 22.7513 29.3531 22.5819 30H22.5V26.1906ZM26.3306 12.9244L26.7362 12.5969L26.4869 12.1394C26.33 11.85 26.25 11.5506 26.25 11.25C26.25 10.2163 27.0913 9.375 28.0844 9.37313L28.6912 9.40438L28.8162 8.91313C29.0281 8.08125 29.7725 7.5 30.625 7.5C31.4775 7.5 32.2219 8.08125 32.4344 8.91313L32.5594 9.40438L33.0669 9.38313C33.1 9.38188 33.1331 9.37813 33.125 9.375C34.1587 9.375 35 10.2163 35 11.25C35 11.5506 34.92 11.85 34.7631 12.1388L34.5137 12.5962L34.9194 12.9237C35.3681 13.2863 35.625 13.815 35.625 14.375C35.625 14.93 35.3781 15.3362 35.1712 15.58L34.6931 16.1431L35.3281 16.5206C35.905 16.8656 36.25 17.465 36.25 18.125C36.25 18.8444 35.8425 19.4894 35.185 19.8062L34.6706 20.055L34.8725 20.5894C34.9575 20.8144 35 21.0362 35 21.25C35 22.2838 34.1587 23.125 33.125 23.125C32.0913 23.125 31.25 22.2838 31.25 21.25V19.595L33.6131 16.6406L32.6362 15.8594L31.25 17.5925V11.25H30V15.0925L28.6131 13.3594L27.6362 14.1406L30 17.095V21.25C30 22.2838 29.1588 23.125 28.125 23.125C27.4231 23.125 26.78 22.7206 26.4613 22.1056C26.7263 21.2675 26.875 20.345 26.875 19.375C26.875 17.6381 26.4006 16.0544 25.625 14.8431V14.375C25.625 13.815 25.8819 13.2863 26.3306 12.9244ZM21.875 13.75C23.9431 13.75 25.625 16.2731 25.625 19.375C25.625 22.1569 24.2706 24.4669 22.5 24.9156V20.22L24.8631 17.2656L23.8862 16.4844L22.5 18.2175V16.25H21.25V21.0606L19.895 19.0281L18.855 19.7213L21.25 23.3144V24.9156C19.4794 24.4675 18.125 22.1569 18.125 19.375C18.125 16.2731 19.8069 13.75 21.875 13.75ZM18.0212 15C17.7537 15.4444 17.5312 15.9394 17.3512 16.4669L15.8837 15H18.0212ZM5.70063 17.6831L8.38375 15H9.375V13.75H5.08438C5.19375 13.3494 5.40563 12.9787 5.70063 12.6831L8.38375 10H9.375V8.75H5V8.74125C5 8.55437 5.09375 8.37938 5.25813 8.26125C7.6925 6.51875 9.65438 4.16687 10.9331 1.46187C11.0562 1.19938 11.4431 1.19938 11.5669 1.46187C12.8456 4.16687 14.8081 6.51875 17.2413 8.26125C17.4062 8.37938 17.5 8.555 17.5 8.74125L13.125 8.75V10H14.1163L16.7994 12.6831C17.095 12.9787 17.3069 13.3494 17.4156 13.75H13.125V15H14.1163L16.7994 17.6831C16.8694 17.7531 16.9331 17.8269 16.9931 17.9037C16.9494 18.18 16.9169 18.4619 16.8981 18.75H5.08438C5.19375 18.3494 5.405 17.9788 5.70063 17.6831ZM11.875 20H16.8981C17.11 23.2138 18.9363 25.7912 21.25 26.1906V30H18.74C19.1444 29.4625 19.375 28.8081 19.375 28.125C19.375 26.4019 17.9731 25 16.25 25C16.0544 25 15.8569 25.02 15.6606 25.06C15.08 24.2406 14.1494 23.75 13.125 23.75C13.1206 23.75 13.1156 23.75 13.1119 23.75C12.7875 23.3181 12.3581 22.9856 11.875 22.7712V20ZM8.28813 26.3156L8.77938 26.1906L8.75812 25.6831C8.75688 25.6531 8.75375 25.6231 8.75063 25.6231C8.75063 25.6231 8.75 25.6238 8.75 25.6244C8.75 24.5906 9.59125 23.7494 10.625 23.7494C11.2944 23.7494 11.9169 24.1187 12.2512 24.7131L12.5144 25.0781L12.9375 25.0187C12.9988 25.0112 13.0606 25 13.125 25C13.845 25 14.4894 25.4075 14.8063 26.0644L15.055 26.5806L15.5906 26.3769C16.8769 25.8894 18.1256 26.8756 18.125 28.125C18.125 28.6625 17.8937 29.1756 17.4894 29.5312L17.1275 30H7.94812L7.51 29.5312C7.10625 29.1756 6.875 28.6625 6.875 28.125C6.875 27.2725 7.45625 26.5281 8.28813 26.3156ZM36.875 32.5H29.375C28.3412 32.5 27.5 33.3413 27.5 34.375C27.5 34.595 27.545 34.8037 27.615 35H26.25V36.25H29.375H30H31.25C31.595 36.25 31.875 36.53 31.875 36.875C31.875 37.22 31.595 37.5 31.25 37.5H6.875C6.53 37.5 6.25 37.22 6.25 36.875C6.25 36.53 6.53 36.25 6.875 36.25H8.75H10.625V35H8.75H6.875H1.875C1.53 35 1.25 34.72 1.25 34.375C1.25 34.03 1.53 33.75 1.875 33.75H3.75C4.78375 33.75 5.625 32.9087 5.625 31.875C5.625 31.53 5.905 31.25 6.25 31.25H36.875C37.22 31.25 37.5 31.53 37.5 31.875C37.5 32.22 37.22 32.5 36.875 32.5Z" fill="#0085FF"/>
<path d="M14.375 34.0625C14.375 33.2006 13.6744 32.5 12.8125 32.5H10.625V33.75H12.8125C12.9844 33.75 13.125 33.8906 13.125 34.0625C13.125 34.9244 13.8256 35.625 14.6875 35.625H16.875V34.375H14.6875C14.5156 34.375 14.375 34.2344 14.375 34.0625Z" fill="#0085FF"/>
</svg>
