<svg width="40" height="40" viewBox="0 0 40 40" fill="none" xmlns="http://www.w3.org/2000/svg">
<g id="005-excursion" clip-path="url(#clip0_105_9079)">
<g id="040---Group-Excursion">
<path id="Shape" d="M8.6665 33.3335C7.56193 33.3335 6.6665 34.2289 6.6665 35.3335C6.6665 36.4381 7.56193 37.3335 8.6665 37.3335C9.77107 37.3335 10.6665 36.4381 10.6665 35.3335C10.6665 34.2289 9.77107 33.3335 8.6665 33.3335ZM8.6665 36.0002C8.29831 36.0002 7.99984 35.7017 7.99984 35.3335C7.99984 34.9653 8.29831 34.6668 8.6665 34.6668C9.03469 34.6668 9.33317 34.9653 9.33317 35.3335C9.33317 35.7017 9.03469 36.0002 8.6665 36.0002Z" fill="#0085FF"/>
<path id="Shape_2" d="M30.6665 33.3335C29.5619 33.3335 28.6665 34.2289 28.6665 35.3335C28.6665 36.4381 29.5619 37.3335 30.6665 37.3335C31.7711 37.3335 32.6665 36.4381 32.6665 35.3335C32.6665 34.2289 31.7711 33.3335 30.6665 33.3335ZM30.6665 36.0002C30.2983 36.0002 29.9998 35.7017 29.9998 35.3335C29.9998 34.9653 30.2983 34.6668 30.6665 34.6668C31.0347 34.6668 31.3332 34.9653 31.3332 35.3335C31.3332 35.7017 31.0347 36.0002 30.6665 36.0002Z" fill="#0085FF"/>
<path id="Shape_3" d="M34.6667 16.0001H33.0667C34.1424 10.7024 31.913 5.27958 27.4223 2.27035C22.9316 -0.73888 17.0684 -0.73888 12.5777 2.27035C8.08697 5.27958 5.85761 10.7024 6.93333 16.0001H4C1.79177 16.0023 0.00220494 17.7918 1.58285e-08 20.0001V32.0001C-9.51175e-05 33.0702 0.428646 34.0958 1.19037 34.8475C1.95209 35.5992 2.98326 36.0143 4.05333 36.0001C4.38286 38.2946 6.3486 39.9982 8.66667 39.9982C10.9847 39.9982 12.9505 38.2946 13.28 36.0001H26.0533C26.3829 38.2946 28.3486 39.9982 30.6667 39.9982C32.9847 39.9982 34.9505 38.2946 35.28 36.0001H38C39.1046 36.0001 40 35.1046 40 34.0001V21.3334C39.9967 18.3892 37.6108 16.0034 34.6667 16.0001ZM25.7733 25.3334C27.3823 24.5562 28.8195 23.4648 30 22.1234V25.3334H25.7733ZM31.3333 20.3221C31.4 20.2154 31.4667 20.1087 31.5293 20.0001H34C34.7364 20.0001 35.3333 20.597 35.3333 21.3334V27.3334H32.6667C31.9303 27.3334 31.3333 26.7364 31.3333 26.0001V20.3221ZM20 1.33339C26.6274 1.33339 32 6.70598 32 13.3334C32 19.9608 26.6274 25.3334 20 25.3334C13.3726 25.3334 8 19.9608 8 13.3334C8.00735 6.70902 13.3756 1.34074 20 1.33339ZM6.66667 25.3334C5.5621 25.3334 4.66667 24.438 4.66667 23.3334V20.0001H8.47067C8.73272 20.4496 9.02076 20.8834 9.33333 21.2994V25.3334H6.66667ZM10.6667 22.8394C11.7095 23.8592 12.912 24.7017 14.2267 25.3334H10.6667V22.8394ZM8.66667 38.6667C6.82572 38.6667 5.33333 37.1743 5.33333 35.3334C5.33333 33.4924 6.82572 32.0001 8.66667 32.0001C10.5076 32.0001 12 33.4924 12 35.3334C11.9978 37.1734 10.5067 38.6645 8.66667 38.6667ZM30.6667 38.6667C28.8257 38.6667 27.3333 37.1743 27.3333 35.3334C27.3333 33.4924 28.8257 32.0001 30.6667 32.0001C32.5076 32.0001 34 33.4924 34 35.3334C33.9978 37.1734 32.5067 38.6645 30.6667 38.6667ZM38.6667 32.0001H37.3333V30.6667H38.6667V32.0001ZM38.6667 29.3334H37.3333C36.597 29.3334 36 29.9303 36 30.6667V32.0001C36 32.7364 36.597 33.3334 37.3333 33.3334H38.6667V34.0001C38.6667 34.3683 38.3682 34.6667 38 34.6667H35.28C34.9505 32.3722 32.9847 30.6686 30.6667 30.6686C28.3486 30.6686 26.3829 32.3722 26.0533 34.6667H13.28C12.9505 32.3722 10.9847 30.6686 8.66667 30.6686C6.3486 30.6686 4.38286 32.3722 4.05333 34.6667C3.33689 34.6811 2.64483 34.4064 2.13314 33.9048C1.62145 33.4031 1.33319 32.7166 1.33333 32.0001V20.0001C1.33333 18.5273 2.52724 17.3334 4 17.3334H7.28133C7.42606 17.7866 7.59519 18.2317 7.788 18.6667H4.66667C3.93029 18.6667 3.33333 19.2637 3.33333 20.0001V23.3334C3.33554 25.1734 4.82663 26.6645 6.66667 26.6667H30.0947C30.3977 27.8405 31.4544 28.6622 32.6667 28.6667H35.3333C36.0697 28.6667 36.6667 28.0698 36.6667 27.3334V21.3334C36.6667 19.8606 35.4728 18.6667 34 18.6667H32.212C32.4048 18.2317 32.5739 17.7866 32.7187 17.3334H34.6667C36.8749 17.3356 38.6645 19.1252 38.6667 21.3334V29.3334Z" fill="#0085FF"/>
<path id="Shape_4" d="M27.9998 28H3.33317C2.96498 28 2.6665 28.2985 2.6665 28.6667C2.6665 29.0349 2.96498 29.3333 3.33317 29.3333H27.9998C28.368 29.3333 28.6665 29.0349 28.6665 28.6667C28.6665 28.2985 28.368 28 27.9998 28Z" fill="#0085FF"/>
<path id="Shape_5" d="M20 11.3335C21.1046 11.3335 22 10.4381 22 9.3335C22 8.22893 21.1046 7.3335 20 7.3335C18.8954 7.3335 18 8.22893 18 9.3335C18 10.4381 18.8954 11.3335 20 11.3335ZM20 8.66683C20.3682 8.66683 20.6667 8.96531 20.6667 9.3335C20.6667 9.70169 20.3682 10.0002 20 10.0002C19.6318 10.0002 19.3333 9.70169 19.3333 9.3335C19.3333 8.96531 19.6318 8.66683 20 8.66683Z" fill="#0085FF"/>
<path id="Shape_6" d="M14.6665 10C15.7711 10 16.6665 9.10457 16.6665 8C16.6665 6.89543 15.7711 6 14.6665 6C13.5619 6 12.6665 6.89543 12.6665 8C12.6665 9.10457 13.5619 10 14.6665 10ZM14.6665 7.33333C15.0347 7.33333 15.3332 7.63181 15.3332 8C15.3332 8.36819 15.0347 8.66667 14.6665 8.66667C14.2983 8.66667 13.9998 8.36819 13.9998 8C13.9998 7.63181 14.2983 7.33333 14.6665 7.33333Z" fill="#0085FF"/>
<path id="Shape_7" d="M16 18.0742C15.9903 18.7591 16.5371 19.3225 17.222 19.3335H22.778C23.4629 19.3225 24.0096 18.7591 24 18.0742C24 17.9668 23.548 18.0002 28.1133 18.0002C28.7977 17.9881 29.3433 17.4246 29.3333 16.7402V15.5535C29.3333 11.3882 24.1526 9.7435 21.992 13.2328C20.7712 12.4781 19.2287 12.4781 18.008 13.2328C15.8466 9.7415 10.6666 11.3888 10.6666 15.5535V16.7402C10.6566 17.4246 11.2022 17.9881 11.8866 18.0002C16.4573 18.0002 16 17.9668 16 18.0742ZM28 15.5535V16.6668H23.9893C23.9477 15.7409 23.6097 14.8529 23.0253 14.1335C24.364 11.5495 28 12.6082 28 15.5535ZM22.6666 16.8868V18.0002H17.3333V16.8888C17.2762 15.3563 18.4678 14.0655 20 14.0002C21.5322 14.0655 22.7238 15.3563 22.6666 16.8888V16.8868ZM12 15.5535C12 12.6482 15.622 11.5215 16.9746 14.1355C16.3906 14.8543 16.0527 15.7416 16.0106 16.6668H12V15.5535Z" fill="#0085FF"/>
<path id="Shape_8" d="M25.3335 10C26.4381 10 27.3335 9.10457 27.3335 8C27.3335 6.89543 26.4381 6 25.3335 6C24.2289 6 23.3335 6.89543 23.3335 8C23.3335 9.10457 24.2289 10 25.3335 10ZM25.3335 7.33333C25.7017 7.33333 26.0002 7.63181 26.0002 8C26.0002 8.36819 25.7017 8.66667 25.3335 8.66667C24.9653 8.66667 24.6668 8.36819 24.6668 8C24.6668 7.63181 24.9653 7.33333 25.3335 7.33333Z" fill="#0085FF"/>
</g>
</g>
<defs>
<clipPath id="clip0_105_9079">
<rect width="40" height="40" fill="white"/>
</clipPath>
</defs>
</svg>
