<svg width="40" height="40" viewBox="0 0 40 40" fill="none" xmlns="http://www.w3.org/2000/svg">
<g id="007-ferry-boat">
<path id="Vector" d="M17.4272 30.2163H15.8218C15.6784 30.2163 15.5409 30.1594 15.4396 30.058C15.3382 29.9566 15.2812 29.8192 15.2812 29.6758C15.2812 29.5324 15.3382 29.3949 15.4396 29.2936C15.5409 29.1922 15.6784 29.1353 15.8218 29.1353H17.4272C17.5706 29.1353 17.708 29.1922 17.8094 29.2936C17.9108 29.3949 17.9677 29.5324 17.9677 29.6758C17.9677 29.8192 17.9108 29.9566 17.8094 30.058C17.708 30.1594 17.5706 30.2163 17.4272 30.2163Z" fill="#0085FF"/>
<path id="Vector_2" d="M30.8811 30.2161H21.2108C21.0674 30.2161 20.9299 30.1592 20.8286 30.0578C20.7272 29.9564 20.6702 29.8189 20.6702 29.6756C20.6702 29.5322 20.7272 29.3947 20.8286 29.2934C20.9299 29.192 21.0674 29.135 21.2108 29.135H30.4735C31.2843 26.7994 34.6162 23.6691 34.7659 23.5291C37.42 21.1296 37.7929 17.421 37.8346 15.9929C35.3773 16.3388 32.8648 16.7626 30.3583 17.2545C21.994 18.9014 13.7622 21.1617 5.7297 24.0172C3.95295 24.6518 2.71889 25.135 2.16214 25.354V29.135H6.68646C6.82982 29.135 6.96731 29.192 7.06868 29.2934C7.17005 29.3947 7.227 29.5322 7.227 29.6756C7.227 29.8189 7.17005 29.9564 7.06868 30.0578C6.96731 30.1592 6.82982 30.2161 6.68646 30.2161H1.6216C1.47823 30.2161 1.34075 30.1592 1.23938 30.0578C1.138 29.9564 1.08105 29.8189 1.08105 29.6756V24.9891C1.08112 24.8821 1.11295 24.7775 1.17251 24.6886C1.23208 24.5996 1.3167 24.5304 1.41565 24.4896C1.43024 24.4832 2.87511 23.8902 5.36159 22.9994C13.4465 20.1255 21.7319 17.8507 30.1508 16.1934C32.8859 15.6567 35.6281 15.2004 38.3 14.8372C38.3737 14.8272 38.4488 14.8325 38.5204 14.8528C38.592 14.8732 38.6587 14.9081 38.7162 14.9554C38.7737 15.0027 38.8208 15.0613 38.8546 15.1277C38.8883 15.194 38.908 15.2667 38.9124 15.341C38.9259 15.5696 39.1989 20.9788 35.4978 24.3248C34.4875 25.2696 31.7681 28.1042 31.4097 29.7886C31.3838 29.9096 31.3172 30.018 31.221 30.0959C31.1248 30.1737 31.0048 30.2161 30.8811 30.2161Z" fill="#0085FF"/>
<path id="Vector_3" d="M12.0378 30.2163H10.4702C10.3269 30.2163 10.1894 30.1594 10.088 30.058C9.98664 29.9566 9.92969 29.8192 9.92969 29.6758C9.92969 29.5324 9.98664 29.3949 10.088 29.2936C10.1894 29.1922 10.3269 29.1353 10.4702 29.1353H12.0378C12.1812 29.1353 12.3186 29.1922 12.42 29.2936C12.5214 29.3949 12.5783 29.5324 12.5783 29.6758C12.5783 29.8192 12.5214 29.9566 12.42 30.058C12.3186 30.1594 12.1812 30.2163 12.0378 30.2163Z" fill="#0085FF"/>
<path id="Vector_4" d="M5.54542 24.0459C5.40206 24.0459 5.26457 23.9889 5.1632 23.8876C5.06183 23.7862 5.00488 23.6487 5.00488 23.5053V15.6286C5.00485 15.5089 5.04453 15.3926 5.1177 15.2979C5.19087 15.2032 5.2934 15.1355 5.40921 15.1053C11.3806 13.5524 23.7081 12.7567 24.2303 12.7226C24.3366 12.7155 24.4426 12.7404 24.5346 12.794L30.5249 16.2534C30.5869 16.2887 30.6412 16.3358 30.6849 16.3922C30.7286 16.4485 30.7607 16.5129 30.7794 16.5817C30.7981 16.6505 30.8029 16.7223 30.7938 16.793C30.7846 16.8637 30.7615 16.9319 30.7258 16.9936C30.6902 17.0554 30.6427 17.1094 30.5861 17.1527C30.5294 17.196 30.4648 17.2277 30.3959 17.2459C30.327 17.2641 30.2551 17.2686 30.1845 17.2589C30.1139 17.2492 30.0458 17.2257 29.9843 17.1897L24.1362 13.8124C22.6714 13.9107 11.7303 14.6816 6.08596 16.0497V23.5053C6.08596 23.6487 6.02901 23.7862 5.92764 23.8876C5.82627 23.9889 5.68878 24.0459 5.54542 24.0459Z" fill="#0085FF"/>
<path id="Vector_5" d="M5.54542 19.9757C5.41799 19.9761 5.2945 19.9316 5.19674 19.8498C5.09898 19.7681 5.03324 19.6544 5.01113 19.5289C4.98902 19.4034 5.01195 19.2742 5.07589 19.1639C5.13982 19.0537 5.24065 18.9696 5.36056 18.9265C12.3746 16.3789 26.6579 14.26 26.8027 14.2389C26.9446 14.218 27.0889 14.2544 27.204 14.34C27.319 14.4255 27.3954 14.5533 27.4162 14.6951C27.4371 14.837 27.4007 14.9813 27.3152 15.0964C27.2296 15.2114 27.1019 15.2878 26.96 15.3086C26.8179 15.3297 12.6406 17.4324 5.72975 19.9427C5.67069 19.9643 5.60832 19.9755 5.54542 19.9757Z" fill="#0085FF"/>
<path id="Vector_6" d="M14.4431 14.6972C14.3256 14.6972 14.2112 14.6589 14.1174 14.5881C14.0235 14.5173 13.9553 14.4178 13.9231 14.3048L12.8312 10.4723C12.8083 10.3919 12.8044 10.3072 12.8197 10.225C12.8351 10.1428 12.8693 10.0653 12.9197 9.9985C12.9701 9.93175 13.0353 9.87761 13.1102 9.84033C13.1851 9.80306 13.2676 9.78367 13.3512 9.78369H17.2215C17.3365 9.78368 17.4486 9.82037 17.5413 9.88842C17.6341 9.95647 17.7027 10.0523 17.7372 10.1621L18.8074 13.5837C18.8241 13.6361 18.8325 13.6908 18.8323 13.7459C18.8338 13.8793 18.7859 14.0085 18.6978 14.1087C18.6097 14.2089 18.4876 14.273 18.3551 14.2887C18.2226 14.3043 18.089 14.2704 17.98 14.1934C17.871 14.1164 17.7944 14.0019 17.7647 13.8718L16.8242 10.8648H14.0674L14.9631 14.0086C14.986 14.089 14.99 14.1737 14.9746 14.2559C14.9593 14.3381 14.925 14.4156 14.8746 14.4824C14.8242 14.5491 14.759 14.6033 14.6842 14.6406C14.6093 14.6778 14.5268 14.6972 14.4431 14.6972Z" fill="#0085FF"/>
<path id="Vector_7" d="M8.27042 15.5842C8.1507 15.5841 8.03441 15.5442 7.93981 15.4708C7.84521 15.3974 7.77764 15.2947 7.74771 15.1788L6.52609 10.4599C6.50539 10.3801 6.50323 10.2965 6.5198 10.2157C6.53636 10.1349 6.57121 10.0589 6.62166 9.99365C6.67211 9.92838 6.73684 9.87552 6.81088 9.83913C6.88491 9.80274 6.9663 9.78377 7.0488 9.78369H10.9191C11.0351 9.78369 11.148 9.82101 11.2411 9.89012C11.3343 9.95923 11.4027 10.0565 11.4364 10.1675L12.685 14.2804C12.7056 14.3484 12.7127 14.4197 12.7057 14.4904C12.6988 14.561 12.678 14.6296 12.6445 14.6922C12.6111 14.7548 12.5656 14.8103 12.5108 14.8553C12.4559 14.9004 12.3927 14.9342 12.3247 14.9548C12.2568 14.9754 12.1855 14.9824 12.1148 14.9755C12.0442 14.9685 11.9756 14.9477 11.913 14.9143C11.8503 14.8808 11.7949 14.8354 11.7499 14.7805C11.7048 14.7256 11.671 14.6624 11.6504 14.5945L10.5153 10.8648H7.74717L8.79366 14.908C8.81155 14.9768 8.8157 15.0484 8.80587 15.1188C8.79604 15.1892 8.77242 15.257 8.73638 15.3182C8.70033 15.3795 8.65255 15.433 8.59578 15.4758C8.53902 15.5186 8.47437 15.5497 8.40555 15.5675C8.36141 15.5788 8.31599 15.5844 8.27042 15.5842Z" fill="#0085FF"/>
<path id="Vector_8" d="M27.8755 21.741C28.0189 21.741 28.1564 21.684 28.2577 21.5827C28.3591 21.4813 28.416 21.3438 28.416 21.2005C28.416 21.0571 28.3591 20.9196 28.2577 20.8182C28.1564 20.7169 28.0189 20.6599 27.8755 20.6599C27.7321 20.6599 27.5947 20.7169 27.4933 20.8182C27.3919 20.9196 27.335 21.0571 27.335 21.2005C27.335 21.3438 27.3919 21.4813 27.4933 21.5827C27.5947 21.684 27.7321 21.741 27.8755 21.741Z" fill="#0085FF"/>
<path id="Vector_9" d="M24.7056 22.4751C24.8489 22.4751 24.9864 22.4182 25.0878 22.3168C25.1892 22.2154 25.2461 22.0779 25.2461 21.9346C25.2461 21.7912 25.1892 21.6537 25.0878 21.5524C24.9864 21.451 24.8489 21.394 24.7056 21.394C24.5622 21.394 24.4247 21.451 24.3234 21.5524C24.222 21.6537 24.165 21.7912 24.165 21.9346C24.165 22.0779 24.222 22.2154 24.3234 22.3168C24.4247 22.4182 24.5622 22.4751 24.7056 22.4751Z" fill="#0085FF"/>
<path id="Vector_10" d="M21.5352 23.2093C21.6785 23.2093 21.816 23.1523 21.9174 23.0509C22.0188 22.9496 22.0757 22.8121 22.0757 22.6687C22.0757 22.5254 22.0188 22.3879 21.9174 22.2865C21.816 22.1851 21.6785 22.1282 21.5352 22.1282C21.3918 22.1282 21.2543 22.1851 21.1529 22.2865C21.0516 22.3879 20.9946 22.5254 20.9946 22.6687C20.9946 22.8121 21.0516 22.9496 21.1529 23.0509C21.2543 23.1523 21.3918 23.2093 21.5352 23.2093Z" fill="#0085FF"/>
</g>
</svg>
