<svg width="40" height="40" viewBox="0 0 40 40" fill="none" xmlns="http://www.w3.org/2000/svg">
<g id="004-sun" clip-path="url(#clip0_105_9058)">
<path id="Vector" d="M31.5602 15.2951C30.3033 12.2074 27.9192 9.79382 24.847 8.49922C21.7748 7.20462 18.3823 7.18384 15.2946 8.44078C15.056 8.53781 14.8186 8.64367 14.5688 8.76414C14.1801 8.95148 14.017 9.41851 14.2044 9.80718C14.3918 10.1958 14.8589 10.3592 15.2475 10.1715C15.4675 10.0655 15.6756 9.97265 15.8835 9.88796C18.5849 8.78844 21.5526 8.80648 24.2401 9.93913C26.9277 11.0717 29.0134 13.183 30.1129 15.8843C31.2125 18.5856 31.1943 21.5533 30.0617 24.2409C28.9292 26.9285 26.8179 29.0143 24.1166 30.1138C21.4153 31.2133 18.4476 31.1952 15.76 30.0627C13.0725 28.9301 10.9868 26.8188 9.88725 24.1174C8.66937 21.1256 8.83569 17.7682 10.3435 14.9064C10.5446 14.5247 10.3982 14.0522 10.0165 13.8511C9.63491 13.6497 9.16225 13.7963 8.96116 14.1781C7.23781 17.4489 7.04789 21.2864 8.44007 24.7066C9.69702 27.7944 12.0811 30.2079 15.1533 31.5025C16.7134 32.1599 18.3556 32.4889 19.999 32.4888C21.5919 32.4888 23.1859 32.1796 24.7058 31.561C27.7936 30.3041 30.2071 27.92 31.5017 24.8477C32.7964 21.7755 32.8172 18.383 31.5602 15.2951Z" fill="#0085FF"/>
<path id="Vector_2" d="M25.3985 25.6966C25.5461 25.8239 25.7277 25.8862 25.9084 25.8862C26.1277 25.8862 26.3459 25.7944 26.5003 25.6152C28.6193 23.1582 29.1762 19.7664 27.9538 16.7633C27.7911 16.3637 27.3353 16.1715 26.9357 16.3343C26.5361 16.4969 26.344 16.9528 26.5066 17.3524C27.5067 19.8092 27.0509 22.5843 25.317 24.5947C25.0353 24.9215 25.0717 25.4148 25.3985 25.6966Z" fill="#0085FF"/>
<path id="Vector_3" d="M22.2648 27.5946C22.4984 27.9515 22.9963 28.0435 23.3484 27.8102C23.7038 27.5748 23.7986 27.0808 23.5641 26.7274C23.3284 26.3723 22.8348 26.2773 22.4813 26.5118C22.1267 26.747 22.0291 27.2408 22.2648 27.5946Z" fill="#0085FF"/>
<path id="Vector_4" d="M38.9242 11.4542L33.4522 13.6817C33.0526 13.8444 32.8605 14.3002 33.0232 14.6998C33.1466 15.003 33.4387 15.1867 33.7471 15.1867C33.8451 15.1867 33.9449 15.1681 34.0414 15.1288L39.5133 12.9013C39.9129 12.7386 40.1051 12.2828 39.9424 11.8832C39.7797 11.4836 39.324 11.2913 38.9242 11.4542Z" fill="#0085FF"/>
<path id="Vector_5" d="M6.97699 25.3021C6.81425 24.9025 6.35847 24.7103 5.95886 24.8731L0.486909 27.1005C0.0872996 27.2632 -0.10481 27.719 0.0578465 28.1187C0.181284 28.4219 0.473393 28.6055 0.781753 28.6055C0.8798 28.6055 0.979565 28.5869 1.07605 28.5476L6.548 26.3202C6.94753 26.1576 7.13964 25.7018 6.97699 25.3021Z" fill="#0085FF"/>
<path id="Vector_6" d="M39.4248 27.339L33.9804 25.0448C33.5827 24.877 33.1246 25.0637 32.957 25.4613C32.7894 25.8589 32.976 26.317 33.3736 26.4846L38.818 28.7788C39.2106 28.9445 39.676 28.7544 39.8413 28.3623C40.0089 27.9646 39.8224 27.5065 39.4248 27.339Z" fill="#0085FF"/>
<path id="Vector_7" d="M6.32259 15.0189C6.62736 15.0189 6.91705 14.8393 7.04291 14.5409C7.21048 14.1432 7.02392 13.6851 6.62634 13.5175L1.18205 11.2232C0.784547 11.0554 0.326265 11.2422 0.158687 11.6397C-0.00889089 12.0374 0.177672 12.4955 0.57525 12.6631L6.01955 14.9574C6.11861 14.9992 6.22142 15.0189 6.32259 15.0189Z" fill="#0085FF"/>
<path id="Vector_8" d="M26.3191 33.4528C26.1563 33.0531 25.7006 32.8609 25.3009 33.0238C24.9013 33.1864 24.7092 33.6423 24.8718 34.0419L27.0993 39.5139C27.2598 39.9081 27.7229 40.1036 28.1175 39.9429C28.5171 39.7803 28.7092 39.3244 28.5466 38.9248L26.3191 33.4528Z" fill="#0085FF"/>
<path id="Vector_9" d="M14.4041 7.03576C14.5022 7.03576 14.6019 7.01717 14.6984 6.97787C15.098 6.81522 15.2901 6.35936 15.1275 5.95975L12.9001 0.48764C12.7373 0.0880305 12.2815 -0.104157 11.8819 0.0586555C11.4823 0.221312 11.2902 0.677171 11.4529 1.07678L13.6803 6.54881C13.8036 6.85202 14.0958 7.03576 14.4041 7.03576Z" fill="#0085FF"/>
<path id="Vector_10" d="M14.5397 32.9576C14.1419 32.7898 13.6839 32.9766 13.5163 33.3741L11.2222 38.8185C11.0546 39.2161 11.2411 39.6742 11.6387 39.8418C12.0314 40.0075 12.4969 39.8173 12.6621 39.4252L14.9562 33.9809C15.1237 33.5833 14.9372 33.1252 14.5397 32.9576Z" fill="#0085FF"/>
<path id="Vector_11" d="M27.3378 0.57576L25.0435 6.02006C24.8759 6.41771 25.0624 6.87584 25.46 7.04342C25.5591 7.08521 25.6619 7.10498 25.7631 7.10498C26.0678 7.10498 26.3575 6.92537 26.4834 6.62693L28.7777 1.18263C28.9453 0.784979 28.7587 0.326854 28.3611 0.159275C27.9635 -0.00853702 27.5053 0.17826 27.3378 0.57576Z" fill="#0085FF"/>
<path id="Vector_12" d="M37.5794 20.9126C38.0108 20.9126 38.3606 20.5628 38.3606 20.1313C38.3606 19.6999 38.0108 19.3501 37.5794 19.3501H34.8413C34.4098 19.3501 34.0601 19.6999 34.0601 20.1313C34.0601 20.5628 34.4098 20.9126 34.8413 20.9126H37.5794Z" fill="#0085FF"/>
<path id="Vector_13" d="M2.42041 19.0894C1.98893 19.0894 1.63916 19.4392 1.63916 19.8706C1.63916 20.302 1.98893 20.6519 2.42041 20.6519H5.15838C5.58986 20.6519 5.93963 20.302 5.93963 19.8706C5.93963 19.4392 5.58986 19.0894 5.15838 19.0894H2.42041Z" fill="#0085FF"/>
<path id="Vector_14" d="M30.973 30.0249C30.6702 29.7175 30.1755 29.7139 29.8682 30.0168C29.5608 30.3196 29.5572 30.8143 29.8601 31.1217L31.7818 33.0721C31.9347 33.2273 32.1365 33.305 32.3384 33.305C32.5364 33.305 32.7345 33.2302 32.8867 33.0803C33.194 32.7774 33.1977 32.2828 32.8948 31.9754L30.973 30.0249Z" fill="#0085FF"/>
<path id="Vector_15" d="M9.02633 9.97695C9.32508 10.2801 9.82805 10.2838 10.1312 9.98507C10.4385 9.68226 10.4422 9.18765 10.1394 8.88023L8.21766 6.92976C7.91485 6.62234 7.42016 6.61866 7.11281 6.92163C6.80547 7.22445 6.8018 7.71905 7.10461 8.02648L9.02633 9.97695Z" fill="#0085FF"/>
<path id="Vector_16" d="M20.0032 34.061C20.0022 34.061 20.0013 34.061 20.0002 34.061C19.5702 34.061 19.2206 34.4089 19.2191 34.8394L19.209 37.5775C19.2073 38.009 19.5559 38.3601 19.9874 38.3617H19.9903C20.4204 38.3617 20.7699 38.0138 20.7715 37.5833L20.7816 34.8452C20.7832 34.4136 20.4347 34.0626 20.0032 34.061Z" fill="#0085FF"/>
<path id="Vector_17" d="M19.229 2.42114V5.31536C19.229 5.74677 19.5788 6.09661 20.0103 6.09661C20.4417 6.09661 20.7915 5.74677 20.7915 5.31536V2.42114C20.7915 1.98974 20.4417 1.63989 20.0103 1.63989C19.5788 1.63989 19.229 1.98974 19.229 2.42114Z" fill="#0085FF"/>
<path id="Vector_18" d="M8.87901 29.8607L6.92869 31.7826C6.62135 32.0855 6.61776 32.5801 6.92057 32.8875C7.21932 33.1907 7.72221 33.1943 8.02541 32.8956L9.97572 30.9736C10.2831 30.6707 10.2867 30.1761 9.98385 29.8688C9.68104 29.5615 9.18635 29.558 8.87901 29.8607Z" fill="#0085FF"/>
<path id="Vector_19" d="M30.5722 10.3648C30.7702 10.3648 30.9683 10.29 31.1205 10.1401L33.0711 8.21852C33.3784 7.91571 33.3821 7.42102 33.0793 7.11367C32.7765 6.80617 32.2818 6.8025 31.9745 7.10539L30.024 9.02696C29.7166 9.32977 29.7129 9.82446 30.0157 10.1318C30.1686 10.287 30.3704 10.3648 30.5722 10.3648Z" fill="#0085FF"/>
<path id="Vector_20" d="M12.6112 11.0626C12.217 10.4875 11.295 10.6841 11.1888 11.382C11.0826 12.0803 11.9263 12.5443 12.4631 12.0955C12.766 11.8421 12.826 11.3909 12.6112 11.0626Z" fill="#0085FF"/>
</g>
<defs>
<clipPath id="clip0_105_9058">
<rect width="40" height="40" fill="white"/>
</clipPath>
</defs>
</svg>
