<svg width="33" height="40" viewBox="0 0 33 40" fill="none" xmlns="http://www.w3.org/2000/svg">
<g id="Group">
<path id="Vector" d="M32.8608 39.3221L32.3513 36.1089C32.2169 35.2584 31.8655 34.4393 31.3349 33.7398C28.1031 29.4841 26.7304 22.1554 26.4289 18.496C26.3803 17.9065 26.2169 17.3432 25.9433 16.822C25.7927 16.5354 25.4385 16.4249 25.1518 16.5756C24.8652 16.7261 24.7549 17.0803 24.9053 17.367C25.1056 17.7481 25.2251 18.1604 25.2606 18.5923C25.268 18.6817 25.2761 18.7698 25.284 18.8585H19.2966C18.6269 17.6908 17.5116 16.9242 16.2506 16.9242C14.9896 16.9242 13.8744 17.6908 13.2047 18.8585H7.58407C7.59189 18.7699 7.6001 18.6818 7.60744 18.5924C7.74444 16.9369 9.15582 15.64 10.8206 15.64H22.0475C22.5652 15.64 23.0603 15.7592 23.5189 15.9944C23.8068 16.1419 24.1601 16.0283 24.3079 15.7402C24.4556 15.4522 24.3418 15.0989 24.0538 14.9512C23.4368 14.635 22.7431 14.4677 22.0475 14.4677H21.4522L22.2176 12.7277C22.4389 12.2239 22.4354 11.6477 22.2081 11.147C21.9811 10.6468 21.5503 10.2653 21.026 10.1003L20.1978 9.84003C20.13 8.41403 19.2663 7.19342 18.0423 6.61316V5.13027H18.3482C19.2351 5.13027 19.9566 4.40911 19.9566 3.52266C19.9566 2.63575 19.2351 1.91427 18.3482 1.91427H18.0423V1.60831C18.0423 0.721475 17.3208 0 16.4339 0C15.5474 0 14.8263 0.721475 14.8263 1.60839V1.91435H14.5196C13.6332 1.91435 12.912 2.63582 12.912 3.52274C12.912 4.40919 13.6332 5.13035 14.5196 5.13035H14.8263V6.61308C13.602 7.19326 12.738 8.41396 12.6703 9.84018L11.8419 10.1005C11.3177 10.2654 10.887 10.6469 10.66 11.1472C10.4327 11.6479 10.4292 12.2241 10.6506 12.7283L11.4158 14.4679H10.8206C9.71544 14.4679 8.65855 14.8797 7.84439 15.6274C7.02929 16.376 6.53031 17.3947 6.43919 18.496C6.13761 22.1554 4.76491 29.4841 1.53289 33.7401C1.00256 34.4393 0.651204 35.2584 0.516866 36.1086L0.00725316 39.3221C-0.0196302 39.4915 0.0289786 39.6641 0.14042 39.7945C0.251783 39.925 0.414646 40.0001 0.586106 40.0001H32.2819C32.4534 40.0001 32.6163 39.925 32.7276 39.7945C32.8391 39.6641 32.8877 39.4915 32.8608 39.3221ZM15.8481 14.4652V11.1929C15.8481 10.8698 16.111 10.607 16.434 10.607C16.7571 10.607 17.0199 10.8698 17.0199 11.1929V14.4652H15.8481ZM20.0674 11.0279L20.6743 11.2187C20.8842 11.2847 21.0498 11.4313 21.1407 11.6316C21.2318 11.8324 21.2331 12.0543 21.1444 12.2562L20.1715 14.4678H18.1922V13.3546C19.1238 12.8659 19.7948 12.0227 20.0674 11.0279ZM15.4125 3.95803H14.5196C14.2795 3.95803 14.0842 3.76274 14.0842 3.52266C14.0842 3.28212 14.2795 3.08651 14.5196 3.08651H15.4125C15.7362 3.08651 15.9986 2.82409 15.9986 2.50039V1.60839C15.9986 1.36785 16.1939 1.17224 16.4339 1.17224C16.6743 1.17224 16.87 1.36785 16.87 1.60839V2.50047C16.87 2.82416 17.1324 3.08659 17.4561 3.08659H18.3482C18.5887 3.08659 18.7844 3.2822 18.7844 3.52274C18.7844 3.76282 18.5887 3.95811 18.3482 3.95811H17.4561C17.1324 3.95811 16.87 4.22054 16.87 4.54423V6.27806C16.7269 6.26141 16.5816 6.25195 16.434 6.25195C16.2867 6.25195 16.1415 6.26141 15.9986 6.2779V4.54415C15.9986 4.22046 15.7362 3.95803 15.4125 3.95803ZM16.434 7.42419C17.8655 7.42419 19.0302 8.58917 19.0302 10.0211C19.0302 10.7671 18.7177 11.4523 18.1922 11.9333V11.1929C18.1922 10.2234 17.4035 9.43474 16.434 9.43474C15.4646 9.43474 14.6759 10.2234 14.6759 11.1929V11.9333C14.1504 11.4523 13.8379 10.7671 13.8379 10.0211C13.8379 8.58917 15.0026 7.42419 16.434 7.42419ZM11.7237 12.2566C11.6349 12.0543 11.6362 11.8324 11.7273 11.6316C11.8182 11.4314 11.9838 11.2847 12.1936 11.2187L12.8006 11.028C13.0732 12.0227 13.7443 12.866 14.6758 13.3546V14.4678H12.6965L11.7237 12.2566ZM31.1935 36.2922L31.2784 36.8279H27.7569L26.7351 33.6754H29.8695C30.1323 34.0858 30.3224 34.3446 30.4012 34.4485C30.8152 34.9942 31.0891 35.6316 31.1935 36.2922ZM16.9894 33.3101L19.3034 29.7319L23.0413 28.983L25.3879 33.321L26.7444 37.5066V38.8278H15.9666L16.9894 33.3101ZM25.404 20.0306C25.5168 20.9966 25.6583 21.9148 25.8214 22.7855H19.7766C19.8928 22.3511 19.9563 21.8884 19.9563 21.4079C19.9563 20.9276 19.8928 20.4649 19.7767 20.0306H25.404ZM16.2506 18.0964C17.6476 18.0964 18.7841 19.582 18.7841 21.408C18.7841 23.2341 17.6476 24.7196 16.2506 24.7196C14.8537 24.7196 13.7172 23.2341 13.7172 21.408C13.7172 19.582 14.8537 18.0964 16.2506 18.0964ZM12.7246 20.0306C12.6085 20.4649 12.545 20.9276 12.545 21.4079C12.545 21.8885 12.6085 22.3512 12.7247 22.7855H7.04664C7.20982 21.9147 7.35127 20.9965 7.46404 20.0306H12.7246ZM2.46654 34.4487C2.54547 34.3448 2.73561 34.086 2.9985 33.6754H6.2746C6.59838 33.6754 6.86072 33.4129 6.86072 33.0892C6.86072 32.7655 6.59838 32.5031 6.2746 32.5031H3.69309C4.64925 30.7678 5.93997 27.9093 6.80821 23.9578H13.2049C13.8746 25.1253 14.9897 25.8918 16.2506 25.8918C17.5115 25.8918 18.6267 25.1253 19.2964 23.9578H26.0598C26.9281 27.9093 28.2188 30.768 29.1749 32.5031H26.2783L23.8663 28.0443C23.7438 27.8179 23.4882 27.6978 23.2356 27.7484L18.8304 28.6311C18.6753 28.6622 18.5393 28.7546 18.4534 28.8875L16.1153 32.5031H8.61909C8.29531 32.5031 8.03296 32.7655 8.03296 33.0892C8.03296 33.4129 8.29531 33.6754 8.61909 33.6754H15.7296L15.1452 36.8279H1.58962L1.67465 36.2919C1.77898 35.6316 2.05281 34.9942 2.46654 34.4487ZM1.40371 38.0002H14.9279L14.7744 38.8278H1.27249L1.40371 38.0002ZM27.9168 38.8278V38.0002H31.4643L31.5956 38.8278H27.9168Z" fill="#0085FF"/>
</g>
</svg>
