<svg width="64" height="64" viewBox="0 0 64 64" fill="none" xmlns="http://www.w3.org/2000/svg">
<path d="M24.7816 22.3517L16.9276 41.694H11.8013L7.93906 26.2593C7.70129 25.3075 7.49809 24.9611 6.78512 24.5569C5.61723 23.9053 3.69617 23.294 2 22.9133L2.11871 22.3518H10.3663C11.4181 22.3518 12.3638 23.0759 12.6016 24.3242L14.6438 35.5191L19.688 22.3518L24.7816 22.3517ZM44.8612 35.3761C44.8839 30.2739 38.0206 29.9962 38.07 27.7136C38.0833 27.0168 38.7232 26.2795 40.1245 26.0934C40.8204 25.9978 42.7353 25.9278 44.9057 26.9562L45.7564 22.8564C44.5886 22.419 43.0876 22 41.222 22C36.4303 22 33.057 24.6304 33.0286 28.3941C32.9971 31.1773 35.4352 32.7305 37.2743 33.6574C39.1626 34.6059 39.794 35.2115 39.7873 36.0621C39.775 37.3603 38.2807 37.9276 36.8868 37.9532C34.4487 37.9924 33.0346 37.2732 31.9053 36.7304L31.0276 40.9711C32.1588 41.5071 34.2532 41.9725 36.4207 42C41.5135 41.9998 44.8452 39.3974 44.8612 35.3761ZM57.515 41.6941H62L58.0865 22.3518H53.9462C53.0158 22.3518 52.2315 22.9118 51.882 23.7697L44.6115 41.6941H49.7004L50.7105 38.8055H56.9311L57.515 41.6941ZM52.1052 34.841L54.6582 27.5782L56.1269 34.841H52.1052ZM31.71 22.3517L27.6986 41.694H22.8495L26.8618 22.3517H31.71Z" fill="#1A2ADF"/>
</svg>
