<svg width="21" height="22" viewBox="0 0 21 22" fill="none" xmlns="http://www.w3.org/2000/svg">
<path d="M0.487793 20.694L1.85303 15.7156C1.00957 14.2601 0.566255 12.6045 0.566255 10.9137C0.570178 5.61357 4.88167 1.306 10.1779 1.306C12.7475 1.306 15.1641 2.30639 16.9766 4.12279C18.793 5.93919 19.7934 8.3519 19.7895 10.9215C19.7856 16.2177 15.4741 20.5292 10.1779 20.5292H10.1739C8.56547 20.5292 6.98446 20.1251 5.57999 19.3601L0.487793 20.694Z" fill="#21D33E"/>
<path d="M0.138672 21.0432L1.55099 15.8843C0.680061 14.3778 0.22498 12.6634 0.22498 10.9098C0.22498 5.42134 4.6934 0.956848 10.1818 0.956848C12.8456 0.956848 15.3446 1.99647 17.2238 3.87564C19.103 5.75873 20.1387 8.25775 20.1387 10.9176C20.1347 16.406 15.6703 20.8705 10.1818 20.8705H10.1779C8.51058 20.8705 6.87465 20.4508 5.41917 19.6583L0.138672 21.0432ZM5.66241 17.8576L5.96449 18.0381C7.23557 18.7913 8.69105 19.1915 10.1779 19.1915H10.1818C14.7444 19.1915 18.4557 15.4802 18.4557 10.9176C18.4557 8.70891 17.5965 6.62966 16.0351 5.06434C14.4737 3.49902 12.3945 2.63986 10.1858 2.63986C5.61925 2.63986 1.90799 6.35112 1.90799 10.9137C1.90799 12.4751 2.34346 13.9973 3.17123 15.3154L3.36739 15.6293L2.53177 18.6814L5.66241 17.8576Z" fill="url(#paint0_linear_444_6803)"/>
<path fill-rule="evenodd" clip-rule="evenodd" d="M7.69075 6.74736C7.50244 6.33151 7.30628 6.32366 7.12974 6.31582C6.98459 6.30797 6.81982 6.31189 6.65112 6.31189C6.48635 6.31189 6.21566 6.37466 5.98812 6.62182C5.76058 6.86897 5.11719 7.47313 5.11719 8.69714C5.11719 9.92115 6.00773 11.1059 6.13327 11.2707C6.25881 11.4355 7.85552 14.0286 10.382 15.0251C12.4848 15.8529 12.9124 15.6881 13.3675 15.6489C13.8226 15.6097 14.8386 15.0487 15.0466 14.468C15.2545 13.8874 15.2545 13.3892 15.1917 13.2872C15.129 13.1852 14.9642 13.1224 14.7131 12.9969C14.466 12.8713 13.2419 12.2711 13.0144 12.1887C12.7869 12.1063 12.6221 12.0632 12.4534 12.3142C12.2886 12.5614 11.81 13.1224 11.6649 13.2872C11.5197 13.4519 11.3745 13.4755 11.1274 13.3499C10.8802 13.2244 10.076 12.9616 9.1266 12.1142C8.38514 11.4551 7.8869 10.6391 7.74175 10.3919C7.59659 10.1448 7.72605 10.0075 7.85159 9.88584C7.96144 9.776 8.09875 9.59553 8.22429 9.45038C8.34983 9.30522 8.38906 9.20322 8.47144 9.03453C8.55383 8.86976 8.5146 8.7246 8.45183 8.59907C8.39691 8.4696 7.91436 7.24167 7.69075 6.74736Z" fill="white"/>
<defs>
<linearGradient id="paint0_linear_444_6803" x1="10.1387" y1="21.0432" x2="10.1387" y2="0.956848" gradientUnits="userSpaceOnUse">
<stop stop-color="#F9F9F9"/>
<stop offset="1" stop-color="white"/>
</linearGradient>
</defs>
</svg>
