<svg width="16" height="16" viewBox="0 0 16 16" fill="none" xmlns="http://www.w3.org/2000/svg">
<g id="vuesax/outline/box">
<g id="box">
<path id="Vector" d="M7.99998 8.8669C7.91331 8.8669 7.82664 8.84692 7.74664 8.80025L1.85998 5.39359C1.61998 5.25359 1.53997 4.94691 1.67997 4.70691C1.81997 4.46691 2.11997 4.38689 2.36664 4.52689L7.99998 7.7869L13.6 4.54691C13.84 4.40691 14.1466 4.49359 14.2866 4.72693C14.4266 4.96693 14.34 5.27357 14.1066 5.41357L8.25999 8.80025C8.17332 8.84025 8.08664 8.8669 7.99998 8.8669Z" fill="#777777"/>
<path id="Vector_2" d="M8 14.9065C7.72667 14.9065 7.5 14.6799 7.5 14.4065V8.35986C7.5 8.08653 7.72667 7.85986 8 7.85986C8.27333 7.85986 8.5 8.08653 8.5 8.35986V14.4065C8.5 14.6799 8.27333 14.9065 8 14.9065Z" fill="#777777"/>
<path id="Vector_3" d="M8.00004 15.1668C7.41337 15.1668 6.83337 15.0402 6.37337 14.7868L2.81337 12.8068C1.84671 12.2735 1.09338 10.9868 1.09338 9.88016V6.11348C1.09338 5.00681 1.84671 3.72684 2.81337 3.18684L6.37337 1.2135C7.28671 0.706829 8.71338 0.706829 9.62671 1.2135L13.1867 3.19348C14.1534 3.72681 14.9067 5.01349 14.9067 6.12015V9.88684C14.9067 10.9935 14.1534 12.2735 13.1867 12.8135L9.62671 14.7868C9.16671 15.0402 8.58671 15.1668 8.00004 15.1668ZM8.00004 1.83349C7.58004 1.83349 7.16671 1.92016 6.86005 2.08683L3.30005 4.06681C2.66005 4.42681 2.09338 5.38015 2.09338 6.12015V9.88684C2.09338 10.6202 2.66005 11.5801 3.30005 11.9401L6.86005 13.9202C7.46671 14.2602 8.53337 14.2602 9.14003 13.9202L12.7 11.9401C13.34 11.5801 13.9067 10.6268 13.9067 9.88684V6.12015C13.9067 5.38682 13.34 4.42681 12.7 4.06681L9.14003 2.08683C8.83337 1.92016 8.42004 1.83349 8.00004 1.83349Z" fill="#777777"/>
<path id="Vector_4" d="M11.3334 9.32686C11.0601 9.32686 10.8334 9.10019 10.8334 8.82686V6.68021L4.75342 3.17354C4.51342 3.03354 4.4334 2.72686 4.5734 2.49353C4.7134 2.25353 5.01342 2.17351 5.25342 2.31351L11.5801 5.96688C11.7334 6.05354 11.8334 6.22018 11.8334 6.40018V8.84021C11.8334 9.10021 11.6067 9.32686 11.3334 9.32686Z" fill="#777777"/>
</g>
</g>
</svg>
