<svg width="16" height="17" viewBox="0 0 16 17" fill="none" xmlns="http://www.w3.org/2000/svg">
<g id="004-whatsapp" clip-path="url(#clip0_516_2389)">
<path id="Vector" d="M11.6713 10.038L11.6653 10.088C10.1993 9.35728 10.046 9.25995 9.85667 9.54395C9.72533 9.74062 9.34267 10.1866 9.22733 10.3186C9.11067 10.4486 8.99467 10.4586 8.79667 10.3686C8.59667 10.2686 7.95467 10.0586 7.19467 9.37862C6.60267 8.84862 6.20533 8.19862 6.088 7.99862C5.89267 7.66128 6.30133 7.61328 6.67333 6.90928C6.74 6.76928 6.706 6.65928 6.65667 6.55995C6.60667 6.45995 6.20867 5.47995 6.042 5.08928C5.882 4.69995 5.71733 4.74928 5.594 4.74928C5.21 4.71595 4.92933 4.72128 4.682 4.97862C3.606 6.16128 3.87733 7.38128 4.798 8.67862C6.60733 11.0466 7.57133 11.4826 9.334 12.088C9.81 12.2393 10.244 12.218 10.5873 12.1686C10.97 12.108 11.7653 11.688 11.9313 11.218C12.1013 10.748 12.1013 10.358 12.0513 10.268C12.002 10.178 11.8713 10.128 11.6713 10.038Z" fill="white"/>
<path id="Vector_2" d="M13.68 2.79913C8.554 -2.1562 0.0706667 1.4378 0.0673333 8.42847C0.0673333 9.8258 0.433333 11.1885 1.13067 12.3918L0 16.4998L4.22333 15.3985C9.49333 18.2451 15.9973 14.4651 16 8.43247C16 6.31513 15.1733 4.32247 13.67 2.82513L13.68 2.79913ZM14.668 8.41047C14.664 13.4991 9.078 16.6771 4.66 14.0798L4.42 13.9371L1.92 14.5871L2.59 12.1571L2.43067 11.9071C-0.318667 7.53047 2.84 1.81047 8.048 1.81047C9.81733 1.81047 11.478 2.50047 12.7287 3.75047C13.9787 4.9898 14.668 6.65047 14.668 8.41047Z" fill="white"/>
</g>
<defs>
<clipPath id="clip0_516_2389">
<rect width="16" height="16" fill="white" transform="translate(0 0.5)"/>
</clipPath>
</defs>
</svg>
